<svg width="48" height="48" viewBox="0 0 48 48" fill="none" xmlns="http://www.w3.org/2000/svg">
<rect width="48" height="48" rx="13" fill="#0052CC"/>
<mask id="mask0_1317_1845" style="mask-type:alpha" maskUnits="userSpaceOnUse" x="12" y="12" width="24" height="24">
<rect x="12" y="12" width="24" height="24" fill="#D9D9D9"/>
</mask>
<g mask="url(#mask0_1317_1845)">
<path d="M14 30V29.2C14 28.65 14.1417 28.1333 14.425 27.65C14.7083 27.1667 15.1 26.8 15.6 26.55C16.6 26.05 17.6375 25.6667 18.7125 25.4C19.7875 25.1333 20.8917 25 22.025 25C22.2917 25 22.5208 25.0958 22.7125 25.2875C22.9042 25.4792 23 25.7333 23 26.05C23 26.3167 22.9042 26.5417 22.7125 26.725C22.5208 26.9083 22.2917 27 22.025 27C20.8417 27 19.775 27.15 18.825 27.45C17.875 27.75 17.1 28.05 16.5 28.35C16.35 28.4333 16.2292 28.55 16.1375 28.7C16.0458 28.85 16 29.0167 16 29.2V30H22C22.2833 30 22.5208 30.0958 22.7125 30.2875C22.9042 30.4792 23 30.7167 23 31C23 31.2833 22.9042 31.5208 22.7125 31.7125C22.5208 31.9042 22.2833 32 22 32H16C15.45 32 14.9792 31.8042 14.5875 31.4125C14.1958 31.0208 14 30.55 14 30ZM29 33.025C28.8667 33.025 28.7333 33.0083 28.6 32.975C28.4667 32.9417 28.3417 32.8833 28.225 32.8L25.225 31.05C24.9917 30.9167 24.8125 30.7375 24.6875 30.5125C24.5625 30.2875 24.5 30.0417 24.5 29.775V26.25C24.5 25.9833 24.5625 25.7375 24.6875 25.5125C24.8125 25.2875 24.9917 25.1083 25.225 24.975L28.225 23.225C28.3417 23.1417 28.4667 23.0833 28.6 23.05C28.7333 23.0167 28.8667 23 29 23C29.1333 23 29.2625 23.0208 29.3875 23.0625C29.5125 23.1042 29.6333 23.1583 29.75 23.225L32.75 24.975C32.9833 25.1083 33.1667 25.2875 33.3 25.5125C33.4333 25.7375 33.5 25.9833 33.5 26.25V29.775C33.5 30.0417 33.4333 30.2875 33.3 30.5125C33.1667 30.7375 32.9833 30.9167 32.75 31.05L29.75 32.8C29.6333 32.8667 29.5125 32.9208 29.3875 32.9625C29.2625 33.0042 29.1333 33.025 29 33.025ZM22 24C20.9 24 19.9583 23.6083 19.175 22.825C18.3917 22.0417 18 21.1 18 20C18 18.9 18.3917 17.9583 19.175 17.175C19.9583 16.3917 20.9 16 22 16C23.1 16 24.0417 16.3917 24.825 17.175C25.6083 17.9583 26 18.9 26 20C26 21.1 25.6083 22.0417 24.825 22.825C24.0417 23.6083 23.1 24 22 24ZM22 22C22.55 22 23.0208 21.8042 23.4125 21.4125C23.8042 21.0208 24 20.55 24 20C24 19.45 23.8042 18.9792 23.4125 18.5875C23.0208 18.1958 22.55 18 22 18C21.45 18 20.9792 18.1958 20.5875 18.5875C20.1958 18.9792 20 19.45 20 20C20 20.55 20.1958 21.0208 20.5875 21.4125C20.9792 21.8042 21.45 22 22 22ZM26.65 25.85L29 27.225L31.35 25.85L29 24.5L26.65 25.85ZM29.75 31.05L32 29.75V27L29.75 28.325V31.05ZM26 29.75L28.25 31.075V28.35L26 27.025V29.75Z" fill="white"/>
</g>
</svg>
