<svg width="276" height="276" viewBox="0 0 276 276" fill="none" xmlns="http://www.w3.org/2000/svg">
<path fill-rule="evenodd" clip-rule="evenodd" d="M120.528 117.935C120.335 118.307 119.769 122.075 121.991 122.075C122.379 122.076 122.754 121.937 123.048 121.683C123.342 121.43 123.535 121.079 123.592 120.695C124.061 116.472 121.301 116.486 120.528 117.935ZM140.538 117.88C140.662 119.342 140.828 120.64 142.291 120.64C142.679 120.64 143.054 120.501 143.348 120.248C143.642 119.994 143.835 119.644 143.891 119.26C143.921 118.372 143.824 117.484 143.602 116.624C142.801 115.147 140.331 115.506 140.538 117.88ZM130.878 131.21C131.306 131.21 135.018 131.031 135.887 130.355C136.15 130.162 136.122 129.789 136.122 129.444C136.039 125.529 135.661 121.627 134.99 117.769C134.99 117.562 134.811 117.521 134.701 117.548C134.59 117.576 134.535 117.769 134.549 118.1C134.549 119.232 134.452 119.618 134.852 125.953C135.115 130.093 135.004 128.933 135.087 129.623C133.793 130.098 132.464 130.471 131.113 130.741C130.216 130.934 130.85 131.21 130.878 131.21ZM135.239 140.76C134.215 141.309 133.086 141.633 131.927 141.712C131.868 141.712 131.812 141.735 131.771 141.777C131.729 141.818 131.706 141.874 131.706 141.933C131.706 141.992 131.729 142.048 131.771 142.089C131.812 142.131 131.868 142.154 131.927 142.154C132.575 142.387 133.268 142.471 133.953 142.399C134.638 142.328 135.299 142.103 135.885 141.741C136.471 141.378 136.968 140.889 137.339 140.308C137.71 139.727 137.945 139.071 138.026 138.386C138.034 138.358 138.035 138.329 138.031 138.3C138.027 138.272 138.018 138.244 138.003 138.219C137.988 138.194 137.969 138.172 137.945 138.155C137.922 138.137 137.896 138.125 137.868 138.117C137.84 138.11 137.81 138.108 137.782 138.112C137.753 138.117 137.725 138.126 137.7 138.141C137.675 138.156 137.653 138.175 137.636 138.198C137.619 138.222 137.606 138.248 137.599 138.276C137.04 139.294 136.227 140.15 135.239 140.76ZM73.3872 34.3344C76.9338 46.1886 89.478 45.609 90.9408 46.4922C90.9408 46.6302 93.8112 57.684 94.9704 59.202C95.619 60.0438 97.1784 59.7126 98.2134 59.5194C100.642 59.0364 103.457 58.8846 105.514 57.2424C106.038 56.8146 105.734 55.0758 105.596 54.4824C105.157 52.0011 104.549 49.5528 103.775 47.1546C103.47 46.4311 103.212 45.689 103.002 44.9328C103.954 44.0892 104.99 43.3448 106.093 42.711C107.914 41.4706 109.534 39.958 110.896 38.226C113.531 34.3658 114.722 29.7008 114.26 25.0499C113.798 20.3989 111.713 16.0593 108.37 12.7926C98.1444 2.76002 79.6524 6.03061 73.6494 18.6852C71.5932 23.0736 71.9934 29.7252 73.3872 34.3344ZM104.879 56.58C103.043 58.0566 100.339 58.2498 97.9788 58.7328C97.344 58.8708 95.8398 59.2434 95.4396 58.7328C94.6588 57.6057 94.097 56.3417 93.7836 55.0068C97.3582 54.503 100.855 53.5478 104.189 52.164C104.64 53.5929 104.872 55.0817 104.879 56.58ZM104.037 51.5982C100.511 52.2554 97.048 53.2157 93.687 54.4686C93.3306 52.867 92.8696 51.2904 92.307 49.749C95.8724 49.3756 99.3692 48.5118 102.698 47.1822C103.255 48.641 103.716 50.1346 104.078 51.6534L104.037 51.5982ZM74.5188 19.113C80.301 7.16222 97.9788 4.14002 107.639 13.593C110.779 16.6726 112.743 20.753 113.191 25.128C113.64 29.503 112.545 33.8971 110.095 37.5498C107.708 40.917 102.878 43.2354 102.133 44.4498C101.87 44.8776 102.353 45.9678 102.657 46.7406C101.084 47.0442 99.3588 47.4168 97.8132 47.7618C97.3992 45.8712 95.4672 38.2398 94.7496 36.4458C94.4736 35.7282 94.2252 35.7834 93.4938 35.9904C89.4642 35.9904 85.0344 34.9692 83.613 31.1742C83.4413 30.7294 83.3209 30.2664 83.2542 29.7942C83.061 27.807 84.6342 25.4886 86.373 25.6542C86.1246 27.1722 86.373 30.0702 87.6702 30.9396C88.9674 31.809 90.4302 30.429 90.4302 29.187C90.3566 28.2914 90.0655 27.4273 89.5821 26.6697C89.0987 25.9122 88.4377 25.2841 87.6564 24.84C87.8733 24.3474 88.1948 23.9078 88.5986 23.5517C89.0023 23.1957 89.4787 22.9317 89.9946 22.7781C90.5105 22.6245 91.0537 22.585 91.5864 22.6622C92.1192 22.7395 92.6287 22.9316 93.0798 23.2254C91.9896 25.3506 93.0798 30.222 95.0118 29.0766C96.9438 27.9312 96.309 25.116 95.1084 23.5566C94.5288 22.7976 94.4046 23.0046 94.6944 22.7838C96.9438 21.1416 99.4968 23.046 100.573 25.5438C102.119 28.98 98.8068 33.2166 96.7092 34.5C96.658 34.5311 96.6212 34.5813 96.6069 34.6395C96.5927 34.6978 96.6022 34.7593 96.6333 34.8105C96.6644 34.8618 96.7146 34.8985 96.7728 34.9128C96.831 34.927 96.8926 34.9175 96.9438 34.8864C99.5106 33.3822 102.754 28.9524 101.277 25.2264C99.8004 21.5004 96.0882 20.0652 93.7422 22.287C93.1515 21.8817 92.4774 21.6141 91.7695 21.5039C91.0616 21.3937 90.338 21.4438 89.6521 21.6503C88.9661 21.8569 88.3353 22.2148 87.806 22.6976C87.2767 23.1803 86.8624 23.7757 86.5938 24.4398C84.027 24.1086 81.8604 27.1032 82.1502 29.8218C82.3061 31.0234 82.7603 32.1668 83.4713 33.1479C84.1824 34.1289 85.1278 34.9164 86.2212 35.4384C87.5184 36.0594 92.1276 37.191 93.9492 36.6666C94.584 38.0466 96.8886 46.1472 97.3026 47.8446C91.1754 49.2246 92.4174 49.8732 92.1138 48.9762C91.755 47.8584 91.5342 46.2162 91.2306 46.1058C83.613 44.3808 76.7406 43.1112 74.1738 34.0722C72.918 29.6976 72.5868 23.2116 74.5188 19.113ZM87.3252 25.9302C87.8481 26.3013 88.2851 26.7804 88.6066 27.3352C88.928 27.89 89.1264 28.5074 89.1882 29.1456C89.1882 29.5182 88.3464 30.5256 87.8082 29.4216C87.3962 28.3069 87.2497 27.1114 87.3804 25.9302H87.3252ZM93.8388 23.8188C94.9428 24.8952 95.6328 27.4068 94.4322 28.1382C94.016 27.5087 93.7466 26.7937 93.6439 26.046C93.5412 25.2984 93.6078 24.5373 93.8388 23.8188ZM52.4388 76.4934C58.0554 74.7408 64.8588 76.2588 67.4808 82.4688C72.021 92.9844 60.015 98.3388 60.1392 98.8908C60.4152 100.271 60.912 102.686 61.119 104.08C61.1355 104.197 61.1978 104.303 61.2922 104.374C61.3867 104.445 61.5056 104.476 61.6227 104.459C61.7398 104.443 61.8456 104.38 61.9168 104.286C61.9879 104.191 62.0187 104.073 62.0022 103.955C61.8366 102.575 61.6572 100.588 61.464 99.153C63.4152 98.3703 65.2206 97.2647 66.8046 95.8824C76.5474 84.387 65.673 69.8832 51.7764 74.4234C49.5759 75.065 47.6297 76.3757 46.2079 78.1734C44.786 79.9712 43.9589 82.1669 43.8414 84.456C43.3998 89.8932 47.733 94.5852 54.7296 93.978C54.8351 93.9594 54.9306 93.9043 54.9994 93.8223C55.0683 93.7402 55.106 93.6366 55.106 93.5295C55.106 93.4224 55.0683 93.3188 54.9994 93.2367C54.9306 93.1547 54.8351 93.0996 54.7296 93.081C48.5196 93.3984 45.1938 88.941 45.7872 84.663C45.9247 82.7836 46.6365 80.9919 47.8263 79.5306C49.0161 78.0693 50.6263 77.009 52.4388 76.4934ZM155.511 40.4892C155.628 40.5203 155.753 40.5036 155.858 40.4428C155.962 40.382 156.039 40.282 156.07 40.1649C156.101 40.0478 156.084 39.9231 156.023 39.8183C155.963 39.7135 155.863 39.6371 155.746 39.606C149.77 37.9224 148.045 32.637 149.977 28.7592C150.73 27.0273 151.997 25.5687 153.606 24.5813C155.216 23.5938 157.09 23.1253 158.975 23.2392C169.352 23.5014 173.906 33.051 170.015 39.8682C167.434 44.5326 163.984 45.7884 159.568 46.368C159.429 46.3876 159.299 46.4521 159.2 46.5517C159.1 46.6513 159.036 46.7805 159.016 46.92C158.864 48.1896 158.533 50.6874 158.285 52.1364C158.261 52.2517 158.284 52.3717 158.349 52.4701C158.413 52.5684 158.514 52.637 158.63 52.6608C158.745 52.6846 158.865 52.6616 158.963 52.5969C159.062 52.5322 159.13 52.4311 159.154 52.3158C159.472 50.8254 159.899 49.0728 160.189 47.5962C162.286 47.4835 164.348 47.0169 166.289 46.2162C170.967 43.4562 173.81 39.0954 173.437 33.5754C172.568 20.6172 153.662 15.9804 148.225 28.0554C146.113 32.9682 148.68 38.9436 155.511 40.4892ZM232.184 105.239C232.026 102.681 231.113 100.227 229.562 98.187C228.069 96.5077 226.249 95.1516 224.213 94.2023C222.176 93.253 219.967 92.7305 217.721 92.667C215.435 92.5611 213.173 93.1682 211.247 94.4043C209.321 95.6404 207.827 97.4445 206.971 99.567C204.805 104.576 207.413 110.414 214.216 112.07C214.277 112.097 214.343 112.111 214.409 112.11C214.476 112.109 214.541 112.094 214.601 112.065C214.661 112.036 214.714 111.994 214.756 111.943C214.798 111.891 214.828 111.831 214.845 111.767C214.861 111.702 214.863 111.635 214.851 111.57C214.838 111.504 214.812 111.442 214.773 111.389C214.734 111.335 214.684 111.29 214.626 111.257C214.568 111.225 214.503 111.205 214.437 111.2C208.503 109.406 206.737 104.3 208.682 100.354C209.435 98.6217 210.702 97.1631 212.311 96.1757C213.921 95.1882 215.795 94.7197 217.68 94.8336C219.594 94.8868 221.477 95.3276 223.216 96.1293C224.954 96.931 226.512 98.077 227.795 99.498C229.088 101.185 229.856 103.215 230.003 105.335C230.983 117.507 217.873 117.548 217.749 118.514C217.583 119.894 217.28 122.323 217.018 123.731C216.994 123.846 217.017 123.966 217.081 124.064C217.146 124.163 217.247 124.231 217.363 124.255C217.478 124.279 217.598 124.256 217.696 124.191C217.795 124.127 217.863 124.025 217.887 123.91C218.218 122.434 218.632 120.667 218.922 119.191C221.022 119.073 223.088 118.606 225.035 117.811C229.645 115.106 232.556 110.814 232.184 105.239ZM67.26 114.54C67.8534 112.084 66.0732 109.503 64.3068 109.71C63.1612 109.586 62.0075 109.554 60.8568 109.613C57.8622 110.331 56.4546 114.25 59.2698 116.168C62.499 118.321 66.6804 116.831 67.26 114.54ZM65.121 114.264C64.6309 114.673 64.0306 114.927 63.396 114.995C59.6424 115.52 58.842 112.235 61.3674 111.159L64.3344 110.607C65.6178 110.717 65.9076 113.464 65.121 114.195V114.264ZM157.139 57.408C153.924 56.235 150.446 59.8644 152.723 62.928C155 65.9916 159.513 65.9916 160.81 63.9492C162.107 61.9068 161.321 58.8156 159.582 58.4292C159.43 58.3602 158.23 57.8082 157.139 57.408ZM158.878 62.928C158.261 63.1381 157.6 63.185 156.959 63.0641C156.318 62.9432 155.72 62.6586 155.221 62.238C154.813 61.9452 154.478 61.5628 154.241 61.1202C153.841 60.0024 155.276 58.857 156.325 58.788L159.306 59.2158C160.465 59.8368 159.886 62.5416 158.878 62.9694V62.928ZM218.273 130.106C217.997 129.982 216.576 129.389 215.845 129.113C212.615 127.94 209.152 131.569 211.429 134.633C213.706 137.696 218.204 137.696 219.515 135.654C220.826 133.612 220.026 130.493 218.273 130.106ZM217.57 134.674C216.952 134.883 216.291 134.929 215.651 134.808C215.01 134.687 214.412 134.404 213.913 133.984C213.508 133.682 213.174 133.296 212.933 132.853C212.546 131.749 213.968 130.603 215.017 130.534L217.997 130.962C219.157 131.542 218.577 134.233 217.57 134.674Z" fill="#0052CC"/>
<path fill-rule="evenodd" clip-rule="evenodd" d="M206.997 206.227C204.237 192.648 193.501 171.727 180.612 166.387L178.017 160.963C177.999 160.924 177.972 160.889 177.939 160.861C177.906 160.833 177.867 160.812 177.825 160.801C177.783 160.789 177.739 160.786 177.696 160.793C177.653 160.8 177.612 160.815 177.576 160.839L174.816 162.619C173.939 156.762 171.263 151.322 167.157 147.053C170.027 142.623 174.623 141.271 179.37 141.064C183.303 140.898 186.201 140.664 188.478 137.296C192.99 130.645 191.928 124.159 186.629 117.976C178.556 108.565 175.382 111.38 171.449 106.177C163.969 96.4071 162.272 81.9585 151.259 74.4375C137.183 64.9017 129.593 72.5883 126.64 74.9619C122.321 72.3399 112.688 73.2507 108.548 76.7973C105.029 79.8057 100.365 83.6973 98.5571 88.0443C94.7069 97.2213 95.1209 108.082 89.4905 116.403C88.1105 118.473 85.7507 119.867 84.0809 121.827C81.789 124.7 79.8392 127.831 78.2711 131.155C76.2287 135.019 74.6693 139.311 76.5323 143.313C79.0301 148.668 84.6191 153.774 90.5807 153.387C94.0307 153.153 98.5985 151.083 101.842 152.449C103.774 153.249 104.519 155.112 105.982 156.672C109.294 160.356 117.021 161.474 121.299 158.921C116.594 164.91 109.418 164.703 96.9011 171.603C77.6915 182.174 70.6811 194.18 68.6249 206.476C67.8383 210.301 67.2579 214.166 66.8861 218.054C65.6993 238.105 71.7851 263.525 91.5191 267.734C96.9287 268.893 103.125 269.638 108.479 268.3C118.622 265.774 130.725 258.943 139.612 253.396C143.752 250.815 159.07 240.479 166.191 239.127C166.619 242.81 167.548 246.417 168.951 249.849C174.65 261.565 183.772 268.493 196.551 265.485C204.831 263.539 207.191 254.721 207.411 246.275C211.565 237.36 208.267 212.713 206.997 206.227ZM159.249 141.616C161.706 142.071 163.389 144.376 165.211 146.253C170.027 151.069 173.339 156.23 174.333 162.813C170.345 165.352 167.75 166.953 167.695 167.035C167.64 167.118 165.722 162.233 164.562 161.64C162.828 160.779 161.255 159.626 159.912 158.231C158.877 157.086 157.607 155.071 157.773 153.553C158.506 153.163 159.307 152.914 160.133 152.821V151.966C155.868 152.09 154.406 155.982 154.019 156.851C153.743 157.472 153.357 158.093 152.474 157.996C151.59 157.9 151.273 156.879 151.604 155.968C151.935 155.057 152.736 151.055 158.38 150.186C158.451 150.176 158.519 150.152 158.58 150.116C158.642 150.079 158.696 150.031 158.738 149.974C158.781 149.917 158.813 149.852 158.83 149.783C158.848 149.714 158.852 149.642 158.842 149.572C158.832 149.501 158.809 149.433 158.772 149.371C158.736 149.31 158.688 149.256 158.631 149.213C158.574 149.17 158.509 149.139 158.44 149.121C158.371 149.103 158.299 149.099 158.228 149.109C157.047 149.259 155.902 149.619 154.847 150.172C153.899 150.635 153.057 151.29 152.376 152.095C151.694 152.9 151.187 153.839 150.887 154.85C150.224 156.741 147.906 155.899 148.458 154.27C149.013 152.686 149.84 151.211 150.9 149.91C152.078 148.787 153.493 147.943 155.04 147.439C156.255 146.943 157.29 147.177 157.566 146.777C157.842 146.377 157.193 145.038 156.862 144.638C155.082 142.513 149.962 144.348 148.002 141.975C146.747 140.415 149.382 140.36 150.445 140.222C153.426 139.891 156.255 141.05 159.249 141.616ZM164.314 175.812C160.369 177.098 156.345 178.126 152.267 178.89C153.647 171.037 154.585 164.303 154.447 161.86C157.662 162.481 161.347 162.923 165.377 163.585C166.467 165.393 167.06 166.911 167.322 167.339L164.645 169.036C164.507 169.216 164.535 168.471 164.314 175.812ZM149.327 215.68C149.938 218.33 150.372 221.018 150.624 223.726C144.966 223.367 140.647 223.436 138.522 223.353C138.605 219.475 138.646 218.275 138.715 217.461C142.198 216.578 145.747 215.983 149.327 215.68ZM127.62 181.691C135.449 181.747 143.267 181.11 150.983 179.787C148.527 193.035 144.787 208.96 143.021 212.148C138.963 201.08 139.378 201.039 127.62 181.691ZM144.18 211.968C146.415 206.959 149.81 192.013 152.073 179.566C156.193 178.794 160.255 177.743 164.231 176.419C163.803 191.323 163.679 209.926 164.576 224.871C161.954 224.637 158.145 224.305 154.447 224.016C154.212 221.78 153.288 213.997 152.501 211.954C152.294 211.402 152.046 211.182 151.121 211.154C148.814 211.255 146.516 211.527 144.249 211.968H144.18ZM149.106 159.321C147.709 158.504 146.592 157.282 145.905 155.816C146.544 156.086 147.21 156.285 147.892 156.409C148.151 156.701 148.485 156.915 148.857 157.03C149.229 157.144 149.626 157.154 150.003 157.058C150.624 156.865 150.224 156.782 150.555 157.651C150.683 158.002 150.897 158.314 151.178 158.558C151.459 158.803 151.798 158.972 152.163 159.049C152.527 159.126 152.905 159.11 153.262 159C153.618 158.891 153.94 158.693 154.199 158.424C154.737 157.941 154.778 157.362 155.427 156.12C156.062 155.995 156.683 155.83 157.29 155.65C158.932 159.956 164.08 162.04 164.438 162.357C158.38 161.46 153.012 160.894 149.175 159.321H149.106ZM122.652 157.665C125.964 153.829 125.288 151.083 121.879 148.364C114.979 142.954 115.835 144.403 112.937 138.359C109.528 128.547 112.467 113.091 114.993 103.031C115.683 100.271 120.389 97.3179 123.811 97.7595C128.558 98.3667 126.571 100.864 130.628 102.286C131.333 102.492 132.061 102.603 132.795 102.617C132.838 102.631 132.884 102.636 132.93 102.631C132.975 102.627 133.019 102.614 133.059 102.593C133.1 102.572 133.136 102.543 133.165 102.508C133.194 102.473 133.216 102.433 133.23 102.389C133.243 102.346 133.248 102.3 133.244 102.255C133.24 102.209 133.227 102.165 133.206 102.125C133.185 102.084 133.156 102.049 133.121 102.019C133.086 101.99 133.045 101.968 133.002 101.955C130.85 100.664 128.866 99.1109 127.095 97.3317C127.937 93.8955 130.076 92.0187 134.092 91.9911C136.852 91.9911 139.032 94.0887 140.992 95.8827C143.366 98.0493 145.919 103.9 145.725 107.116C145.289 110.842 146.162 114.603 148.196 117.756C149.576 120.157 152.17 122.241 153.716 124.269C154.571 125.401 154.074 130.452 153.578 132.673C152.929 134.619 151.549 138.331 151.232 139.173C145.463 139.38 145.712 142.471 148.472 143.796C145.891 146.887 139.584 150.324 144.097 154.657C145.063 156.685 146.609 159.459 148.679 160.301C150.148 160.896 151.667 161.358 153.219 161.681C153.522 163.82 152.529 170.899 151.011 179.138C143.091 180.456 135.068 181.061 127.04 180.946C122.058 172.79 117.104 165.062 115.848 163.82C118.637 162.403 121.006 160.281 122.721 157.665H122.652ZM113.24 164.938C116 163.903 114.62 164.082 115.283 164.593C115.945 165.103 120.499 172.321 125.784 180.891C119.519 180.794 112.467 180.325 109.804 180.021C110.604 179.386 108.535 168.484 107.734 167.104C109.735 166.304 111.584 165.6 113.309 164.938H113.24ZM106.713 167.532C107.848 171.596 108.619 175.752 109.017 179.952C103.063 179.099 97.2217 177.585 91.6019 175.44C96.4176 172.359 101.498 169.713 106.782 167.532H106.713ZM107.969 267.306C102.794 268.603 96.7355 267.844 91.5191 266.727C83.3633 264.974 77.7191 259.523 74.0483 252.54C68.2109 241.5 66.4721 225.092 68.2523 213.597C68.6111 211.292 69.0665 209.015 69.4529 206.697C71.6471 193.545 79.6373 183.637 90.7877 176.143C101.731 180.159 109.086 181.567 126.281 181.663C138.191 200.983 138.453 202.915 141.861 212.368C140.813 212.562 135.955 213.541 135.127 214.218C134.796 214.48 134.796 215.004 135.127 223.298C122.569 223.546 110.287 225.506 98.7365 232.958C97.3565 223.008 98.9435 220 102.159 214.3C107.21 205.344 106.299 203.688 103.111 198.596C102.586 197.909 102.21 197.119 102.007 196.278C102.007 195.946 100.627 195.491 102.573 198.913C105.333 203.937 106.078 205.123 101.193 213.748C97.6187 220.069 96.1559 223.312 98.3087 233.248C97.3427 233.896 96.2387 234.628 95.1761 235.483C93.5527 236.627 92.0292 237.905 90.6221 239.306C90.5946 239.359 90.5894 239.421 90.6075 239.478C90.6256 239.535 90.6656 239.582 90.7187 239.61C90.7718 239.637 90.8336 239.642 90.8905 239.624C90.9474 239.606 90.9949 239.566 91.0223 239.513C91.4501 238.754 98.5847 233.993 100.503 233.013C111.212 227.617 123.052 222.953 142.441 224.236C142.197 232.441 143.046 240.641 144.966 248.621C135.003 254.914 120.844 264.105 108.038 267.306H107.969ZM145.822 248.069C144.049 240.287 143.266 232.312 143.49 224.333C164.438 225.713 157.869 225.271 164.632 225.713C164.88 229.743 165.253 234.117 165.804 238.133C160.395 239.14 150.666 245.074 145.891 248.069H145.822ZM195.971 264.491C183.786 267.375 175.133 260.724 169.641 249.463C163.569 237.043 164.576 183.099 164.921 169.354L177.534 161.543C194.564 198.32 196.606 201.798 200.429 213.983C205.369 229.508 211.883 260.82 196.04 264.491H195.971ZM207.094 243.377C206.774 235.988 205.636 228.656 203.699 221.518C199.325 204.502 194.591 195.974 181.495 168.443L181.882 168.236C193.446 174.418 203.244 193.614 205.811 206.434C207.218 213.127 209.909 235.014 207.163 243.377H207.094Z" fill="#0052CC"/>
</svg>
