<svg width="48" height="48" viewBox="0 0 48 48" fill="none" xmlns="http://www.w3.org/2000/svg">
<rect width="48" height="48" rx="13" fill="#0052CC"/>
<mask id="mask0_1317_1385" style="mask-type:alpha" maskUnits="userSpaceOnUse" x="12" y="12" width="24" height="24">
<rect x="12" y="12" width="24" height="24" fill="#D9D9D9"/>
</mask>
<g mask="url(#mask0_1317_1385)">
<path d="M20.85 24L22.3 22.55C22.5 22.35 22.5958 22.1167 22.5875 21.85C22.5792 21.5833 22.4833 21.35 22.3 21.15C22.1 20.95 21.8625 20.8458 21.5875 20.8375C21.3125 20.8292 21.075 20.925 20.875 21.125L18.7 23.3C18.5 23.5 18.4 23.7333 18.4 24C18.4 24.2667 18.5 24.5 18.7 24.7L20.875 26.875C21.075 27.075 21.3125 27.1708 21.5875 27.1625C21.8625 27.1542 22.1 27.05 22.3 26.85C22.4833 26.65 22.5792 26.4167 22.5875 26.15C22.5958 25.8833 22.5 25.65 22.3 25.45L20.85 24ZM27.15 24L25.7 25.45C25.5 25.65 25.4042 25.8833 25.4125 26.15C25.4208 26.4167 25.5167 26.65 25.7 26.85C25.9 27.05 26.1375 27.1542 26.4125 27.1625C26.6875 27.1708 26.925 27.075 27.125 26.875L29.3 24.7C29.5 24.5 29.6 24.2667 29.6 24C29.6 23.7333 29.5 23.5 29.3 23.3L27.125 21.125C26.925 20.925 26.6875 20.8292 26.4125 20.8375C26.1375 20.8458 25.9 20.95 25.7 21.15C25.5167 21.35 25.4208 21.5833 25.4125 21.85C25.4042 22.1167 25.5 22.35 25.7 22.55L27.15 24ZM17 33C16.45 33 15.9792 32.8042 15.5875 32.4125C15.1958 32.0208 15 31.55 15 31V17C15 16.45 15.1958 15.9792 15.5875 15.5875C15.9792 15.1958 16.45 15 17 15H21.2C21.4167 14.4 21.7792 13.9167 22.2875 13.55C22.7958 13.1833 23.3667 13 24 13C24.6333 13 25.2042 13.1833 25.7125 13.55C26.2208 13.9167 26.5833 14.4 26.8 15H31C31.55 15 32.0208 15.1958 32.4125 15.5875C32.8042 15.9792 33 16.45 33 17V31C33 31.55 32.8042 32.0208 32.4125 32.4125C32.0208 32.8042 31.55 33 31 33H17ZM17 31H31V17H17V31ZM24 16.25C24.2167 16.25 24.3958 16.1792 24.5375 16.0375C24.6792 15.8958 24.75 15.7167 24.75 15.5C24.75 15.2833 24.6792 15.1042 24.5375 14.9625C24.3958 14.8208 24.2167 14.75 24 14.75C23.7833 14.75 23.6042 14.8208 23.4625 14.9625C23.3208 15.1042 23.25 15.2833 23.25 15.5C23.25 15.7167 23.3208 15.8958 23.4625 16.0375C23.6042 16.1792 23.7833 16.25 24 16.25Z" fill="white"/>
</g>
</svg>
