<svg width="48" height="48" viewBox="0 0 48 48" fill="none" xmlns="http://www.w3.org/2000/svg">
<rect width="48" height="48" rx="13" fill="#0052CC"/>
<mask id="mask0_1317_1694" style="mask-type:alpha" maskUnits="userSpaceOnUse" x="12" y="12" width="24" height="24">
<rect x="12" y="12" width="24" height="24" fill="#D9D9D9"/>
</mask>
<g mask="url(#mask0_1317_1694)">
<path d="M18 30L15.7 32.3C15.3833 32.6167 15.0208 32.6875 14.6125 32.5125C14.2042 32.3375 14 32.025 14 31.575V16C14 15.45 14.1958 14.9792 14.5875 14.5875C14.9792 14.1958 15.45 14 16 14H32C32.55 14 33.0208 14.1958 33.4125 14.5875C33.8042 14.9792 34 15.45 34 16V28C34 28.55 33.8042 29.0208 33.4125 29.4125C33.0208 29.8042 32.55 30 32 30H18ZM17.15 28H32V16H16V29.125L17.15 28ZM20 23C20.2833 23 20.5208 22.9042 20.7125 22.7125C20.9042 22.5208 21 22.2833 21 22C21 21.7167 20.9042 21.4792 20.7125 21.2875C20.5208 21.0958 20.2833 21 20 21C19.7167 21 19.4792 21.0958 19.2875 21.2875C19.0958 21.4792 19 21.7167 19 22C19 22.2833 19.0958 22.5208 19.2875 22.7125C19.4792 22.9042 19.7167 23 20 23ZM24 23C24.2833 23 24.5208 22.9042 24.7125 22.7125C24.9042 22.5208 25 22.2833 25 22C25 21.7167 24.9042 21.4792 24.7125 21.2875C24.5208 21.0958 24.2833 21 24 21C23.7167 21 23.4792 21.0958 23.2875 21.2875C23.0958 21.4792 23 21.7167 23 22C23 22.2833 23.0958 22.5208 23.2875 22.7125C23.4792 22.9042 23.7167 23 24 23ZM28 23C28.2833 23 28.5208 22.9042 28.7125 22.7125C28.9042 22.5208 29 22.2833 29 22C29 21.7167 28.9042 21.4792 28.7125 21.2875C28.5208 21.0958 28.2833 21 28 21C27.7167 21 27.4792 21.0958 27.2875 21.2875C27.0958 21.4792 27 21.7167 27 22C27 22.2833 27.0958 22.5208 27.2875 22.7125C27.4792 22.9042 27.7167 23 28 23Z" fill="white"/>
</g>
</svg>
