<svg width="48" height="48" viewBox="0 0 48 48" fill="none" xmlns="http://www.w3.org/2000/svg">
<rect width="48" height="48" rx="13" fill="#0052CC"/>
<mask id="mask0_1311_3783" style="mask-type:alpha" maskUnits="userSpaceOnUse" x="12" y="12" width="24" height="24">
<rect x="12" y="12" width="24" height="24" fill="#D9D9D9"/>
</mask>
<g mask="url(#mask0_1311_3783)">
<path d="M15 29H33C33.2833 29 33.5208 29.0958 33.7125 29.2875C33.9042 29.4792 34 29.7167 34 30C34 30.2833 33.9042 30.5208 33.7125 30.7125C33.5208 30.9042 33.2833 31 33 31H15C14.7167 31 14.4792 30.9042 14.2875 30.7125C14.0958 30.5208 14 30.2833 14 30C14 29.7167 14.0958 29.4792 14.2875 29.2875C14.4792 29.0958 14.7167 29 15 29ZM16 23.45L15.525 24.3C15.425 24.4833 15.275 24.6 15.075 24.65C14.875 24.7 14.6833 24.675 14.5 24.575C14.3167 24.475 14.2 24.325 14.15 24.125C14.1 23.925 14.125 23.7333 14.225 23.55L14.7 22.7H13.75C13.5333 22.7 13.3542 22.6292 13.2125 22.4875C13.0708 22.3458 13 22.1667 13 21.95C13 21.7333 13.0708 21.5542 13.2125 21.4125C13.3542 21.2708 13.5333 21.2 13.75 21.2H14.7L14.225 20.4C14.125 20.2167 14.1 20.025 14.15 19.825C14.2 19.625 14.3167 19.475 14.5 19.375C14.6833 19.275 14.875 19.25 15.075 19.3C15.275 19.35 15.425 19.4667 15.525 19.65L16 20.45L16.475 19.65C16.575 19.4667 16.725 19.35 16.925 19.3C17.125 19.25 17.3167 19.275 17.5 19.375C17.6833 19.475 17.8 19.625 17.85 19.825C17.9 20.025 17.875 20.2167 17.775 20.4L17.3 21.2H18.25C18.4667 21.2 18.6458 21.2708 18.7875 21.4125C18.9292 21.5542 19 21.7333 19 21.95C19 22.1667 18.9292 22.3458 18.7875 22.4875C18.6458 22.6292 18.4667 22.7 18.25 22.7H17.3L17.775 23.55C17.875 23.7333 17.9 23.925 17.85 24.125C17.8 24.325 17.6833 24.475 17.5 24.575C17.3167 24.675 17.125 24.7 16.925 24.65C16.725 24.6 16.575 24.4833 16.475 24.3L16 23.45ZM24 23.45L23.525 24.3C23.425 24.4833 23.275 24.6 23.075 24.65C22.875 24.7 22.6833 24.675 22.5 24.575C22.3167 24.475 22.2 24.325 22.15 24.125C22.1 23.925 22.125 23.7333 22.225 23.55L22.7 22.7H21.75C21.5333 22.7 21.3542 22.6292 21.2125 22.4875C21.0708 22.3458 21 22.1667 21 21.95C21 21.7333 21.0708 21.5542 21.2125 21.4125C21.3542 21.2708 21.5333 21.2 21.75 21.2H22.7L22.225 20.4C22.125 20.2167 22.1 20.025 22.15 19.825C22.2 19.625 22.3167 19.475 22.5 19.375C22.6833 19.275 22.875 19.25 23.075 19.3C23.275 19.35 23.425 19.4667 23.525 19.65L24 20.45L24.475 19.65C24.575 19.4667 24.725 19.35 24.925 19.3C25.125 19.25 25.3167 19.275 25.5 19.375C25.6833 19.475 25.8 19.625 25.85 19.825C25.9 20.025 25.875 20.2167 25.775 20.4L25.3 21.2H26.25C26.4667 21.2 26.6458 21.2708 26.7875 21.4125C26.9292 21.5542 27 21.7333 27 21.95C27 22.1667 26.9292 22.3458 26.7875 22.4875C26.6458 22.6292 26.4667 22.7 26.25 22.7H25.3L25.775 23.55C25.875 23.7333 25.9 23.925 25.85 24.125C25.8 24.325 25.6833 24.475 25.5 24.575C25.3167 24.675 25.125 24.7 24.925 24.65C24.725 24.6 24.575 24.4833 24.475 24.3L24 23.45ZM32 23.45L31.525 24.3C31.425 24.4833 31.275 24.6 31.075 24.65C30.875 24.7 30.6833 24.675 30.5 24.575C30.3167 24.475 30.2 24.325 30.15 24.125C30.1 23.925 30.125 23.7333 30.225 23.55L30.7 22.7H29.75C29.5333 22.7 29.3542 22.6292 29.2125 22.4875C29.0708 22.3458 29 22.1667 29 21.95C29 21.7333 29.0708 21.5542 29.2125 21.4125C29.3542 21.2708 29.5333 21.2 29.75 21.2H30.7L30.225 20.4C30.125 20.2167 30.1 20.025 30.15 19.825C30.2 19.625 30.3167 19.475 30.5 19.375C30.6833 19.275 30.875 19.25 31.075 19.3C31.275 19.35 31.425 19.4667 31.525 19.65L32 20.45L32.475 19.65C32.575 19.4667 32.725 19.35 32.925 19.3C33.125 19.25 33.3167 19.275 33.5 19.375C33.6833 19.475 33.8 19.625 33.85 19.825C33.9 20.025 33.875 20.2167 33.775 20.4L33.3 21.2H34.25C34.4667 21.2 34.6458 21.2708 34.7875 21.4125C34.9292 21.5542 35 21.7333 35 21.95C35 22.1667 34.9292 22.3458 34.7875 22.4875C34.6458 22.6292 34.4667 22.7 34.25 22.7H33.3L33.775 23.55C33.875 23.7333 33.9 23.925 33.85 24.125C33.8 24.325 33.6833 24.475 33.5 24.575C33.3167 24.675 33.125 24.7 32.925 24.65C32.725 24.6 32.575 24.4833 32.475 24.3L32 23.45Z" fill="white"/>
</g>
</svg>
