<svg width="48" height="48" viewBox="0 0 48 48" fill="none" xmlns="http://www.w3.org/2000/svg">
<rect width="48" height="48" rx="13" fill="#0052CC"/>
<mask id="mask0_1311_4593" style="mask-type:alpha" maskUnits="userSpaceOnUse" x="12" y="12" width="24" height="24">
<rect x="12" y="12" width="24" height="24" fill="#D9D9D9"/>
</mask>
<g mask="url(#mask0_1311_4593)">
<path d="M24 23C25.1 23 26.0417 22.6083 26.825 21.825C27.6083 21.0417 28 20.1 28 19V16H20V19C20 20.1 20.3917 21.0417 21.175 21.825C21.9583 22.6083 22.9 23 24 23ZM17 34C16.7167 34 16.4792 33.9042 16.2875 33.7125C16.0958 33.5208 16 33.2833 16 33C16 32.7167 16.0958 32.4792 16.2875 32.2875C16.4792 32.0958 16.7167 32 17 32H18V29C18 27.9833 18.2375 27.0292 18.7125 26.1375C19.1875 25.2458 19.85 24.5333 20.7 24C19.85 23.4667 19.1875 22.7542 18.7125 21.8625C18.2375 20.9708 18 20.0167 18 19V16H17C16.7167 16 16.4792 15.9042 16.2875 15.7125C16.0958 15.5208 16 15.2833 16 15C16 14.7167 16.0958 14.4792 16.2875 14.2875C16.4792 14.0958 16.7167 14 17 14H31C31.2833 14 31.5208 14.0958 31.7125 14.2875C31.9042 14.4792 32 14.7167 32 15C32 15.2833 31.9042 15.5208 31.7125 15.7125C31.5208 15.9042 31.2833 16 31 16H30V19C30 20.0167 29.7625 20.9708 29.2875 21.8625C28.8125 22.7542 28.15 23.4667 27.3 24C28.15 24.5333 28.8125 25.2458 29.2875 26.1375C29.7625 27.0292 30 27.9833 30 29V32H31C31.2833 32 31.5208 32.0958 31.7125 32.2875C31.9042 32.4792 32 32.7167 32 33C32 33.2833 31.9042 33.5208 31.7125 33.7125C31.5208 33.9042 31.2833 34 31 34H17Z" fill="white"/>
</g>
</svg>
