<svg width="48" height="48" viewBox="0 0 48 48" fill="none" xmlns="http://www.w3.org/2000/svg">
<rect width="48" height="48" rx="13" fill="#0052CC"/>
<mask id="mask0_1311_2980" style="mask-type:alpha" maskUnits="userSpaceOnUse" x="12" y="12" width="24" height="24">
<rect x="12" y="12" width="24" height="24" fill="#D9D9D9"/>
</mask>
<g mask="url(#mask0_1311_2980)">
<path d="M22.9502 24.7L21.5002 23.275C21.3169 23.0917 21.0877 23 20.8127 23C20.5377 23 20.3002 23.1 20.1002 23.3C19.9169 23.4833 19.8252 23.7167 19.8252 24C19.8252 24.2833 19.9169 24.5167 20.1002 24.7L22.2502 26.85C22.4502 27.05 22.6835 27.15 22.9502 27.15C23.2169 27.15 23.4502 27.05 23.6502 26.85L27.9002 22.6C28.1002 22.4 28.196 22.1667 28.1877 21.9C28.1794 21.6333 28.0835 21.4 27.9002 21.2C27.7002 21 27.4627 20.8958 27.1877 20.8875C26.9127 20.8792 26.6752 20.975 26.4752 21.175L22.9502 24.7ZM20.1502 33.75L18.7002 31.3L15.9502 30.7C15.7002 30.65 15.5002 30.5208 15.3502 30.3125C15.2002 30.1042 15.1419 29.875 15.1752 29.625L15.4502 26.8L13.5752 24.65C13.4085 24.4667 13.3252 24.25 13.3252 24C13.3252 23.75 13.4085 23.5333 13.5752 23.35L15.4502 21.2L15.1752 18.375C15.1419 18.125 15.2002 17.8958 15.3502 17.6875C15.5002 17.4792 15.7002 17.35 15.9502 17.3L18.7002 16.7L20.1502 14.25C20.2835 14.0333 20.4669 13.8875 20.7002 13.8125C20.9335 13.7375 21.1669 13.75 21.4002 13.85L24.0002 14.95L26.6002 13.85C26.8335 13.75 27.0669 13.7375 27.3002 13.8125C27.5335 13.8875 27.7169 14.0333 27.8502 14.25L29.3002 16.7L32.0502 17.3C32.3002 17.35 32.5002 17.4792 32.6502 17.6875C32.8002 17.8958 32.8585 18.125 32.8252 18.375L32.5502 21.2L34.4252 23.35C34.5919 23.5333 34.6752 23.75 34.6752 24C34.6752 24.25 34.5919 24.4667 34.4252 24.65L32.5502 26.8L32.8252 29.625C32.8585 29.875 32.8002 30.1042 32.6502 30.3125C32.5002 30.5208 32.3002 30.65 32.0502 30.7L29.3002 31.3L27.8502 33.75C27.7169 33.9667 27.5335 34.1125 27.3002 34.1875C27.0669 34.2625 26.8335 34.25 26.6002 34.15L24.0002 33.05L21.4002 34.15C21.1669 34.25 20.9335 34.2625 20.7002 34.1875C20.4669 34.1125 20.2835 33.9667 20.1502 33.75Z" fill="white"/>
</g>
</svg>
