<svg width="48" height="49" viewBox="0 0 48 49" fill="none" xmlns="http://www.w3.org/2000/svg">
<rect y="0.378418" width="48" height="48" rx="13" fill="#0052CC"/>
<mask id="mask0_896_1983" style="mask-type:alpha" maskUnits="userSpaceOnUse" x="12" y="11" width="25" height="25">
<rect x="12.4659" y="11.9987" width="24" height="24" fill="#D9D9D9"/>
</mask>
<g mask="url(#mask0_896_1983)">
<path d="M22.4659 27.9987V31.9987H26.4659V27.9987H22.4659ZM20.4659 25.9987V21.9987H16.4659V25.9987H20.4659ZM22.4659 25.9987H26.4659V21.9987H22.4659V25.9987ZM28.4659 25.9987H32.4659V21.9987H28.4659V25.9987ZM28.4659 19.9987H32.4659V15.9987H28.4659V19.9987ZM20.4659 27.9987H16.4659C15.9159 27.9987 15.4451 27.8029 15.0534 27.4112C14.6618 27.0196 14.4659 26.5487 14.4659 25.9987V21.9987C14.4659 21.4487 14.6618 20.9779 15.0534 20.5862C15.4451 20.1946 15.9159 19.9987 16.4659 19.9987H26.4659V15.9987C26.4659 15.4487 26.6618 14.9779 27.0534 14.5862C27.4451 14.1946 27.9159 13.9987 28.4659 13.9987H32.4659C33.0159 13.9987 33.4868 14.1946 33.8784 14.5862C34.2701 14.9779 34.4659 15.4487 34.4659 15.9987V25.9987C34.4659 26.5487 34.2701 27.0196 33.8784 27.4112C33.4868 27.8029 33.0159 27.9987 32.4659 27.9987H28.4659V31.9987C28.4659 32.5487 28.2701 33.0196 27.8784 33.4112C27.4868 33.8029 27.0159 33.9987 26.4659 33.9987H22.4659C21.9159 33.9987 21.4451 33.8029 21.0534 33.4112C20.6618 33.0196 20.4659 32.5487 20.4659 31.9987V27.9987Z" fill="white"/>
</g>
</svg>


