<svg width="48" height="49" viewBox="0 0 48 49" fill="none" xmlns="http://www.w3.org/2000/svg">
<rect y="0.378418" width="48" height="48" rx="13" fill="#0052CC"/>
<mask id="mask0_896_2581" style="mask-type:alpha" maskUnits="userSpaceOnUse" x="11" y="12" width="25" height="25">
<rect x="11.6982" y="12.2449" width="24" height="24" fill="#D9D9D9"/>
</mask>
<g mask="url(#mask0_896_2581)">
<path d="M23.6982 20.2449C22.5982 20.2449 21.6566 20.6365 20.8732 21.4199C20.0899 22.2032 19.6982 23.1449 19.6982 24.2449C19.6982 24.9949 19.8857 25.6865 20.2607 26.3199C20.6357 26.9532 21.1566 27.4449 21.8232 27.7949C22.0899 27.9282 22.2774 28.124 22.3857 28.3824C22.4941 28.6407 22.4899 28.9032 22.3732 29.1699C22.2566 29.4032 22.0816 29.5782 21.8482 29.6949C21.6149 29.8115 21.3816 29.8115 21.1482 29.6949C20.0982 29.1949 19.2607 28.4532 18.6357 27.4699C18.0107 26.4865 17.6982 25.4115 17.6982 24.2449C17.6982 22.5782 18.2816 21.1615 19.4482 19.9949C20.6149 18.8282 22.0316 18.2449 23.6982 18.2449C24.8816 18.2449 25.9691 18.5574 26.9607 19.1824C27.9524 19.8074 28.6899 20.6615 29.1732 21.7449C29.2732 21.9782 29.2691 22.2115 29.1607 22.4449C29.0524 22.6782 28.8816 22.8449 28.6482 22.9449C28.3816 23.0615 28.1149 23.0615 27.8482 22.9449C27.5816 22.8282 27.3816 22.6365 27.2482 22.3699C26.8982 21.7032 26.4066 21.1824 25.7732 20.8074C25.1399 20.4324 24.4482 20.2449 23.6982 20.2449ZM23.6982 16.2449C21.4649 16.2449 19.5732 17.0199 18.0232 18.5699C16.4732 20.1199 15.6982 22.0115 15.6982 24.2449C15.6982 26.3449 16.3899 28.1449 17.7732 29.6449C19.1566 31.1449 20.8899 31.9949 22.9732 32.1949C23.2566 32.2282 23.5024 32.3532 23.7107 32.5699C23.9191 32.7865 24.0149 33.0365 23.9982 33.3199C23.9816 33.6032 23.8774 33.8365 23.6857 34.0199C23.4941 34.2032 23.2566 34.2865 22.9732 34.2699C21.6732 34.1865 20.4607 33.8615 19.3357 33.2949C18.2107 32.7282 17.2274 31.9907 16.3857 31.0824C15.5441 30.174 14.8857 29.1324 14.4107 27.9574C13.9357 26.7824 13.6982 25.5449 13.6982 24.2449C13.6982 22.8615 13.9607 21.5615 14.4857 20.3449C15.0107 19.1282 15.7232 18.0699 16.6232 17.1699C17.5232 16.2699 18.5816 15.5574 19.7982 15.0324C21.0149 14.5074 22.3149 14.2449 23.6982 14.2449C26.3149 14.2449 28.5941 15.1365 30.5357 16.9199C32.4774 18.7032 33.5399 20.9032 33.7232 23.5199C33.7566 23.7865 33.6774 24.0157 33.4857 24.2074C33.2941 24.399 33.0566 24.5032 32.7732 24.5199C32.4899 24.5365 32.2357 24.4449 32.0107 24.2449C31.7857 24.0449 31.6566 23.8032 31.6232 23.5199C31.3732 21.5199 30.5024 19.8074 29.0107 18.3824C27.5191 16.9574 25.7482 16.2449 23.6982 16.2449ZM31.2482 33.7449L27.9482 30.4699L27.1982 32.7449C27.1149 32.9782 26.9566 33.0907 26.7232 33.0824C26.4899 33.074 26.3316 32.9532 26.2482 32.7199L23.9732 25.1449C23.9066 24.9615 23.9482 24.7949 24.0982 24.6449C24.2482 24.4949 24.4149 24.4532 24.5982 24.5199L32.1732 26.7949C32.4066 26.8782 32.5274 27.0365 32.5357 27.2699C32.5441 27.5032 32.4316 27.6615 32.1982 27.7449L29.9232 28.4949L33.2232 31.7949C33.5066 32.0782 33.6482 32.4032 33.6482 32.7699C33.6482 33.1365 33.5066 33.4615 33.2232 33.7449C32.9399 34.0282 32.6107 34.1699 32.2357 34.1699C31.8607 34.1699 31.5316 34.0282 31.2482 33.7449Z" fill="white"/>
</g>
</svg>



