<svg width="48" height="49" viewBox="0 0 48 49" fill="none" xmlns="http://www.w3.org/2000/svg">
<rect y="0.378418" width="48" height="48" rx="13" fill="#0052CC"/>
<mask id="mask0_1437_4665" style="mask-type:alpha" maskUnits="userSpaceOnUse" x="12" y="12" width="24" height="25">
<rect x="12" y="12.3784" width="24" height="24" fill="#D9D9D9"/>
</mask>
<g mask="url(#mask0_1437_4665)">
<path d="M24 33.3784C23.7167 33.3784 23.4792 33.2826 23.2875 33.0909C23.0958 32.8993 23 32.6618 23 32.3784C23 32.0951 23.0958 31.8576 23.2875 31.6659C23.4792 31.4743 23.7167 31.3784 24 31.3784H31V24.2784C31 22.3284 30.3208 20.6743 28.9625 19.3159C27.6042 17.9576 25.95 17.2784 24 17.2784C22.05 17.2784 20.3958 17.9576 19.0375 19.3159C17.6792 20.6743 17 22.3284 17 24.2784V29.3784C17 29.6618 16.9042 29.8993 16.7125 30.0909C16.5208 30.2826 16.2833 30.3784 16 30.3784C15.45 30.3784 14.9792 30.1826 14.5875 29.7909C14.1958 29.3993 14 28.9284 14 28.3784V26.3784C14 26.0284 14.0875 25.6993 14.2625 25.3909C14.4375 25.0826 14.6833 24.8368 15 24.6534L15.075 23.3284C15.2083 22.1951 15.5375 21.1451 16.0625 20.1784C16.5875 19.2118 17.2458 18.3701 18.0375 17.6534C18.8292 16.9368 19.7375 16.3784 20.7625 15.9784C21.7875 15.5784 22.8667 15.3784 24 15.3784C25.1333 15.3784 26.2083 15.5784 27.225 15.9784C28.2417 16.3784 29.15 16.9326 29.95 17.6409C30.75 18.3493 31.4083 19.1868 31.925 20.1534C32.4417 21.1201 32.775 22.1701 32.925 23.3034L33 24.6034C33.3167 24.7534 33.5625 24.9784 33.7375 25.2784C33.9125 25.5784 34 25.8951 34 26.2284V28.5284C34 28.8618 33.9125 29.1784 33.7375 29.4784C33.5625 29.7784 33.3167 30.0034 33 30.1534V31.3784C33 31.9284 32.8042 32.3993 32.4125 32.7909C32.0208 33.1826 31.55 33.3784 31 33.3784H24ZM21 26.3784C20.7167 26.3784 20.4792 26.2826 20.2875 26.0909C20.0958 25.8993 20 25.6618 20 25.3784C20 25.0951 20.0958 24.8576 20.2875 24.6659C20.4792 24.4743 20.7167 24.3784 21 24.3784C21.2833 24.3784 21.5208 24.4743 21.7125 24.6659C21.9042 24.8576 22 25.0951 22 25.3784C22 25.6618 21.9042 25.8993 21.7125 26.0909C21.5208 26.2826 21.2833 26.3784 21 26.3784ZM27 26.3784C26.7167 26.3784 26.4792 26.2826 26.2875 26.0909C26.0958 25.8993 26 25.6618 26 25.3784C26 25.0951 26.0958 24.8576 26.2875 24.6659C26.4792 24.4743 26.7167 24.3784 27 24.3784C27.2833 24.3784 27.5208 24.4743 27.7125 24.6659C27.9042 24.8576 28 25.0951 28 25.3784C28 25.6618 27.9042 25.8993 27.7125 26.0909C27.5208 26.2826 27.2833 26.3784 27 26.3784ZM18.025 24.8284C17.9083 23.0618 18.4417 21.5451 19.625 20.2784C20.8083 19.0118 22.2833 18.3784 24.05 18.3784C25.5333 18.3784 26.8375 18.8493 27.9625 19.7909C29.0875 20.7326 29.7667 21.9368 30 23.4034C28.4833 23.3868 27.0875 22.9784 25.8125 22.1784C24.5375 21.3784 23.5583 20.2951 22.875 18.9284C22.6083 20.2618 22.0458 21.4493 21.1875 22.4909C20.3292 23.5326 19.275 24.3118 18.025 24.8284Z" fill="white"/>
</g>
</svg>
