<svg width="48" height="49" viewBox="0 0 48 49" fill="none" xmlns="http://www.w3.org/2000/svg">
<rect y="0.378418" width="48" height="48" rx="13" fill="#0052CC"/>
<mask id="mask0_1437_4347" style="mask-type:alpha" maskUnits="userSpaceOnUse" x="12" y="12" width="24" height="25">
<rect x="12" y="12.3784" width="24" height="24" fill="#D9D9D9"/>
</mask>
<g mask="url(#mask0_1437_4347)">
<path d="M18.65 20.5284C18.75 20.6284 18.8667 20.6784 19 20.6784C19.1333 20.6784 19.25 20.6284 19.35 20.5284L20.65 19.2284C20.75 19.1284 20.8 19.0118 20.8 18.8784C20.8 18.7451 20.75 18.6284 20.65 18.5284L19.35 17.2284C19.25 17.1284 19.1333 17.0784 19 17.0784C18.8667 17.0784 18.75 17.1284 18.65 17.2284L17.35 18.5284C17.25 18.6284 17.2 18.7451 17.2 18.8784C17.2 19.0118 17.25 19.1284 17.35 19.2284L18.65 20.5284ZM16 26.3784C15.45 26.3784 14.9792 26.1826 14.5875 25.7909C14.1958 25.3993 14 24.9284 14 24.3784V15.3784C14 14.8284 14.1958 14.3576 14.5875 13.9659C14.9792 13.5743 15.45 13.3784 16 13.3784H32C32.55 13.3784 33.0208 13.5743 33.4125 13.9659C33.8042 14.3576 34 14.8284 34 15.3784V24.3784C34 24.9284 33.8042 25.3993 33.4125 25.7909C33.0208 26.1826 32.55 26.3784 32 26.3784H29.975C29.6917 26.3784 29.4583 26.2826 29.275 26.0909C29.0917 25.8993 29 25.6618 29 25.3784C29 25.0951 29.0958 24.8576 29.2875 24.6659C29.4792 24.4743 29.7167 24.3784 30 24.3784H32V15.3784H16V24.3784H18C18.2833 24.3784 18.5208 24.4743 18.7125 24.6659C18.9042 24.8576 19 25.0951 19 25.3784C19 25.6618 18.9042 25.8993 18.7125 26.0909C18.5208 26.2826 18.2833 26.3784 18 26.3784H16ZM28.5 19.3784C28.9167 19.3784 29.2708 19.2326 29.5625 18.9409C29.8542 18.6493 30 18.2951 30 17.8784C30 17.4618 29.8542 17.1076 29.5625 16.8159C29.2708 16.5243 28.9167 16.3784 28.5 16.3784C28.0833 16.3784 27.7292 16.5243 27.4375 16.8159C27.1458 17.1076 27 17.4618 27 17.8784C27 18.2951 27.1458 18.6493 27.4375 18.9409C27.7292 19.2326 28.0833 19.3784 28.5 19.3784ZM18 35.3784C17.7167 35.3784 17.4792 35.2826 17.2875 35.0909C17.0958 34.8993 17 34.6618 17 34.3784V33.2784C17 32.6951 17.1625 32.1534 17.4875 31.6534C17.8125 31.1534 18.2417 30.7784 18.775 30.5284C19.5917 30.1451 20.4417 29.8576 21.325 29.6659C22.2083 29.4743 23.1 29.3784 24 29.3784C24.9 29.3784 25.7917 29.4743 26.675 29.6659C27.5583 29.8576 28.4083 30.1451 29.225 30.5284C29.7583 30.7784 30.1875 31.1534 30.5125 31.6534C30.8375 32.1534 31 32.6951 31 33.2784V34.3784C31 34.6618 30.9042 34.8993 30.7125 35.0909C30.5208 35.2826 30.2833 35.3784 30 35.3784H18ZM19 33.3784H29V33.2784C29 33.0784 28.9417 32.8951 28.825 32.7284C28.7083 32.5618 28.5583 32.4368 28.375 32.3534C27.675 32.0368 26.9583 31.7951 26.225 31.6284C25.4917 31.4618 24.75 31.3784 24 31.3784C23.25 31.3784 22.5083 31.4618 21.775 31.6284C21.0417 31.7951 20.325 32.0368 19.625 32.3534C19.4417 32.4368 19.2917 32.5618 19.175 32.7284C19.0583 32.8951 19 33.0784 19 33.2784V33.3784ZM24 28.3784C23.0333 28.3784 22.2083 28.0368 21.525 27.3534C20.8417 26.6701 20.5 25.8451 20.5 24.8784C20.5 23.9118 20.8417 23.0868 21.525 22.4034C22.2083 21.7201 23.0333 21.3784 24 21.3784C24.9667 21.3784 25.7917 21.7201 26.475 22.4034C27.1583 23.0868 27.5 23.9118 27.5 24.8784C27.5 25.8451 27.1583 26.6701 26.475 27.3534C25.7917 28.0368 24.9667 28.3784 24 28.3784ZM24 26.3784C24.4167 26.3784 24.7708 26.2326 25.0625 25.9409C25.3542 25.6493 25.5 25.2951 25.5 24.8784C25.5 24.4618 25.3542 24.1076 25.0625 23.8159C24.7708 23.5243 24.4167 23.3784 24 23.3784C23.5833 23.3784 23.2292 23.5243 22.9375 23.8159C22.6458 24.1076 22.5 24.4618 22.5 24.8784C22.5 25.2951 22.6458 25.6493 22.9375 25.9409C23.2292 26.2326 23.5833 26.3784 24 26.3784Z" fill="white"/>
</g>
</svg>
