<svg width="48" height="49" viewBox="0 0 48 49" fill="none" xmlns="http://www.w3.org/2000/svg">
<rect y="0.378418" width="48" height="48" rx="13" fill="#0052CC"/>
<mask id="mask0_896_3472" style="mask-type:alpha" maskUnits="userSpaceOnUse" x="12" y="12" width="25" height="25">
<rect x="12.4813" y="12.3923" width="24" height="24" fill="#D9D9D9"/>
</mask>
<g mask="url(#mask0_896_3472)">
<path d="M24.3563 32.3923C24.423 32.3923 24.4896 32.3757 24.5563 32.3423C24.623 32.309 24.673 32.2757 24.7063 32.2423L32.9063 24.0423C33.1063 23.8423 33.2521 23.6173 33.3438 23.3673C33.4355 23.1173 33.4813 22.8673 33.4813 22.6173C33.4813 22.3507 33.4355 22.0965 33.3438 21.8548C33.2521 21.6132 33.1063 21.4007 32.9063 21.2173L28.6563 16.9673C28.473 16.7673 28.2605 16.6215 28.0188 16.5298C27.7771 16.4382 27.523 16.3923 27.2563 16.3923C27.0063 16.3923 26.7563 16.4382 26.5063 16.5298C26.2563 16.6215 26.0313 16.7673 25.8313 16.9673L25.5563 17.2423L27.4063 19.1173C27.6563 19.3507 27.8396 19.6173 27.9563 19.9173C28.073 20.2173 28.1313 20.534 28.1313 20.8673C28.1313 21.5673 27.8938 22.1548 27.4188 22.6298C26.9438 23.1048 26.3563 23.3423 25.6563 23.3423C25.323 23.3423 25.0021 23.284 24.6938 23.1673C24.3855 23.0507 24.1146 22.8757 23.8813 22.6423L22.0063 20.7923L17.6313 25.1673C17.5813 25.2173 17.5438 25.2715 17.5188 25.3298C17.4938 25.3882 17.4813 25.4507 17.4813 25.5173C17.4813 25.6507 17.5313 25.7715 17.6313 25.8798C17.7313 25.9882 17.848 26.0423 17.9813 26.0423C18.048 26.0423 18.1146 26.0257 18.1813 25.9923C18.248 25.959 18.298 25.9257 18.3313 25.8923L21.0313 23.1923C21.2146 23.009 21.4438 22.9132 21.7188 22.9048C21.9938 22.8965 22.2313 22.9923 22.4313 23.1923C22.6146 23.3757 22.7063 23.609 22.7063 23.8923C22.7063 24.1757 22.6146 24.409 22.4313 24.5923L19.7563 27.2923C19.7063 27.3423 19.6688 27.3965 19.6438 27.4548C19.6188 27.5132 19.6063 27.5757 19.6063 27.6423C19.6063 27.7757 19.6563 27.8923 19.7563 27.9923C19.8563 28.0923 19.973 28.1423 20.1063 28.1423C20.173 28.1423 20.2396 28.1257 20.3063 28.0923C20.373 28.059 20.423 28.0257 20.4563 27.9923L23.1563 25.3173C23.3396 25.134 23.5688 25.0382 23.8438 25.0298C24.1188 25.0215 24.3563 25.1173 24.5563 25.3173C24.7396 25.5007 24.8313 25.734 24.8313 26.0173C24.8313 26.3007 24.7396 26.534 24.5563 26.7173L21.8813 29.4173C21.8313 29.4507 21.7938 29.5007 21.7688 29.5673C21.7438 29.634 21.7313 29.7007 21.7313 29.7673C21.7313 29.9007 21.7813 30.0173 21.8813 30.1173C21.9813 30.2173 22.098 30.2673 22.2313 30.2673C22.298 30.2673 22.3605 30.2548 22.4188 30.2298C22.4771 30.2048 22.5313 30.1673 22.5813 30.1173L25.2813 27.4423C25.4646 27.259 25.6938 27.1632 25.9688 27.1548C26.2438 27.1465 26.4813 27.2423 26.6813 27.4423C26.8646 27.6257 26.9563 27.859 26.9563 28.1423C26.9563 28.4257 26.8646 28.659 26.6813 28.8423L23.9813 31.5423C23.9313 31.5923 23.8938 31.6465 23.8688 31.7048C23.8438 31.7632 23.8313 31.8257 23.8313 31.8923C23.8313 32.0257 23.8855 32.1423 23.9938 32.2423C24.1021 32.3423 24.223 32.3923 24.3563 32.3923ZM24.3313 34.3923C23.7146 34.3923 23.1688 34.1882 22.6938 33.7798C22.2188 33.3715 21.9396 32.859 21.8563 32.2423C21.2896 32.159 20.8146 31.9257 20.4313 31.5423C20.048 31.159 19.8146 30.684 19.7313 30.1173C19.1646 30.034 18.6938 29.7965 18.3188 29.4048C17.9438 29.0132 17.7146 28.5423 17.6313 27.9923C16.998 27.909 16.4813 27.634 16.0813 27.1673C15.6813 26.7007 15.4813 26.1507 15.4813 25.5173C15.4813 25.184 15.5438 24.8632 15.6688 24.5548C15.7938 24.2465 15.973 23.9757 16.2063 23.7423L20.5813 19.3673C20.9646 18.984 21.4355 18.7923 21.9938 18.7923C22.5521 18.7923 23.023 18.984 23.4063 19.3673L25.2813 21.2423C25.3146 21.2923 25.3646 21.3298 25.4313 21.3548C25.498 21.3798 25.5646 21.3923 25.6313 21.3923C25.7813 21.3923 25.9063 21.3465 26.0063 21.2548C26.1063 21.1632 26.1563 21.0423 26.1563 20.8923C26.1563 20.8257 26.1438 20.759 26.1188 20.6923C26.0938 20.6257 26.0563 20.5757 26.0063 20.5423L22.4313 16.9673C22.248 16.7673 22.0355 16.6215 21.7938 16.5298C21.5521 16.4382 21.298 16.3923 21.0313 16.3923C20.7813 16.3923 20.5313 16.4382 20.2813 16.5298C20.0313 16.6215 19.8063 16.7673 19.6063 16.9673L16.0813 20.5173C15.848 20.7507 15.6813 21.0257 15.5813 21.3423C15.4813 21.659 15.4563 21.9757 15.5063 22.2923C15.5563 22.5757 15.498 22.8257 15.3313 23.0423C15.1646 23.259 14.9396 23.384 14.6563 23.4173C14.373 23.4507 14.123 23.3882 13.9063 23.2298C13.6896 23.0715 13.5646 22.8507 13.5313 22.5673C13.4313 21.934 13.4771 21.3132 13.6688 20.7048C13.8605 20.0965 14.1896 19.559 14.6563 19.0923L18.1813 15.5673C18.5813 15.184 19.0271 14.8923 19.5188 14.6923C20.0105 14.4923 20.5146 14.3923 21.0313 14.3923C21.548 14.3923 22.0521 14.4923 22.5438 14.6923C23.0355 14.8923 23.473 15.184 23.8563 15.5673L24.1313 15.8423L24.4063 15.5673C24.8063 15.184 25.2521 14.8923 25.7438 14.6923C26.2355 14.4923 26.7396 14.3923 27.2563 14.3923C27.773 14.3923 28.2771 14.4923 28.7688 14.6923C29.2605 14.8923 29.698 15.184 30.0813 15.5673L34.3063 19.7923C34.6896 20.1757 34.9813 20.6173 35.1813 21.1173C35.3813 21.6173 35.4813 22.1257 35.4813 22.6423C35.4813 23.159 35.3813 23.6632 35.1813 24.1548C34.9813 24.6465 34.6896 25.084 34.3063 25.4673L26.1063 33.6423C25.873 33.8757 25.6021 34.059 25.2938 34.1923C24.9855 34.3257 24.6646 34.3923 24.3313 34.3923Z" fill="white"/>
</g>
</svg>
