<svg width="25" height="25" viewBox="0 0 25 25" fill="none" xmlns="http://www.w3.org/2000/svg">
<path d="M21.75 6C21.5511 6 21.3603 5.92098 21.2197 5.78033C21.079 5.63968 21 5.44891 21 5.25C21 5.05109 21.079 4.86032 21.2197 4.71967C21.3603 4.57902 21.5511 4.5 21.75 4.5C21.9489 4.5 22.1397 4.57902 22.2803 4.71967C22.421 4.86032 22.5 5.05109 22.5 5.25C22.5 5.44891 22.421 5.63968 22.2803 5.78033C22.1397 5.92098 21.9489 6 21.75 6ZM21.75 6V9.75C21.75 10.448 21.75 10.797 21.664 11.08C21.5687 11.3948 21.3971 11.6813 21.1646 11.914C20.9321 12.1467 20.6458 12.3184 20.331 12.414C20.047 12.5 19.698 12.5 19 12.5M3.25 19C3.44891 19 3.63968 19.079 3.78033 19.2197C3.92098 19.3603 4 19.5511 4 19.75C4 19.9489 3.92098 20.1397 3.78033 20.2803C3.63968 20.421 3.44891 20.5 3.25 20.5C3.05109 20.5 2.86032 20.421 2.71967 20.2803C2.57902 20.1397 2.5 19.9489 2.5 19.75C2.5 19.5511 2.57902 19.3603 2.71967 19.2197C2.86032 19.079 3.05109 19 3.25 19ZM3.25 19V15.25C3.25 14.552 3.25 14.203 3.336 13.92C3.43135 13.6052 3.60288 13.3187 3.8354 13.086C4.06792 12.8533 4.35424 12.6816 4.669 12.586C4.953 12.5 5.302 12.5 6 12.5M6 3.25C6 3.44891 5.92098 3.63968 5.78033 3.78033C5.63968 3.92098 5.44891 4 5.25 4C5.05109 4 4.86032 3.92098 4.71967 3.78033C4.57902 3.63968 4.5 3.44891 4.5 3.25C4.5 3.05109 4.57902 2.86032 4.71967 2.71967C4.86032 2.57902 5.05109 2.5 5.25 2.5C5.44891 2.5 5.63968 2.57902 5.78033 2.71967C5.92098 2.86032 6 3.05109 6 3.25ZM6 3.25H9.75C10.448 3.25 10.797 3.25 11.08 3.336C11.3948 3.43135 11.6813 3.60288 11.914 3.8354C12.1467 4.06792 12.3184 4.35424 12.414 4.669C12.5 4.953 12.5 5.302 12.5 6M19 21.75C19 21.5511 19.079 21.3603 19.2197 21.2197C19.3603 21.079 19.5511 21 19.75 21C19.9489 21 20.1397 21.079 20.2803 21.2197C20.421 21.3603 20.5 21.5511 20.5 21.75C20.5 21.9489 20.421 22.1397 20.2803 22.2803C20.1397 22.421 19.9489 22.5 19.75 22.5C19.5511 22.5 19.3603 22.421 19.2197 22.2803C19.079 22.1397 19 21.9489 19 21.75ZM19 21.75H15.25C14.552 21.75 14.203 21.75 13.92 21.664C13.6052 21.5687 13.3187 21.3971 13.086 21.1646C12.8533 20.9321 12.6816 20.6458 12.586 20.331C12.5 20.047 12.5 19.698 12.5 19" stroke="black" stroke-width="1.5" stroke-linecap="round" stroke-linejoin="round"/>
<path d="M6.04907 12.451C6.04907 9.38705 6.04907 7.85505 7.00107 6.90305C7.95307 5.95105 9.48507 5.95105 12.5491 5.95105C15.6131 5.95105 17.1451 5.95105 18.0971 6.90305C19.0491 7.85505 19.0491 9.38705 19.0491 12.451C19.0491 15.515 19.0491 17.0471 18.0971 17.9991C17.1451 18.9511 15.6131 18.951 12.5491 18.951C9.48507 18.951 7.95307 18.9511 7.00107 17.9991C6.04907 17.0471 6.04907 15.515 6.04907 12.451Z" stroke="black" stroke-width="1.5" stroke-linecap="round" stroke-linejoin="round"/>
<path d="M12.9989 15L11.5389 10.479C11.4883 10.3364 11.3939 10.2133 11.2694 10.1273C11.1448 10.0413 10.9962 9.99679 10.8449 10C10.6937 9.997 10.5454 10.0416 10.421 10.1276C10.2966 10.2136 10.2025 10.3365 10.1519 10.479L8.69189 15M15.4989 10V15M9.22889 13.5H12.4609" stroke="black" stroke-width="1.5" stroke-linecap="round" stroke-linejoin="round"/>
</svg>
