<svg width="48" height="49" viewBox="0 0 48 49" fill="none" xmlns="http://www.w3.org/2000/svg">
<rect y="0.378418" width="48" height="48" rx="13" fill="#1A73E8"/>
<path d="M32.4566 13.3784H10.0612C9.16719 13.3784 8.65907 14.154 9.2627 14.9754L12.1892 20.0527V29.1224C12.1892 31.4453 13.8816 33.3784 16.1815 33.3784H32.4337C34.7297 33.3784 36.6896 31.4185 36.6896 29.1224V17.6573C36.7126 15.3345 34.7527 13.3784 32.4566 13.3784Z" fill="white"/>
<path d="M32.1892 19.7853H16.7355C16.0593 19.7853 15.406 19.3727 15.406 18.7194C15.406 18.0661 16.0593 17.6535 16.7355 17.6535H32.1892C32.8654 17.6535 33.5187 18.0661 33.5187 18.7194C33.5187 19.3765 32.8692 19.7853 32.1892 19.7853ZM32.1892 24.0413H16.7355C16.0593 24.0413 15.406 23.6287 15.406 22.9754C15.406 22.3221 16.0593 21.9095 16.7355 21.9095H32.1892C32.8654 21.9095 33.5187 22.3221 33.5187 22.9754C33.5187 23.6325 32.8692 24.0413 32.1892 24.0413ZM27.9103 28.324H16.7126C16.0364 28.324 15.3831 27.9114 15.3831 27.2581C15.3831 26.6048 16.0364 26.1922 16.7126 26.1922H27.9103C28.5865 26.1922 29.2398 26.6048 29.2398 27.2581C29.2398 27.9114 28.5865 28.324 27.9103 28.324Z" fill="#8AB4F8"/>
</svg>

