<svg width="48" height="49" viewBox="0 0 48 49" fill="none" xmlns="http://www.w3.org/2000/svg">
<rect y="0.378418" width="48" height="48" rx="13" fill="#0052CC"/>
<mask id="mask0_896_3627" style="mask-type:alpha" maskUnits="userSpaceOnUse" x="12" y="12" width="25" height="25">
<rect x="12.1318" y="12.2909" width="24" height="24" fill="#D9D9D9"/>
</mask>
<g mask="url(#mask0_896_3627)">
<path d="M29.1318 32.2909C28.8485 32.2909 28.611 32.1951 28.4193 32.0034C28.2277 31.8117 28.1318 31.5742 28.1318 31.2909V26.2909C28.1318 26.0076 28.2277 25.7701 28.4193 25.5784C28.611 25.3867 28.8485 25.2909 29.1318 25.2909H31.1318C31.4152 25.2909 31.6527 25.3867 31.8443 25.5784C32.036 25.7701 32.1318 26.0076 32.1318 26.2909V31.2909C32.1318 31.5742 32.036 31.8117 31.8443 32.0034C31.6527 32.1951 31.4152 32.2909 31.1318 32.2909H29.1318ZM23.1318 32.2909C22.8485 32.2909 22.611 32.1951 22.4193 32.0034C22.2277 31.8117 22.1318 31.5742 22.1318 31.2909V17.2909C22.1318 17.0076 22.2277 16.7701 22.4193 16.5784C22.611 16.3867 22.8485 16.2909 23.1318 16.2909H25.1318C25.4152 16.2909 25.6527 16.3867 25.8443 16.5784C26.036 16.7701 26.1318 17.0076 26.1318 17.2909V31.2909C26.1318 31.5742 26.036 31.8117 25.8443 32.0034C25.6527 32.1951 25.4152 32.2909 25.1318 32.2909H23.1318ZM17.1318 32.2909C16.8485 32.2909 16.611 32.1951 16.4193 32.0034C16.2277 31.8117 16.1318 31.5742 16.1318 31.2909V22.2909C16.1318 22.0076 16.2277 21.7701 16.4193 21.5784C16.611 21.3867 16.8485 21.2909 17.1318 21.2909H19.1318C19.4152 21.2909 19.6527 21.3867 19.8443 21.5784C20.036 21.7701 20.1318 22.0076 20.1318 22.2909V31.2909C20.1318 31.5742 20.036 31.8117 19.8443 32.0034C19.6527 32.1951 19.4152 32.2909 19.1318 32.2909H17.1318Z" fill="white"/>
</g>
</svg>

