<svg width="48" height="49" viewBox="0 0 48 49" fill="none" xmlns="http://www.w3.org/2000/svg">
<rect y="0.378418" width="48" height="48" rx="13" fill="#62DDEB"/>
<g clip-path="url(#clip0_955_132)">
<path d="M36.1521 28.6491L28.375 24.3784L36.1521 20.1077C36.7971 19.7535 37.025 18.9383 36.657 18.301L35.5917 16.4558C35.2237 15.8185 34.4038 15.6082 33.7745 15.9897L26.1875 20.5896L26.3775 11.719C26.3933 10.9833 25.8012 10.3784 25.0653 10.3784H22.9347C22.1988 10.3784 21.6067 10.9833 21.6225 11.719L21.8125 20.5896L14.2254 15.9897C13.5962 15.6082 12.7762 15.8186 12.4083 16.4558L11.343 18.3011C10.9751 18.9383 11.2029 19.7536 11.8479 20.1078L19.625 24.3784L11.8479 28.6491C11.2028 29.0033 10.975 29.8186 11.343 30.4558L12.4083 32.3011C12.7762 32.9383 13.5962 33.1487 14.2254 32.7672L21.8125 28.1673L21.6224 37.0378C21.6067 37.7735 22.1988 38.3784 22.9347 38.3784H25.0653C25.8012 38.3784 26.3933 37.7735 26.3776 37.0378L26.1875 28.1673L33.7745 32.7671C34.4038 33.1486 35.2237 32.9383 35.5917 32.301L36.657 30.4558C37.0249 29.8185 36.7971 29.0033 36.1521 28.6491Z" fill="white"/>
</g>
<defs>
<clipPath id="clip0_955_132">
<rect width="28" height="28" fill="white" transform="translate(10 10.3784)"/>
</clipPath>
</defs>
</svg>

