<svg width="48" height="49" viewBox="0 0 48 49" fill="none" xmlns="http://www.w3.org/2000/svg">
<rect y="0.378418" width="48" height="48" rx="13" fill="#25CF43"/>
<path fill-rule="evenodd" clip-rule="evenodd" d="M33.8133 14.4451C31.1933 11.8251 27.7067 10.3784 23.9933 10.3784C16.34 10.3784 10.12 16.6051 10.1133 24.2518C10.1133 26.6984 10.7533 29.0851 11.9667 31.1851L10 38.3784L17.36 36.4518C19.3867 37.5584 21.6667 38.1384 23.9933 38.1384H24C31.6467 38.1384 37.8733 31.9118 37.88 24.2651C37.88 20.5518 36.4333 17.0651 33.8133 14.4451ZM24 35.7918C21.9267 35.7918 19.8933 35.2318 18.1267 34.1851L17.7067 33.9384L13.34 35.0851L14.5067 30.8318L14.2333 30.3984C13.08 28.5651 12.4667 26.4384 12.4667 24.2584C12.4667 17.8984 17.6467 12.7251 24.0067 12.7251C27.0867 12.7251 29.9867 13.9251 32.16 16.1051C34.34 18.2851 35.54 21.1851 35.5333 24.2651C35.5267 30.6184 30.3533 35.7918 24 35.7918ZM30.3267 27.1584C29.98 26.9851 28.2733 26.1451 27.96 26.0318C27.64 25.9184 27.4133 25.8584 27.18 26.2051C26.9467 26.5518 26.2867 27.3318 26.08 27.5651C25.88 27.7984 25.6733 27.8251 25.3267 27.6518C24.98 27.4784 23.86 27.1118 22.54 25.9318C21.5067 25.0118 20.8133 23.8784 20.6133 23.5318C20.4133 23.1851 20.5933 22.9984 20.7667 22.8251C20.92 22.6718 21.1133 22.4184 21.2867 22.2184C21.46 22.0184 21.52 21.8718 21.6333 21.6384C21.7467 21.4051 21.6933 21.2051 21.6067 21.0318C21.52 20.8584 20.8267 19.1518 20.54 18.4584C20.26 17.7851 19.9733 17.8718 19.76 17.8651C19.56 17.8518 19.3267 17.8518 19.0933 17.8518C18.86 17.8518 18.4867 17.9384 18.1667 18.2851C17.8467 18.6318 16.9533 19.4718 16.9533 21.1784C16.9533 22.8851 18.1933 24.5318 18.3667 24.7651C18.54 24.9984 20.8133 28.4984 24.2933 29.9984C25.12 30.3584 25.7667 30.5718 26.2733 30.7318C27.1067 30.9984 27.86 30.9584 28.46 30.8718C29.1267 30.7718 30.5133 30.0318 30.8 29.2251C31.0867 28.4184 31.0867 27.7184 31 27.5784C30.9 27.4184 30.6733 27.3318 30.3267 27.1584Z" fill="white"/>
</svg>
