<svg width="48" height="48" viewBox="0 0 48 48" fill="none" xmlns="http://www.w3.org/2000/svg">
<rect width="48" height="48" rx="13" fill="#0052CC"/>
<mask id="mask0_1909_5420" style="mask-type:alpha" maskUnits="userSpaceOnUse" x="12" y="12" width="24" height="24">
<rect x="12" y="12" width="24" height="24" fill="#D9D9D9"/>
</mask>
<g mask="url(#mask0_1909_5420)">
<path d="M17 20H31V18H17V20ZM17 34C16.45 34 15.9792 33.8042 15.5875 33.4125C15.1958 33.0208 15 32.55 15 32V18C15 17.45 15.1958 16.9792 15.5875 16.5875C15.9792 16.1958 16.45 16 17 16H18V15C18 14.7167 18.0958 14.4792 18.2875 14.2875C18.4792 14.0958 18.7167 14 19 14C19.2833 14 19.5208 14.0958 19.7125 14.2875C19.9042 14.4792 20 14.7167 20 15V16H28V15C28 14.7167 28.0958 14.4792 28.2875 14.2875C28.4792 14.0958 28.7167 14 29 14C29.2833 14 29.5208 14.0958 29.7125 14.2875C29.9042 14.4792 30 14.7167 30 15V16H31C31.55 16 32.0208 16.1958 32.4125 16.5875C32.8042 16.9792 33 17.45 33 18V22.675C33 22.9583 32.9042 23.1958 32.7125 23.3875C32.5208 23.5792 32.2833 23.675 32 23.675C31.7167 23.675 31.4792 23.5792 31.2875 23.3875C31.0958 23.1958 31 22.9583 31 22.675V22H17V32H22.8C23.0833 32 23.3208 32.0958 23.5125 32.2875C23.7042 32.4792 23.8 32.7167 23.8 33C23.8 33.2833 23.7042 33.5208 23.5125 33.7125C23.3208 33.9042 23.0833 34 22.8 34H17ZM30 35C28.6167 35 27.4375 34.5125 26.4625 33.5375C25.4875 32.5625 25 31.3833 25 30C25 28.6167 25.4875 27.4375 26.4625 26.4625C27.4375 25.4875 28.6167 25 30 25C31.3833 25 32.5625 25.4875 33.5375 26.4625C34.5125 27.4375 35 28.6167 35 30C35 31.3833 34.5125 32.5625 33.5375 33.5375C32.5625 34.5125 31.3833 35 30 35ZM30.5 29.8V27.5C30.5 27.3667 30.45 27.25 30.35 27.15C30.25 27.05 30.1333 27 30 27C29.8667 27 29.75 27.05 29.65 27.15C29.55 27.25 29.5 27.3667 29.5 27.5V29.775C29.5 29.9083 29.525 30.0375 29.575 30.1625C29.625 30.2875 29.7 30.4 29.8 30.5L31.325 32.025C31.425 32.125 31.5417 32.175 31.675 32.175C31.8083 32.175 31.925 32.125 32.025 32.025C32.125 31.925 32.175 31.8083 32.175 31.675C32.175 31.5417 32.125 31.425 32.025 31.325L30.5 29.8Z" fill="white"/>
</g>
</svg>
