<svg width="48" height="48" viewBox="0 0 48 48" fill="none" xmlns="http://www.w3.org/2000/svg">
<rect width="48" height="48" rx="13" fill="#0052CC"/>
<mask id="mask0_1915_7" style="mask-type:alpha" maskUnits="userSpaceOnUse" x="12" y="12" width="24" height="24">
<rect x="12" y="12" width="24" height="24" fill="#D9D9D9"/>
</mask>
<g mask="url(#mask0_1915_7)">
<path d="M14 31V17C14 16.45 14.1958 15.9792 14.5875 15.5875C14.9792 15.1958 15.45 15 16 15H22C22.55 15 23.0208 15.1958 23.4125 15.5875C23.8042 15.9792 24 16.45 24 17V19H32C32.55 19 33.0208 19.1958 33.4125 19.5875C33.8042 19.9792 34 20.45 34 21V31C34 31.55 33.8042 32.0208 33.4125 32.4125C33.0208 32.8042 32.55 33 32 33H16C15.45 33 14.9792 32.8042 14.5875 32.4125C14.1958 32.0208 14 31.55 14 31ZM16 31H18V29H16V31ZM16 27H18V25H16V27ZM16 23H18V21H16V23ZM16 19H18V17H16V19ZM20 31H22V29H20V31ZM20 27H22V25H20V27ZM20 23H22V21H20V23ZM20 19H22V17H20V19ZM24 31H32V21H24V23H26V25H24V27H26V29H24V31ZM28 25V23H30V25H28ZM28 29V27H30V29H28Z" fill="white"/>
</g>
</svg>
