<svg width="48" height="48" viewBox="0 0 48 48" fill="none" xmlns="http://www.w3.org/2000/svg">
<rect width="48" height="48" rx="13" fill="#0052CC"/>
<mask id="mask0_896_2787" style="mask-type:alpha" maskUnits="userSpaceOnUse" x="12" y="12" width="24" height="24">
<rect x="12" y="12" width="24" height="24" fill="#D9D9D9"/>
</mask>
<g mask="url(#mask0_896_2787)">
<path d="M19 33H17C16.45 33 15.9792 32.8042 15.5875 32.4125C15.1958 32.0208 15 31.55 15 31V24C15 22.75 15.2375 21.5792 15.7125 20.4875C16.1875 19.3958 16.8292 18.4458 17.6375 17.6375C18.4458 16.8292 19.3958 16.1875 20.4875 15.7125C21.5792 15.2375 22.75 15 24 15C25.25 15 26.4208 15.2375 27.5125 15.7125C28.6042 16.1875 29.5542 16.8292 30.3625 17.6375C31.1708 18.4458 31.8125 19.3958 32.2875 20.4875C32.7625 21.5792 33 22.75 33 24V31C33 31.55 32.8042 32.0208 32.4125 32.4125C32.0208 32.8042 31.55 33 31 33H29C28.45 33 27.9792 32.8042 27.5875 32.4125C27.1958 32.0208 27 31.55 27 31V27C27 26.45 27.1958 25.9792 27.5875 25.5875C27.9792 25.1958 28.45 25 29 25H31V24C31 22.05 30.3208 20.3958 28.9625 19.0375C27.6042 17.6792 25.95 17 24 17C22.05 17 20.3958 17.6792 19.0375 19.0375C17.6792 20.3958 17 22.05 17 24V25H19C19.55 25 20.0208 25.1958 20.4125 25.5875C20.8042 25.9792 21 26.45 21 27V31C21 31.55 20.8042 32.0208 20.4125 32.4125C20.0208 32.8042 19.55 33 19 33ZM19 27H17V31H19V27ZM29 27V31H31V27H29Z" fill="white"/>
</g>
</svg>

