<svg width="48" height="48" viewBox="0 0 48 48" fill="none" xmlns="http://www.w3.org/2000/svg">
<rect width="48" height="48" rx="13" fill="#0052CC"/>
<mask id="mask0_1886_2708" style="mask-type:alpha" maskUnits="userSpaceOnUse" x="12" y="12" width="24" height="24">
<rect x="12" y="12" width="24" height="24" fill="#D9D9D9"/>
</mask>
<g mask="url(#mask0_1886_2708)">
<path d="M16 33C15.45 33 14.9792 32.8042 14.5875 32.4125C14.1958 32.0208 14 31.55 14 31V17C14 16.45 14.1958 15.9792 14.5875 15.5875C14.9792 15.1958 15.45 15 16 15H21C21.55 15 22.0208 15.1958 22.4125 15.5875C22.8042 15.9792 23 16.45 23 17V31C23 31.55 22.8042 32.0208 22.4125 32.4125C22.0208 32.8042 21.55 33 21 33H16ZM27 33C26.45 33 25.9792 32.8042 25.5875 32.4125C25.1958 32.0208 25 31.55 25 31V17C25 16.45 25.1958 15.9792 25.5875 15.5875C25.9792 15.1958 26.45 15 27 15H32C32.55 15 33.0208 15.1958 33.4125 15.5875C33.8042 15.9792 34 16.45 34 17V31C34 31.55 33.8042 32.0208 33.4125 32.4125C33.0208 32.8042 32.55 33 32 33H27ZM16 31H21V17H16V31ZM27 31H32V17H27V31ZM20 26C20 25.7167 19.9042 25.4792 19.7125 25.2875C19.5208 25.0958 19.2833 25 19 25H18C17.7167 25 17.4792 25.0958 17.2875 25.2875C17.0958 25.4792 17 25.7167 17 26C17 26.2833 17.0958 26.5208 17.2875 26.7125C17.4792 26.9042 17.7167 27 18 27H19C19.2833 27 19.5208 26.9042 19.7125 26.7125C19.9042 26.5208 20 26.2833 20 26ZM31 26C31 25.7167 30.9042 25.4792 30.7125 25.2875C30.5208 25.0958 30.2833 25 30 25H29C28.7167 25 28.4792 25.0958 28.2875 25.2875C28.0958 25.4792 28 25.7167 28 26C28 26.2833 28.0958 26.5208 28.2875 26.7125C28.4792 26.9042 28.7167 27 29 27H30C30.2833 27 30.5208 26.9042 30.7125 26.7125C30.9042 26.5208 31 26.2833 31 26ZM20 23C20 22.7167 19.9042 22.4792 19.7125 22.2875C19.5208 22.0958 19.2833 22 19 22H18C17.7167 22 17.4792 22.0958 17.2875 22.2875C17.0958 22.4792 17 22.7167 17 23C17 23.2833 17.0958 23.5208 17.2875 23.7125C17.4792 23.9042 17.7167 24 18 24H19C19.2833 24 19.5208 23.9042 19.7125 23.7125C19.9042 23.5208 20 23.2833 20 23ZM31 23C31 22.7167 30.9042 22.4792 30.7125 22.2875C30.5208 22.0958 30.2833 22 30 22H29C28.7167 22 28.4792 22.0958 28.2875 22.2875C28.0958 22.4792 28 22.7167 28 23C28 23.2833 28.0958 23.5208 28.2875 23.7125C28.4792 23.9042 28.7167 24 29 24H30C30.2833 24 30.5208 23.9042 30.7125 23.7125C30.9042 23.5208 31 23.2833 31 23ZM20 20C20 19.7167 19.9042 19.4792 19.7125 19.2875C19.5208 19.0958 19.2833 19 19 19H18C17.7167 19 17.4792 19.0958 17.2875 19.2875C17.0958 19.4792 17 19.7167 17 20C17 20.2833 17.0958 20.5208 17.2875 20.7125C17.4792 20.9042 17.7167 21 18 21H19C19.2833 21 19.5208 20.9042 19.7125 20.7125C19.9042 20.5208 20 20.2833 20 20ZM31 20C31 19.7167 30.9042 19.4792 30.7125 19.2875C30.5208 19.0958 30.2833 19 30 19H29C28.7167 19 28.4792 19.0958 28.2875 19.2875C28.0958 19.4792 28 19.7167 28 20C28 20.2833 28.0958 20.5208 28.2875 20.7125C28.4792 20.9042 28.7167 21 29 21H30C30.2833 21 30.5208 20.9042 30.7125 20.7125C30.9042 20.5208 31 20.2833 31 20Z" fill="white"/>
</g>
</svg>
