<svg width="48" height="48" viewBox="0 0 48 48" fill="none" xmlns="http://www.w3.org/2000/svg">
<rect width="48" height="48" rx="13" fill="#0052CC"/>
<mask id="mask0_1886_1138" style="mask-type:alpha" maskUnits="userSpaceOnUse" x="12" y="12" width="24" height="24">
<rect x="12" y="12" width="24" height="24" fill="#D9D9D9"/>
</mask>
<g mask="url(#mask0_1886_1138)">
<path d="M32 24C31.7333 24 31.4958 23.9042 31.2875 23.7125C31.0792 23.5208 30.9583 23.2833 30.925 23C30.7083 21.45 30.0542 20.1292 28.9625 19.0375C27.8708 17.9458 26.55 17.2917 25 17.075C24.7167 17.0417 24.4792 16.925 24.2875 16.725C24.0958 16.525 24 16.2833 24 16C24 15.7167 24.1 15.4792 24.3 15.2875C24.5 15.0958 24.7333 15.0167 25 15.05C27.1 15.2833 28.8917 16.1417 30.375 17.625C31.8583 19.1083 32.7167 20.9 32.95 23C32.9833 23.2667 32.9042 23.5 32.7125 23.7C32.5208 23.9 32.2833 24 32 24ZM27.825 24C27.6083 24 27.4167 23.925 27.25 23.775C27.0833 23.625 26.9583 23.425 26.875 23.175C26.7417 22.6917 26.4875 22.2625 26.1125 21.8875C25.7375 21.5125 25.3083 21.2583 24.825 21.125C24.575 21.0417 24.375 20.9167 24.225 20.75C24.075 20.5833 24 20.3833 24 20.15C24 19.8167 24.1167 19.5458 24.35 19.3375C24.5833 19.1292 24.8417 19.0583 25.125 19.125C26.0583 19.3417 26.8625 19.7875 27.5375 20.4625C28.2125 21.1375 28.6583 21.9417 28.875 22.875C28.9417 23.1583 28.8667 23.4167 28.65 23.65C28.4333 23.8833 28.1583 24 27.825 24ZM31.95 33C29.8667 33 27.8083 32.5458 25.775 31.6375C23.7417 30.7292 21.8917 29.4417 20.225 27.775C18.5583 26.1083 17.2708 24.2583 16.3625 22.225C15.4542 20.1917 15 18.1333 15 16.05C15 15.75 15.1 15.5 15.3 15.3C15.5 15.1 15.75 15 16.05 15H20.1C20.3333 15 20.5417 15.0792 20.725 15.2375C20.9083 15.3958 21.0167 15.5833 21.05 15.8L21.7 19.3C21.7333 19.5667 21.725 19.7917 21.675 19.975C21.625 20.1583 21.5333 20.3167 21.4 20.45L18.975 22.9C19.3083 23.5167 19.7042 24.1125 20.1625 24.6875C20.6208 25.2625 21.125 25.8167 21.675 26.35C22.1917 26.8667 22.7333 27.3458 23.3 27.7875C23.8667 28.2292 24.4667 28.6333 25.1 29L27.45 26.65C27.6 26.5 27.7958 26.3875 28.0375 26.3125C28.2792 26.2375 28.5167 26.2167 28.75 26.25L32.2 26.95C32.4333 27.0167 32.625 27.1375 32.775 27.3125C32.925 27.4875 33 27.6833 33 27.9V31.95C33 32.25 32.9 32.5 32.7 32.7C32.5 32.9 32.25 33 31.95 33ZM18.025 21L19.675 19.35L19.25 17H17.025C17.1083 17.6833 17.225 18.3583 17.375 19.025C17.525 19.6917 17.7417 20.35 18.025 21ZM26.975 29.95C27.625 30.2333 28.2875 30.4583 28.9625 30.625C29.6375 30.7917 30.3167 30.9 31 30.95V28.75L28.65 28.275L26.975 29.95Z" fill="white"/>
</g>
</svg>
