<svg width="48" height="48" viewBox="0 0 48 48" fill="none" xmlns="http://www.w3.org/2000/svg">
<rect width="48" height="48" rx="13" fill="#0052CC"/>
<mask id="mask0_1915_5812" style="mask-type:alpha" maskUnits="userSpaceOnUse" x="12" y="12" width="24" height="24">
<rect x="12" y="12" width="24" height="24" fill="#D9D9D9"/>
</mask>
<g mask="url(#mask0_1915_5812)">
<path d="M33 25H31C30.7167 25 30.4792 24.9042 30.2875 24.7125C30.0958 24.5208 30 24.2833 30 24C30 23.7167 30.0958 23.4792 30.2875 23.2875C30.4792 23.0958 30.7167 23 31 23H33C33.2833 23 33.5208 23.0958 33.7125 23.2875C33.9042 23.4792 34 23.7167 34 24C34 24.2833 33.9042 24.5208 33.7125 24.7125C33.5208 24.9042 33.2833 25 33 25ZM28.6 28.8C28.7667 28.5667 28.9833 28.4333 29.25 28.4C29.5167 28.3667 29.7667 28.4333 30 28.6L31.6 29.8C31.8333 29.9667 31.9667 30.1833 32 30.45C32.0333 30.7167 31.9667 30.9667 31.8 31.2C31.6333 31.4333 31.4167 31.5667 31.15 31.6C30.8833 31.6333 30.6333 31.5667 30.4 31.4L28.8 30.2C28.5667 30.0333 28.4333 29.8167 28.4 29.55C28.3667 29.2833 28.4333 29.0333 28.6 28.8ZM31.6 18.2L30 19.4C29.7667 19.5667 29.5167 19.6333 29.25 19.6C28.9833 19.5667 28.7667 19.4333 28.6 19.2C28.4333 18.9667 28.3667 18.7167 28.4 18.45C28.4333 18.1833 28.5667 17.9667 28.8 17.8L30.4 16.6C30.6333 16.4333 30.8833 16.3667 31.15 16.4C31.4167 16.4333 31.6333 16.5667 31.8 16.8C31.9667 17.0333 32.0333 17.2833 32 17.55C31.9667 17.8167 31.8333 18.0333 31.6 18.2ZM17 27H16C15.45 27 14.9792 26.8042 14.5875 26.4125C14.1958 26.0208 14 25.55 14 25V23C14 22.45 14.1958 21.9792 14.5875 21.5875C14.9792 21.1958 15.45 21 16 21H20L23.475 18.9C23.8083 18.7 24.1458 18.7 24.4875 18.9C24.8292 19.1 25 19.3917 25 19.775V28.225C25 28.6083 24.8292 28.9 24.4875 29.1C24.1458 29.3 23.8083 29.3 23.475 29.1L20 27H19V30C19 30.2833 18.9042 30.5208 18.7125 30.7125C18.5208 30.9042 18.2833 31 18 31C17.7167 31 17.4792 30.9042 17.2875 30.7125C17.0958 30.5208 17 30.2833 17 30V27ZM23 26.45V21.55L20.55 23H16V25H20.55L23 26.45ZM26 27.35V20.65C26.45 21.05 26.8125 21.5375 27.0875 22.1125C27.3625 22.6875 27.5 23.3167 27.5 24C27.5 24.6833 27.3625 25.3125 27.0875 25.8875C26.8125 26.4625 26.45 26.95 26 27.35Z" fill="white"/>
</g>
</svg>
