<svg width="48" height="48" viewBox="0 0 48 48" fill="none" xmlns="http://www.w3.org/2000/svg">
<rect width="48" height="48" rx="13" fill="#0052CC"/>
<mask id="mask0_1909_3420" style="mask-type:alpha" maskUnits="userSpaceOnUse" x="12" y="12" width="24" height="24">
<rect x="12" y="12" width="24" height="24" fill="#D9D9D9"/>
</mask>
<g mask="url(#mask0_1909_3420)">
<path d="M19 32V33H29V32H19ZM28.85 26.75C28.7167 26.7 28.6 26.6458 28.5 26.5875C28.4 26.5292 28.3 26.45 28.2 26.35L27.45 26.675C27.3333 26.725 27.2167 26.7292 27.1 26.6875C26.9833 26.6458 26.8917 26.5667 26.825 26.45L26.275 25.475C26.2083 25.3583 26.1875 25.2417 26.2125 25.125C26.2375 25.0083 26.3 24.9083 26.4 24.825L27.05 24.35C27.0167 24.2167 27 24.0917 27 23.975C27 23.8583 27.0167 23.7333 27.05 23.6L26.425 23.125C26.325 23.0417 26.2625 22.9375 26.2375 22.8125C26.2125 22.6875 26.2333 22.5667 26.3 22.45L26.875 21.5C26.9417 21.4 27.0333 21.3292 27.15 21.2875C27.2667 21.2458 27.3833 21.25 27.5 21.3L28.2 21.6C28.3 21.5167 28.4 21.45 28.5 21.4C28.6 21.35 28.7167 21.3 28.85 21.25L28.95 20.45C28.9667 20.3167 29.0208 20.2083 29.1125 20.125C29.2042 20.0417 29.3167 20 29.45 20H30.55C30.6833 20 30.7958 20.0417 30.8875 20.125C30.9792 20.2083 31.0333 20.3167 31.05 20.45L31.15 21.25C31.2833 21.3 31.4 21.35 31.5 21.4C31.6 21.45 31.7 21.5167 31.8 21.6L32.5 21.3C32.6167 21.25 32.7333 21.2458 32.85 21.2875C32.9667 21.3292 33.0583 21.4 33.125 21.5L33.7 22.45C33.7667 22.5667 33.7875 22.6875 33.7625 22.8125C33.7375 22.9375 33.675 23.0417 33.575 23.125L32.95 23.6C32.9833 23.7333 33 23.8583 33 23.975C33 24.0917 32.9833 24.2167 32.95 24.35L33.6 24.825C33.7 24.9083 33.7625 25.0083 33.7875 25.125C33.8125 25.2417 33.7917 25.3583 33.725 25.475L33.175 26.45C33.1083 26.5667 33.0167 26.6458 32.9 26.6875C32.7833 26.7292 32.6667 26.725 32.55 26.675L31.8 26.35C31.7 26.45 31.6 26.5292 31.5 26.5875C31.4 26.6458 31.2833 26.7 31.15 26.75L31.05 27.55C31.0333 27.6833 30.9792 27.7917 30.8875 27.875C30.7958 27.9583 30.6833 28 30.55 28H29.45C29.3167 28 29.2042 27.9583 29.1125 27.875C29.0208 27.7917 28.9667 27.6833 28.95 27.55L28.85 26.75ZM30 25.5C30.4333 25.5 30.7917 25.3583 31.075 25.075C31.3583 24.7917 31.5 24.4333 31.5 24C31.5 23.5667 31.3583 23.2083 31.075 22.925C30.7917 22.6417 30.4333 22.5 30 22.5C29.5667 22.5 29.2083 22.6417 28.925 22.925C28.6417 23.2083 28.5 23.5667 28.5 24C28.5 24.4333 28.6417 24.7917 28.925 25.075C29.2083 25.3583 29.5667 25.5 30 25.5ZM19 16H29V15H19V16ZM19 35C18.45 35 17.9792 34.8042 17.5875 34.4125C17.1958 34.0208 17 33.55 17 33V15C17 14.45 17.1958 13.9792 17.5875 13.5875C17.9792 13.1958 18.45 13 19 13H29C29.55 13 30.0208 13.1958 30.4125 13.5875C30.8042 13.9792 31 14.45 31 15V18C31 18.2833 30.9042 18.5208 30.7125 18.7125C30.5208 18.9042 30.2833 19 30 19C29.7167 19 29.4792 18.9042 29.2875 18.7125C29.0958 18.5208 29 18.2833 29 18H19V30H29C29 29.7167 29.0958 29.4792 29.2875 29.2875C29.4792 29.0958 29.7167 29 30 29C30.2833 29 30.5208 29.0958 30.7125 29.2875C30.9042 29.4792 31 29.7167 31 30V33C31 33.55 30.8042 34.0208 30.4125 34.4125C30.0208 34.8042 29.55 35 29 35H19Z" fill="white"/>
</g>
</svg>
