<svg width="48" height="48" viewBox="0 0 48 48" fill="none" xmlns="http://www.w3.org/2000/svg">
<rect width="48" height="48" rx="13" fill="#0052CC"/>
<mask id="mask0_1886_3562" style="mask-type:alpha" maskUnits="userSpaceOnUse" x="12" y="12" width="24" height="24">
<rect x="12" y="12" width="24" height="24" fill="#D9D9D9"/>
</mask>
<g mask="url(#mask0_1886_3562)">
<path d="M19.9981 33C19.7148 33 19.4773 32.9042 19.2856 32.7125C19.0939 32.5208 18.9981 32.2833 18.9981 32V29.925C17.4481 29.7083 16.1356 29.0625 15.0606 27.9875C13.9856 26.9125 13.3314 25.625 13.0981 24.125C13.0481 23.8417 13.1148 23.5833 13.2981 23.35C13.4814 23.1167 13.7148 23 13.9981 23C14.2814 23 14.5231 23.1125 14.7231 23.3375C14.9231 23.5625 15.0564 23.825 15.1231 24.125C15.3731 25.2417 15.9481 26.1667 16.8481 26.9C17.7481 27.6333 18.7981 28 19.9981 28H20.2481C20.3314 28 20.4148 27.9917 20.4981 27.975C20.7148 28.3083 20.9481 28.6208 21.1981 28.9125C21.4481 29.2042 21.7148 29.475 21.9981 29.725C21.8314 29.775 21.6689 29.8125 21.5106 29.8375C21.3523 29.8625 21.1814 29.8917 20.9981 29.925V32C20.9981 32.2833 20.9023 32.5208 20.7106 32.7125C20.5189 32.9042 20.2814 33 19.9981 33ZM27.9981 26C27.1648 26 26.4564 25.7083 25.8731 25.125C25.2898 24.5417 24.9981 23.8333 24.9981 23V17C24.9981 16.1667 25.2898 15.4583 25.8731 14.875C26.4564 14.2917 27.1648 14 27.9981 14C28.8314 14 29.5398 14.2917 30.1231 14.875C30.7064 15.4583 30.9981 16.1667 30.9981 17V23C30.9981 23.8333 30.7064 24.5417 30.1231 25.125C29.5398 25.7083 28.8314 26 27.9981 26ZM27.9981 24C28.2814 24 28.5189 23.9042 28.7106 23.7125C28.9023 23.5208 28.9981 23.2833 28.9981 23V17C28.9981 16.7167 28.9023 16.4792 28.7106 16.2875C28.5189 16.0958 28.2814 16 27.9981 16C27.7148 16 27.4773 16.0958 27.2856 16.2875C27.0939 16.4792 26.9981 16.7167 26.9981 17V23C26.9981 23.2833 27.0939 23.5208 27.2856 23.7125C27.4773 23.9042 27.7148 24 27.9981 24ZM19.4981 25.95C18.7814 25.8167 18.1856 25.475 17.7106 24.925C17.2356 24.375 16.9981 23.7333 16.9981 23V17C16.9981 16.1667 17.2898 15.4583 17.8731 14.875C18.4564 14.2917 19.1648 14 19.9981 14C20.8314 14 21.5398 14.2917 22.1231 14.875C22.7064 15.4583 22.9981 16.1667 22.9981 17V21.175C22.8314 21.1083 22.6689 21.0625 22.5106 21.0375C22.3523 21.0125 22.1814 21 21.9981 21C21.1814 21 20.4898 21.2875 19.9231 21.8625C19.3564 22.4375 19.0731 23.1333 19.0731 23.95C19.0731 24.2833 19.1148 24.6167 19.1981 24.95C19.2814 25.2833 19.3814 25.6167 19.4981 25.95ZM27.9981 28C29.1981 28 30.2481 27.6333 31.1481 26.9C32.0481 26.1667 32.6231 25.2417 32.8731 24.125C32.9398 23.825 33.0731 23.5625 33.2731 23.3375C33.4731 23.1125 33.7148 23 33.9981 23C34.2814 23 34.5148 23.1167 34.6981 23.35C34.8814 23.5833 34.9481 23.8417 34.8981 24.125C34.6648 25.625 34.0106 26.9125 32.9356 27.9875C31.8606 29.0625 30.5481 29.7083 28.9981 29.925V32C28.9981 32.2833 28.9023 32.5208 28.7106 32.7125C28.5189 32.9042 28.2814 33 27.9981 33C27.7148 33 27.4773 32.9042 27.2856 32.7125C27.0939 32.5208 26.9981 32.2833 26.9981 32V29.925C25.4481 29.7083 24.1356 29.0625 23.0606 27.9875C21.9856 26.9125 21.3314 25.625 21.0981 24.125C21.0481 23.8417 21.1148 23.5833 21.2981 23.35C21.4814 23.1167 21.7148 23 21.9981 23C22.2814 23 22.5231 23.1125 22.7231 23.3375C22.9231 23.5625 23.0564 23.825 23.1231 24.125C23.3731 25.2417 23.9481 26.1667 24.8481 26.9C25.7481 27.6333 26.7981 28 27.9981 28Z" fill="white"/>
</g>
</svg>
