<svg width="48" height="48" viewBox="0 0 48 48" fill="none" xmlns="http://www.w3.org/2000/svg">
<rect width="48" height="48" rx="13" fill="#0052CC"/>
<mask id="mask0_1909_2508" style="mask-type:alpha" maskUnits="userSpaceOnUse" x="12" y="12" width="24" height="24">
<rect x="12" y="12" width="24" height="24" fill="#D9D9D9"/>
</mask>
<g mask="url(#mask0_1909_2508)">
<path d="M31 26C30.7167 26 30.4792 25.9042 30.2875 25.7125C30.0958 25.5208 30 25.2833 30 25C30 24.7167 30.0958 24.4792 30.2875 24.2875C30.4792 24.0958 30.7167 24 31 24H32.925C32.8583 23.8833 32.7833 23.7833 32.7 23.7C32.6167 23.6167 32.5167 23.5417 32.4 23.475C31.9667 23.225 31.4708 23.0417 30.9125 22.925C30.3542 22.8083 29.7167 22.75 29 22.75H28.475C28.1917 22.75 27.9583 22.6583 27.775 22.475C27.5917 22.2917 27.5 22.0583 27.5 21.775C27.5 21.4917 27.5792 21.2625 27.7375 21.0875C27.8958 20.9125 28.1167 20.8083 28.4 20.775C28.4833 20.7583 28.5833 20.75 28.7 20.75H29C29.8833 20.75 30.7083 20.8417 31.475 21.025C32.2417 21.2083 32.9583 21.475 33.625 21.825C34.0583 22.0583 34.3958 22.4042 34.6375 22.8625C34.8792 23.3208 35 23.8417 35 24.425V25C35 25.2833 34.9042 25.5208 34.7125 25.7125C34.5208 25.9042 34.2833 26 34 26H31ZM29 20C28.1667 20 27.4583 19.7083 26.875 19.125C26.2917 18.5417 26 17.8333 26 17C26 16.1667 26.2917 15.4583 26.875 14.875C27.4583 14.2917 28.1667 14 29 14C29.8333 14 30.5417 14.2917 31.125 14.875C31.7083 15.4583 32 16.1667 32 17C32 17.8333 31.7083 18.5417 31.125 19.125C30.5417 19.7083 29.8333 20 29 20ZM29 18C29.2833 18 29.5208 17.9042 29.7125 17.7125C29.9042 17.5208 30 17.2833 30 17C30 16.7167 29.9042 16.4792 29.7125 16.2875C29.5208 16.0958 29.2833 16 29 16C28.7167 16 28.4792 16.0958 28.2875 16.2875C28.0958 16.4792 28 16.7167 28 17C28 17.2833 28.0958 17.5208 28.2875 17.7125C28.4792 17.9042 28.7167 18 29 18ZM14 26C13.7167 26 13.4792 25.9042 13.2875 25.7125C13.0958 25.5208 13 25.2833 13 25V24.425C13 23.8417 13.1208 23.3208 13.3625 22.8625C13.6042 22.4042 13.9417 22.0583 14.375 21.825C15.0417 21.475 15.7583 21.2083 16.525 21.025C17.2917 20.8417 18.1167 20.75 19 20.75H19.3C19.4167 20.75 19.5167 20.7583 19.6 20.775C19.8833 20.8083 20.1042 20.9125 20.2625 21.0875C20.4208 21.2625 20.5 21.4917 20.5 21.775C20.5 22.0583 20.4083 22.2917 20.225 22.475C20.0417 22.6583 19.8083 22.75 19.525 22.75H19C18.2833 22.75 17.6458 22.8083 17.0875 22.925C16.5292 23.0417 16.0333 23.225 15.6 23.475C15.4833 23.5417 15.3833 23.6167 15.3 23.7C15.2167 23.7833 15.1417 23.8833 15.075 24H17C17.2833 24 17.5208 24.0958 17.7125 24.2875C17.9042 24.4792 18 24.7167 18 25C18 25.2833 17.9042 25.5208 17.7125 25.7125C17.5208 25.9042 17.2833 26 17 26H14ZM19 20C18.1667 20 17.4583 19.7083 16.875 19.125C16.2917 18.5417 16 17.8333 16 17C16 16.1667 16.2917 15.4583 16.875 14.875C17.4583 14.2917 18.1667 14 19 14C19.8333 14 20.5417 14.2917 21.125 14.875C21.7083 15.4583 22 16.1667 22 17C22 17.8333 21.7083 18.5417 21.125 19.125C20.5417 19.7083 19.8333 20 19 20ZM19 18C19.2833 18 19.5208 17.9042 19.7125 17.7125C19.9042 17.5208 20 17.2833 20 17C20 16.7167 19.9042 16.4792 19.7125 16.2875C19.5208 16.0958 19.2833 16 19 16C18.7167 16 18.4792 16.0958 18.2875 16.2875C18.0958 16.4792 18 16.7167 18 17C18 17.2833 18.0958 17.5208 18.2875 17.7125C18.4792 17.9042 18.7167 18 19 18ZM24 29C23.45 29 22.9792 28.8042 22.5875 28.4125C22.1958 28.0208 22 27.55 22 27V24C22 23.45 22.1958 22.9792 22.5875 22.5875C22.9792 22.1958 23.45 22 24 22C24.55 22 25.0208 22.1958 25.4125 22.5875C25.8042 22.9792 26 23.45 26 24V27C26 27.55 25.8042 28.0208 25.4125 28.4125C25.0208 28.8042 24.55 29 24 29ZM24 34C23.7833 34 23.6042 33.9292 23.4625 33.7875C23.3208 33.6458 23.25 33.4667 23.25 33.25V31.95C22.1667 31.7833 21.2375 31.3167 20.4625 30.55C19.6875 29.7833 19.225 28.8917 19.075 27.875C19.0417 27.6417 19.1 27.4375 19.25 27.2625C19.4 27.0875 19.5917 27 19.825 27C20.0083 27 20.1667 27.0542 20.3 27.1625C20.4333 27.2708 20.5167 27.4167 20.55 27.6C20.7333 28.4667 21.1417 29.1667 21.775 29.7C22.4083 30.2333 23.15 30.5 24 30.5C24.85 30.5 25.5917 30.2333 26.225 29.7C26.8583 29.1667 27.2667 28.4667 27.45 27.6C27.4833 27.4167 27.5667 27.2708 27.7 27.1625C27.8333 27.0542 27.9917 27 28.175 27C28.4083 27 28.6 27.0875 28.75 27.2625C28.9 27.4375 28.9583 27.6417 28.925 27.875C28.775 28.8917 28.3125 29.7833 27.5375 30.55C26.7625 31.3167 25.8333 31.7833 24.75 31.95V33.25C24.75 33.4667 24.6792 33.6458 24.5375 33.7875C24.3958 33.9292 24.2167 34 24 34Z" fill="white"/>
</g>
</svg>
