<svg width="48" height="48" viewBox="0 0 48 48" fill="none" xmlns="http://www.w3.org/2000/svg">
<rect width="48" height="48" rx="13" fill="#0052CC"/>
<mask id="mask0_1909_3945" style="mask-type:alpha" maskUnits="userSpaceOnUse" x="12" y="12" width="24" height="24">
<rect x="12" y="12" width="24" height="24" fill="#D9D9D9"/>
</mask>
<g mask="url(#mask0_1909_3945)">
<path d="M24 24C23.7167 24 23.4792 23.9042 23.2875 23.7125C23.0958 23.5208 23 23.2833 23 23C23 22.7167 23.0958 22.4792 23.2875 22.2875C23.4792 22.0958 23.7167 22 24 22C24.2833 22 24.5208 22.0958 24.7125 22.2875C24.9042 22.4792 25 22.7167 25 23C25 23.2833 24.9042 23.5208 24.7125 23.7125C24.5208 23.9042 24.2833 24 24 24ZM24 18C23.7167 18 23.4792 17.9042 23.2875 17.7125C23.0958 17.5208 23 17.2833 23 17C23 16.7167 23.0958 16.4792 23.2875 16.2875C23.4792 16.0958 23.7167 16 24 16C24.2833 16 24.5208 16.0958 24.7125 16.2875C24.9042 16.4792 25 16.7167 25 17C25 17.2833 24.9042 17.5208 24.7125 17.7125C24.5208 17.9042 24.2833 18 24 18ZM26 21C25.7167 21 25.4792 20.9042 25.2875 20.7125C25.0958 20.5208 25 20.2833 25 20C25 19.7167 25.0958 19.4792 25.2875 19.2875C25.4792 19.0958 25.7167 19 26 19C26.2833 19 26.5208 19.0958 26.7125 19.2875C26.9042 19.4792 27 19.7167 27 20C27 20.2833 26.9042 20.5208 26.7125 20.7125C26.5208 20.9042 26.2833 21 26 21ZM27 24C26.7167 24 26.4792 23.9042 26.2875 23.7125C26.0958 23.5208 26 23.2833 26 23C26 22.7167 26.0958 22.4792 26.2875 22.2875C26.4792 22.0958 26.7167 22 27 22C27.2833 22 27.5208 22.0958 27.7125 22.2875C27.9042 22.4792 28 22.7167 28 23C28 23.2833 27.9042 23.5208 27.7125 23.7125C27.5208 23.9042 27.2833 24 27 24ZM27 18C26.7167 18 26.4792 17.9042 26.2875 17.7125C26.0958 17.5208 26 17.2833 26 17C26 16.7167 26.0958 16.4792 26.2875 16.2875C26.4792 16.0958 26.7167 16 27 16C27.2833 16 27.5208 16.0958 27.7125 16.2875C27.9042 16.4792 28 16.7167 28 17C28 17.2833 27.9042 17.5208 27.7125 17.7125C27.5208 17.9042 27.2833 18 27 18ZM29 21C28.7167 21 28.4792 20.9042 28.2875 20.7125C28.0958 20.5208 28 20.2833 28 20C28 19.7167 28.0958 19.4792 28.2875 19.2875C28.4792 19.0958 28.7167 19 29 19C29.2833 19 29.5208 19.0958 29.7125 19.2875C29.9042 19.4792 30 19.7167 30 20C30 20.2833 29.9042 20.5208 29.7125 20.7125C29.5208 20.9042 29.2833 21 29 21ZM30 24C29.7167 24 29.4792 23.9042 29.2875 23.7125C29.0958 23.5208 29 23.2833 29 23C29 22.7167 29.0958 22.4792 29.2875 22.2875C29.4792 22.0958 29.7167 22 30 22C30.2833 22 30.5208 22.0958 30.7125 22.2875C30.9042 22.4792 31 22.7167 31 23C31 23.2833 30.9042 23.5208 30.7125 23.7125C30.5208 23.9042 30.2833 24 30 24ZM30 18C29.7167 18 29.4792 17.9042 29.2875 17.7125C29.0958 17.5208 29 17.2833 29 17C29 16.7167 29.0958 16.4792 29.2875 16.2875C29.4792 16.0958 29.7167 16 30 16C30.2833 16 30.5208 16.0958 30.7125 16.2875C30.9042 16.4792 31 16.7167 31 17C31 17.2833 30.9042 17.5208 30.7125 17.7125C30.5208 17.9042 30.2833 18 30 18ZM32 21C31.7167 21 31.4792 20.9042 31.2875 20.7125C31.0958 20.5208 31 20.2833 31 20C31 19.7167 31.0958 19.4792 31.2875 19.2875C31.4792 19.0958 31.7167 19 32 19C32.2833 19 32.5208 19.0958 32.7125 19.2875C32.9042 19.4792 33 19.7167 33 20C33 20.2833 32.9042 20.5208 32.7125 20.7125C32.5208 20.9042 32.2833 21 32 21ZM33 24C32.7167 24 32.4792 23.9042 32.2875 23.7125C32.0958 23.5208 32 23.2833 32 23C32 22.7167 32.0958 22.4792 32.2875 22.2875C32.4792 22.0958 32.7167 22 33 22C33.2833 22 33.5208 22.0958 33.7125 22.2875C33.9042 22.4792 34 22.7167 34 23C34 23.2833 33.9042 23.5208 33.7125 23.7125C33.5208 23.9042 33.2833 24 33 24ZM33 18C32.7167 18 32.4792 17.9042 32.2875 17.7125C32.0958 17.5208 32 17.2833 32 17C32 16.7167 32.0958 16.4792 32.2875 16.2875C32.4792 16.0958 32.7167 16 33 16C33.2833 16 33.5208 16.0958 33.7125 16.2875C33.9042 16.4792 34 16.7167 34 17C34 17.2833 33.9042 17.5208 33.7125 17.7125C33.5208 17.9042 33.2833 18 33 18ZM31.95 33C29.8667 33 27.8083 32.5458 25.775 31.6375C23.7417 30.7292 21.8917 29.4417 20.225 27.775C18.5583 26.1083 17.2708 24.2583 16.3625 22.225C15.4542 20.1917 15 18.1333 15 16.05C15 15.75 15.1 15.5 15.3 15.3C15.5 15.1 15.75 15 16.05 15H20.1C20.3333 15 20.5417 15.0792 20.725 15.2375C20.9083 15.3958 21.0167 15.5833 21.05 15.8L21.7 19.3C21.7333 19.5667 21.725 19.7917 21.675 19.975C21.625 20.1583 21.5333 20.3167 21.4 20.45L18.975 22.9C19.3083 23.5167 19.7042 24.1125 20.1625 24.6875C20.6208 25.2625 21.125 25.8167 21.675 26.35C22.1917 26.8667 22.7333 27.3458 23.3 27.7875C23.8667 28.2292 24.4667 28.6333 25.1 29L27.45 26.65C27.6 26.5 27.7958 26.3875 28.0375 26.3125C28.2792 26.2375 28.5167 26.2167 28.75 26.25L32.2 26.95C32.4333 27.0167 32.625 27.1375 32.775 27.3125C32.925 27.4875 33 27.6833 33 27.9V31.95C33 32.25 32.9 32.5 32.7 32.7C32.5 32.9 32.25 33 31.95 33ZM18.025 21L19.675 19.35L19.25 17H17.025C17.1083 17.6833 17.225 18.3583 17.375 19.025C17.525 19.6917 17.7417 20.35 18.025 21ZM26.975 29.95C27.625 30.2333 28.2875 30.4583 28.9625 30.625C29.6375 30.7917 30.3167 30.9 31 30.95V28.75L28.65 28.275L26.975 29.95Z" fill="white"/>
</g>
</svg>
