<svg width="48" height="48" viewBox="0 0 48 48" fill="none" xmlns="http://www.w3.org/2000/svg">
<rect width="48" height="48" rx="13" fill="#0052CC"/>
<mask id="mask0_1909_4973" style="mask-type:alpha" maskUnits="userSpaceOnUse" x="12" y="12" width="24" height="24">
<rect x="12" y="12" width="24" height="24" fill="#D9D9D9"/>
</mask>
<g mask="url(#mask0_1909_4973)">
<path d="M17 35C16.7167 35 16.4792 34.9042 16.2875 34.7125C16.0958 34.5208 16 34.2833 16 34C16 33.7167 16.0958 33.4792 16.2875 33.2875C16.4792 33.0958 16.7167 33 17 33H31C31.2833 33 31.5208 33.0958 31.7125 33.2875C31.9042 33.4792 32 33.7167 32 34C32 34.2833 31.9042 34.5208 31.7125 34.7125C31.5208 34.9042 31.2833 35 31 35H17ZM17 15C16.7167 15 16.4792 14.9042 16.2875 14.7125C16.0958 14.5208 16 14.2833 16 14C16 13.7167 16.0958 13.4792 16.2875 13.2875C16.4792 13.0958 16.7167 13 17 13H31C31.2833 13 31.5208 13.0958 31.7125 13.2875C31.9042 13.4792 32 13.7167 32 14C32 14.2833 31.9042 14.5208 31.7125 14.7125C31.5208 14.9042 31.2833 15 31 15H17ZM24 25C24.8333 25 25.5417 24.7083 26.125 24.125C26.7083 23.5417 27 22.8333 27 22C27 21.1667 26.7083 20.4583 26.125 19.875C25.5417 19.2917 24.8333 19 24 19C23.1667 19 22.4583 19.2917 21.875 19.875C21.2917 20.4583 21 21.1667 21 22C21 22.8333 21.2917 23.5417 21.875 24.125C22.4583 24.7083 23.1667 25 24 25ZM16 32C15.45 32 14.9792 31.8042 14.5875 31.4125C14.1958 31.0208 14 30.55 14 30V18C14 17.45 14.1958 16.9792 14.5875 16.5875C14.9792 16.1958 15.45 16 16 16H32C32.55 16 33.0208 16.1958 33.4125 16.5875C33.8042 16.9792 34 17.45 34 18V30C34 30.55 33.8042 31.0208 33.4125 31.4125C33.0208 31.8042 32.55 32 32 32H16ZM17.75 30C18.5 29.0667 19.4083 28.3333 20.475 27.8C21.5417 27.2667 22.7167 27 24 27C25.2833 27 26.4583 27.2667 27.525 27.8C28.5917 28.3333 29.5 29.0667 30.25 30H32V18H16V30H17.75ZM20.7 30H27.3C26.8167 29.6667 26.2958 29.4167 25.7375 29.25C25.1792 29.0833 24.6 29 24 29C23.4 29 22.8208 29.0833 22.2625 29.25C21.7042 29.4167 21.1833 29.6667 20.7 30ZM24 23C23.7167 23 23.4792 22.9042 23.2875 22.7125C23.0958 22.5208 23 22.2833 23 22C23 21.7167 23.0958 21.4792 23.2875 21.2875C23.4792 21.0958 23.7167 21 24 21C24.2833 21 24.5208 21.0958 24.7125 21.2875C24.9042 21.4792 25 21.7167 25 22C25 22.2833 24.9042 22.5208 24.7125 22.7125C24.5208 22.9042 24.2833 23 24 23Z" fill="white"/>
</g>
</svg>
