<svg width="48" height="48" viewBox="0 0 48 48" fill="none" xmlns="http://www.w3.org/2000/svg">
<rect width="48" height="48" rx="13" fill="#0052CC"/>
<mask id="mask0_1357_4391" style="mask-type:alpha" maskUnits="userSpaceOnUse" x="12" y="12" width="24" height="24">
<rect x="12" y="12" width="24" height="24" fill="#D9D9D9"/>
</mask>
<g mask="url(#mask0_1357_4391)">
<path d="M19 29V19C19 18.7167 19.0958 18.4792 19.2875 18.2875C19.4792 18.0958 19.7167 18 20 18C20.2833 18 20.5208 18.0958 20.7125 18.2875C20.9042 18.4792 21 18.7167 21 19V29C21 29.2833 20.9042 29.5208 20.7125 29.7125C20.5208 29.9042 20.2833 30 20 30C19.7167 30 19.4792 29.9042 19.2875 29.7125C19.0958 29.5208 19 29.2833 19 29ZM23 33V15C23 14.7167 23.0958 14.4792 23.2875 14.2875C23.4792 14.0958 23.7167 14 24 14C24.2833 14 24.5208 14.0958 24.7125 14.2875C24.9042 14.4792 25 14.7167 25 15V33C25 33.2833 24.9042 33.5208 24.7125 33.7125C24.5208 33.9042 24.2833 34 24 34C23.7167 34 23.4792 33.9042 23.2875 33.7125C23.0958 33.5208 23 33.2833 23 33ZM15 25V23C15 22.7167 15.0958 22.4792 15.2875 22.2875C15.4792 22.0958 15.7167 22 16 22C16.2833 22 16.5208 22.0958 16.7125 22.2875C16.9042 22.4792 17 22.7167 17 23V25C17 25.2833 16.9042 25.5208 16.7125 25.7125C16.5208 25.9042 16.2833 26 16 26C15.7167 26 15.4792 25.9042 15.2875 25.7125C15.0958 25.5208 15 25.2833 15 25ZM27 29V19C27 18.7167 27.0958 18.4792 27.2875 18.2875C27.4792 18.0958 27.7167 18 28 18C28.2833 18 28.5208 18.0958 28.7125 18.2875C28.9042 18.4792 29 18.7167 29 19V29C29 29.2833 28.9042 29.5208 28.7125 29.7125C28.5208 29.9042 28.2833 30 28 30C27.7167 30 27.4792 29.9042 27.2875 29.7125C27.0958 29.5208 27 29.2833 27 29ZM31 25V23C31 22.7167 31.0958 22.4792 31.2875 22.2875C31.4792 22.0958 31.7167 22 32 22C32.2833 22 32.5208 22.0958 32.7125 22.2875C32.9042 22.4792 33 22.7167 33 23V25C33 25.2833 32.9042 25.5208 32.7125 25.7125C32.5208 25.9042 32.2833 26 32 26C31.7167 26 31.4792 25.9042 31.2875 25.7125C31.0958 25.5208 31 25.2833 31 25Z" fill="white"/>
</g>
</svg>
