<svg width="48" height="48" viewBox="0 0 48 48" fill="none" xmlns="http://www.w3.org/2000/svg">
<rect width="48" height="48" rx="13" fill="#0052CC"/>
<mask id="mask0_1317_1713" style="mask-type:alpha" maskUnits="userSpaceOnUse" x="12" y="12" width="24" height="24">
<rect x="12" y="12" width="24" height="24" fill="#D9D9D9"/>
</mask>
<g mask="url(#mask0_1317_1713)">
<path d="M18 19.4V21C18 21.2833 17.9042 21.5208 17.7125 21.7125C17.5208 21.9042 17.2833 22 17 22C16.7167 22 16.4792 21.9042 16.2875 21.7125C16.0958 21.5208 16 21.2833 16 21V17C16 16.7167 16.0958 16.4792 16.2875 16.2875C16.4792 16.0958 16.7167 16 17 16H21C21.2833 16 21.5208 16.0958 21.7125 16.2875C21.9042 16.4792 22 16.7167 22 17C22 17.2833 21.9042 17.5208 21.7125 17.7125C21.5208 17.9042 21.2833 18 21 18H19.4L24.425 23.025C24.6083 23.2083 24.75 23.4208 24.85 23.6625C24.95 23.9042 25 24.1583 25 24.425V31C25 31.2833 24.9042 31.5208 24.7125 31.7125C24.5208 31.9042 24.2833 32 24 32C23.7167 32 23.4792 31.9042 23.2875 31.7125C23.0958 31.5208 23 31.2833 23 31V24.4L18 19.4ZM30 19.4L27.55 21.875C27.35 22.075 27.1125 22.175 26.8375 22.175C26.5625 22.175 26.325 22.075 26.125 21.875C25.925 21.675 25.825 21.4333 25.825 21.15C25.825 20.8667 25.925 20.625 26.125 20.425L28.6 18H27C26.7167 18 26.4792 17.9042 26.2875 17.7125C26.0958 17.5208 26 17.2833 26 17C26 16.7167 26.0958 16.4792 26.2875 16.2875C26.4792 16.0958 26.7167 16 27 16H31C31.2833 16 31.5208 16.0958 31.7125 16.2875C31.9042 16.4792 32 16.7167 32 17V21C32 21.2833 31.9042 21.5208 31.7125 21.7125C31.5208 21.9042 31.2833 22 31 22C30.7167 22 30.4792 21.9042 30.2875 21.7125C30.0958 21.5208 30 21.2833 30 21V19.4Z" fill="white"/>
</g>
</svg>
