<svg width="48" height="48" viewBox="0 0 48 48" fill="none" xmlns="http://www.w3.org/2000/svg">
<rect width="48" height="48" rx="13" fill="#0052CC"/>
<mask id="mask0_1317_2153" style="mask-type:alpha" maskUnits="userSpaceOnUse" x="12" y="12" width="24" height="24">
<rect x="12" y="12" width="24" height="24" fill="#D9D9D9"/>
</mask>
<g mask="url(#mask0_1317_2153)">
<path d="M21 33.1C20.7333 33.1 20.5 33.0042 20.3 32.8126C20.1 32.6209 20 32.375 20 32.0751V28.975C18.3167 28.8417 16.8958 28.1584 15.7375 26.925C14.5792 25.6917 14 24.2167 14 22.5C14 20.6834 14.6292 19.1459 15.8875 17.8875C17.1458 16.6292 18.6833 16 20.5 16H21.175L20.275 15.1C20.0917 14.9167 20 14.6875 20 14.4125C20 14.1375 20.1 13.9 20.3 13.7C20.4833 13.5167 20.7167 13.425 21 13.425C21.2833 13.425 21.5167 13.5167 21.7 13.7L24.3 16.3C24.4 16.4 24.4708 16.5084 24.5125 16.625C24.5542 16.7417 24.575 16.8667 24.575 17C24.575 17.1334 24.5542 17.2584 24.5125 17.375C24.4708 17.4917 24.4 17.6 24.3 17.7L21.7 20.3C21.5167 20.4834 21.2875 20.5792 21.0125 20.5875C20.7375 20.5959 20.5 20.5 20.3 20.3C20.1167 20.1167 20.025 19.8834 20.025 19.6C20.025 19.3167 20.1167 19.0834 20.3 18.9L21.175 18H20.5C19.25 18 18.1875 18.4375 17.3125 19.3125C16.4375 20.1875 16 21.25 16 22.5C16 23.75 16.4375 24.8125 17.3125 25.6875C18.1875 26.5625 19.25 27 20.5 27H22V29.6751L24.675 27H27.5C28.75 27 29.8125 26.5625 30.6875 25.6875C31.5625 24.8125 32 23.75 32 22.5C32 21.25 31.5625 20.1875 30.6875 19.3125C29.8125 18.4375 28.75 18 27.5 18C27.2167 18 26.9792 17.9042 26.7875 17.7125C26.5958 17.5209 26.5 17.2834 26.5 17C26.5 16.7167 26.5958 16.4792 26.7875 16.2875C26.9792 16.0959 27.2167 16 27.5 16C29.3167 16 30.8542 16.6292 32.1125 17.8875C33.3708 19.1459 34 20.6834 34 22.5C34 24.3167 33.3708 25.8542 32.1125 27.1125C30.8542 28.3709 29.3167 29.0001 27.5 29.0001H25.5L21.7 32.8001C21.6 32.9001 21.4917 32.9751 21.375 33.0251C21.2583 33.0751 21.1333 33.1 21 33.1Z" fill="white"/>
</g>
</svg>
