<svg width="48" height="48" viewBox="0 0 48 48" fill="none" xmlns="http://www.w3.org/2000/svg">
<rect width="48" height="48" rx="13" fill="#0052CC"/>
<path d="M18.96 15.373C19.1257 15.373 19.26 15.5073 19.26 15.673V17.241C19.26 17.4067 19.1257 17.541 18.96 17.541H17.3605C17.1948 17.541 17.0605 17.6753 17.0605 17.841V30.5162C17.0605 30.6819 17.1948 30.8162 17.3605 30.8162H18.96C19.1257 30.8162 19.26 30.9506 19.26 31.1163V32.7C19.26 32.8657 19.1257 33 18.96 33H14.8469C14.6812 33 14.5469 32.8657 14.5469 32.7V15.673C14.5469 15.5073 14.6812 15.373 14.8469 15.373H18.96Z" fill="white"/>
<path d="M33.4557 32.7C33.4557 32.8657 33.3214 33 33.1557 33H29.0426C28.877 33 28.7426 32.8657 28.7426 32.7V31.1163C28.7426 30.9506 28.877 30.8162 29.0426 30.8162H30.6421C30.8078 30.8162 30.9421 30.6819 30.9421 30.5163V17.841C30.9421 17.6753 30.8078 17.541 30.6421 17.541H29.0426C28.877 17.541 28.7426 17.4067 28.7426 17.241V15.673C28.7426 15.5073 28.877 15.373 29.0426 15.373H33.1557C33.3214 15.373 33.4557 15.5073 33.4557 15.673V32.7Z" fill="white"/>
<path d="M26.4282 19.617C26.9805 19.617 27.4282 20.0647 27.4282 20.617V20.8479C27.4282 21.4002 26.9805 21.8479 26.4282 21.8479H21.5156C20.9633 21.8479 20.5156 21.4002 20.5156 20.8479V20.617C20.5156 20.0647 20.9633 19.617 21.5156 19.617H26.4282Z" fill="white"/>
<path d="M26.4282 22.9835C26.9805 22.9835 27.4282 23.4312 27.4282 23.9835V24.2144C27.4282 24.7667 26.9805 25.2144 26.4282 25.2144H21.5156C20.9633 25.2144 20.5156 24.7667 20.5156 24.2144V23.9835C20.5156 23.4312 20.9633 22.9835 21.5156 22.9835H26.4282Z" fill="white"/>
<path d="M26.4282 26.35C26.9805 26.35 27.4282 26.7978 27.4282 27.35V27.5809C27.4282 28.1332 26.9805 28.5809 26.4282 28.5809H21.5156C20.9633 28.5809 20.5156 28.1332 20.5156 27.5809V27.35C20.5156 26.7978 20.9633 26.35 21.5156 26.35H26.4282Z" fill="white"/>
</svg>
