<svg width="48" height="48" viewBox="0 0 48 48" fill="none" xmlns="http://www.w3.org/2000/svg">
<rect width="48" height="48" rx="13" fill="#0052CC"/>
<mask id="mask0_1317_1875" style="mask-type:alpha" maskUnits="userSpaceOnUse" x="12" y="12" width="24" height="24">
<rect x="12" y="12" width="24" height="24" fill="#D9D9D9"/>
</mask>
<g mask="url(#mask0_1317_1875)">
<path d="M17 33C16.1667 33 15.4583 32.7083 14.875 32.125C14.2917 31.5417 14 30.8333 14 30C14 29.1667 14.2917 28.4583 14.875 27.875C15.4583 27.2917 16.1667 27 17 27H31C31.8333 27 32.5417 27.2917 33.125 27.875C33.7083 28.4583 34 29.1667 34 30C34 30.8333 33.7083 31.5417 33.125 32.125C32.5417 32.7083 31.8333 33 31 33H17ZM17 31H31C31.2833 31 31.5208 30.9042 31.7125 30.7125C31.9042 30.5208 32 30.2833 32 30C32 29.7167 31.9042 29.4792 31.7125 29.2875C31.5208 29.0958 31.2833 29 31 29H17C16.7167 29 16.4792 29.0958 16.2875 29.2875C16.0958 29.4792 16 29.7167 16 30C16 30.2833 16.0958 30.5208 16.2875 30.7125C16.4792 30.9042 16.7167 31 17 31ZM22 25C21.7167 25 21.4792 24.9042 21.2875 24.7125C21.0958 24.5208 21 24.2833 21 24V16C21 15.7167 21.0958 15.4792 21.2875 15.2875C21.4792 15.0958 21.7167 15 22 15H30C30.2833 15 30.5208 15.0958 30.7125 15.2875C30.9042 15.4792 31 15.7167 31 16V24C31 24.2833 30.9042 24.5208 30.7125 24.7125C30.5208 24.9042 30.2833 25 30 25H22ZM23 23H29V17H23V23ZM14.95 22.95C14.6833 22.95 14.4583 22.8542 14.275 22.6625C14.0917 22.4708 14 22.2417 14 21.975C14 21.7083 14.0958 21.4833 14.2875 21.3C14.4792 21.1167 14.7083 21.025 14.975 21.025H17.975C18.2417 21.025 18.4667 21.1167 18.65 21.3C18.8333 21.4833 18.925 21.7083 18.925 21.975C18.925 22.2417 18.8333 22.4708 18.65 22.6625C18.4667 22.8542 18.2417 22.95 17.975 22.95H14.95ZM25 20H27.025C27.3083 20 27.5417 19.9042 27.725 19.7125C27.9083 19.5208 28 19.2833 28 19C28 18.7167 27.9083 18.4833 27.725 18.3C27.5417 18.1167 27.3083 18.025 27.025 18.025H24.975C24.6917 18.025 24.4583 18.1167 24.275 18.3C24.0917 18.4833 24 18.7167 24 19C24 19.2833 24.0958 19.5208 24.2875 19.7125C24.4792 19.9042 24.7167 20 25 20ZM16.975 20C16.6917 20 16.4583 19.9042 16.275 19.7125C16.0917 19.5208 16 19.2833 16 19C16 18.7167 16.0958 18.4833 16.2875 18.3C16.4792 18.1167 16.7167 18.025 17 18.025H17.95C18.2333 18.025 18.4667 18.1167 18.65 18.3C18.8333 18.4833 18.925 18.7167 18.925 19C18.925 19.2833 18.8333 19.5208 18.65 19.7125C18.4667 19.9042 18.2333 20 17.95 20H16.975Z" fill="white"/>
</g>
</svg>
