<svg width="578" height="429" viewBox="0 0 578 429" fill="none" xmlns="http://www.w3.org/2000/svg">
<g clip-path="url(#clip0_411_2297)">
<path d="M467 430V358.25C467 341.564 453.474 328.038 436.788 328.038H173.212C156.526 328.038 143 314.511 143 297.826V237" stroke="url(#paint0_linear_411_2297)" stroke-width="4.87288"/>
<g filter="url(#filter0_d_411_2297)">
<rect x="91" y="128" width="337" height="183" rx="21" fill="#F8F8F8"/>
</g>
<g clip-path="url(#clip1_411_2297)">
<path d="M122.536 155.528V160.424H128.296V162.656H122.536V167.768H129.016V170H119.8V153.296H129.016V155.528H122.536ZM139.058 156.56C140.098 156.56 141.026 156.776 141.842 157.208C142.674 157.64 143.322 158.28 143.786 159.128C144.25 159.976 144.482 161 144.482 162.2V170H141.77V162.608C141.77 161.424 141.474 160.52 140.882 159.896C140.29 159.256 139.482 158.936 138.458 158.936C137.434 158.936 136.618 159.256 136.01 159.896C135.418 160.52 135.122 161.424 135.122 162.608V170H132.386V156.776H135.122V158.288C135.57 157.744 136.138 157.32 136.826 157.016C137.53 156.712 138.274 156.56 139.058 156.56ZM151.164 159.008V166.328C151.164 166.824 151.276 167.184 151.5 167.408C151.74 167.616 152.14 167.72 152.7 167.72H154.38V170H152.22C150.988 170 150.044 169.712 149.388 169.136C148.732 168.56 148.404 167.624 148.404 166.328V159.008H146.844V156.776H148.404V153.488H151.164V156.776H154.38V159.008H151.164ZM169.022 163.064C169.022 163.56 168.99 164.008 168.926 164.408H158.822C158.902 165.464 159.294 166.312 159.998 166.952C160.702 167.592 161.566 167.912 162.59 167.912C164.062 167.912 165.102 167.296 165.71 166.064H168.662C168.262 167.28 167.534 168.28 166.478 169.064C165.438 169.832 164.142 170.216 162.59 170.216C161.326 170.216 160.19 169.936 159.182 169.376C158.19 168.8 157.406 168 156.83 166.976C156.27 165.936 155.99 164.736 155.99 163.376C155.99 162.016 156.262 160.824 156.806 159.8C157.366 158.76 158.142 157.96 159.134 157.4C160.142 156.84 161.294 156.56 162.59 156.56C163.838 156.56 164.95 156.832 165.926 157.376C166.902 157.92 167.662 158.688 168.206 159.68C168.75 160.656 169.022 161.784 169.022 163.064ZM166.166 162.2C166.15 161.192 165.79 160.384 165.086 159.776C164.382 159.168 163.51 158.864 162.47 158.864C161.526 158.864 160.718 159.168 160.046 159.776C159.374 160.368 158.974 161.176 158.846 162.2H166.166ZM174.45 158.696C174.85 158.024 175.378 157.504 176.034 157.136C176.706 156.752 177.498 156.56 178.41 156.56V159.392H177.714C176.642 159.392 175.826 159.664 175.266 160.208C174.722 160.752 174.45 161.696 174.45 163.04V170H171.714V156.776H174.45V158.696ZM183.661 158.72C184.125 158.112 184.757 157.6 185.557 157.184C186.357 156.768 187.261 156.56 188.269 156.56C189.421 156.56 190.469 156.848 191.413 157.424C192.373 157.984 193.125 158.776 193.669 159.8C194.213 160.824 194.485 162 194.485 163.328C194.485 164.656 194.213 165.848 193.669 166.904C193.125 167.944 192.373 168.76 191.413 169.352C190.469 169.928 189.421 170.216 188.269 170.216C187.261 170.216 186.365 170.016 185.581 169.616C184.797 169.2 184.157 168.688 183.661 168.08V176.288H180.925V156.776H183.661V158.72ZM191.701 163.328C191.701 162.416 191.509 161.632 191.125 160.976C190.757 160.304 190.261 159.8 189.637 159.464C189.029 159.112 188.373 158.936 187.669 158.936C186.981 158.936 186.325 159.112 185.701 159.464C185.093 159.816 184.597 160.328 184.213 161C183.845 161.672 183.661 162.464 183.661 163.376C183.661 164.288 183.845 165.088 184.213 165.776C184.597 166.448 185.093 166.96 185.701 167.312C186.325 167.664 186.981 167.84 187.669 167.84C188.373 167.84 189.029 167.664 189.637 167.312C190.261 166.944 190.757 166.416 191.125 165.728C191.509 165.04 191.701 164.24 191.701 163.328ZM199.927 158.696C200.327 158.024 200.855 157.504 201.511 157.136C202.183 156.752 202.975 156.56 203.887 156.56V159.392H203.191C202.119 159.392 201.303 159.664 200.743 160.208C200.199 160.752 199.927 161.696 199.927 163.04V170H197.191V156.776H199.927V158.696ZM207.794 155.024C207.298 155.024 206.882 154.856 206.546 154.52C206.21 154.184 206.042 153.768 206.042 153.272C206.042 152.776 206.21 152.36 206.546 152.024C206.882 151.688 207.298 151.52 207.794 151.52C208.274 151.52 208.682 151.688 209.018 152.024C209.354 152.36 209.522 152.776 209.522 153.272C209.522 153.768 209.354 154.184 209.018 154.52C208.682 154.856 208.274 155.024 207.794 155.024ZM209.138 156.776V170H206.402V156.776H209.138ZM217.53 170.216C216.49 170.216 215.554 170.032 214.722 169.664C213.906 169.28 213.258 168.768 212.778 168.128C212.298 167.472 212.042 166.744 212.01 165.944H214.842C214.89 166.504 215.154 166.976 215.634 167.36C216.13 167.728 216.746 167.912 217.482 167.912C218.25 167.912 218.842 167.768 219.258 167.48C219.69 167.176 219.906 166.792 219.906 166.328C219.906 165.832 219.666 165.464 219.186 165.224C218.722 164.984 217.978 164.72 216.954 164.432C215.962 164.16 215.154 163.896 214.53 163.64C213.906 163.384 213.362 162.992 212.898 162.464C212.45 161.936 212.226 161.24 212.226 160.376C212.226 159.672 212.434 159.032 212.85 158.456C213.266 157.864 213.858 157.4 214.626 157.064C215.41 156.728 216.306 156.56 217.314 156.56C218.818 156.56 220.026 156.944 220.938 157.712C221.866 158.464 222.362 159.496 222.426 160.808H219.69C219.642 160.216 219.402 159.744 218.97 159.392C218.538 159.04 217.954 158.864 217.218 158.864C216.498 158.864 215.946 159 215.562 159.272C215.178 159.544 214.986 159.904 214.986 160.352C214.986 160.704 215.114 161 215.37 161.24C215.626 161.48 215.938 161.672 216.306 161.816C216.674 161.944 217.218 162.112 217.938 162.32C218.898 162.576 219.682 162.84 220.29 163.112C220.914 163.368 221.45 163.752 221.898 164.264C222.346 164.776 222.578 165.456 222.594 166.304C222.594 167.056 222.386 167.728 221.97 168.32C221.554 168.912 220.962 169.376 220.194 169.712C219.442 170.048 218.554 170.216 217.53 170.216ZM237.67 163.064C237.67 163.56 237.638 164.008 237.574 164.408H227.47C227.55 165.464 227.942 166.312 228.646 166.952C229.35 167.592 230.214 167.912 231.238 167.912C232.71 167.912 233.75 167.296 234.358 166.064H237.31C236.91 167.28 236.182 168.28 235.126 169.064C234.086 169.832 232.79 170.216 231.238 170.216C229.974 170.216 228.838 169.936 227.83 169.376C226.838 168.8 226.054 168 225.478 166.976C224.918 165.936 224.638 164.736 224.638 163.376C224.638 162.016 224.91 160.824 225.454 159.8C226.014 158.76 226.79 157.96 227.782 157.4C228.79 156.84 229.942 156.56 231.238 156.56C232.486 156.56 233.598 156.832 234.574 157.376C235.55 157.92 236.31 158.688 236.854 159.68C237.398 160.656 237.67 161.784 237.67 163.064ZM234.814 162.2C234.798 161.192 234.438 160.384 233.734 159.776C233.03 159.168 232.158 158.864 231.118 158.864C230.174 158.864 229.366 159.168 228.694 159.776C228.022 160.368 227.622 161.176 227.494 162.2H234.814Z" fill="#0052CC"/>
</g>
<g clip-path="url(#clip2_411_2297)">
<path d="M130.686 263.405H122.937V268.008C123.261 267.576 123.739 267.214 124.371 266.921C125.019 266.628 125.705 266.481 126.43 266.481C127.725 266.481 128.774 266.759 129.576 267.314C130.393 267.869 130.971 268.571 131.31 269.419C131.665 270.267 131.842 271.161 131.842 272.102C131.842 273.243 131.619 274.261 131.172 275.155C130.74 276.034 130.084 276.728 129.206 277.237C128.342 277.746 127.278 278 126.014 278C124.333 278 122.984 277.584 121.966 276.751C120.948 275.918 120.339 274.816 120.139 273.443H122.706C122.876 274.168 123.253 274.746 123.839 275.178C124.425 275.595 125.158 275.803 126.037 275.803C127.132 275.803 127.949 275.471 128.488 274.808C129.044 274.145 129.321 273.266 129.321 272.171C129.321 271.061 129.044 270.213 128.488 269.627C127.933 269.026 127.116 268.725 126.037 268.725C125.281 268.725 124.641 268.918 124.117 269.303C123.608 269.673 123.238 270.182 123.007 270.83H120.509V261.092H130.686V263.405ZM137.825 274.831L135.027 281.215H133.315L134.957 274.831H137.825ZM139.782 269.35C139.782 266.682 140.229 264.6 141.124 263.104C142.034 261.593 143.591 260.838 145.796 260.838C148.001 260.838 149.551 261.593 150.445 263.104C151.355 264.6 151.81 266.682 151.81 269.35C151.81 272.048 151.355 274.16 150.445 275.687C149.551 277.198 148.001 277.954 145.796 277.954C143.591 277.954 142.034 277.198 141.124 275.687C140.229 274.16 139.782 272.048 139.782 269.35ZM149.219 269.35C149.219 268.1 149.134 267.044 148.965 266.181C148.811 265.317 148.487 264.616 147.993 264.076C147.5 263.521 146.767 263.243 145.796 263.243C144.825 263.243 144.092 263.521 143.599 264.076C143.105 264.616 142.774 265.317 142.604 266.181C142.45 267.044 142.373 268.1 142.373 269.35C142.373 270.645 142.45 271.732 142.604 272.611C142.758 273.49 143.082 274.199 143.576 274.739C144.084 275.278 144.825 275.548 145.796 275.548C146.767 275.548 147.5 275.278 147.993 274.739C148.502 274.199 148.834 273.49 148.988 272.611C149.142 271.732 149.219 270.645 149.219 269.35ZM154.6 269.35C154.6 266.682 155.047 264.6 155.941 263.104C156.851 261.593 158.408 260.838 160.613 260.838C162.818 260.838 164.368 261.593 165.263 263.104C166.172 264.6 166.627 266.682 166.627 269.35C166.627 272.048 166.172 274.16 165.263 275.687C164.368 277.198 162.818 277.954 160.613 277.954C158.408 277.954 156.851 277.198 155.941 275.687C155.047 274.16 154.6 272.048 154.6 269.35ZM164.037 269.35C164.037 268.1 163.952 267.044 163.782 266.181C163.628 265.317 163.304 264.616 162.811 264.076C162.317 263.521 161.585 263.243 160.613 263.243C159.642 263.243 158.91 263.521 158.416 264.076C157.923 264.616 157.591 265.317 157.422 266.181C157.267 267.044 157.19 268.1 157.19 269.35C157.19 270.645 157.267 271.732 157.422 272.611C157.576 273.49 157.9 274.199 158.393 274.739C158.902 275.278 159.642 275.548 160.613 275.548C161.585 275.548 162.317 275.278 162.811 274.739C163.32 274.199 163.651 273.49 163.805 272.611C163.96 271.732 164.037 270.645 164.037 269.35ZM172.655 274.831L169.857 281.215H168.145L169.787 274.831H172.655ZM174.612 269.35C174.612 266.682 175.059 264.6 175.954 263.104C176.864 261.593 178.421 260.838 180.626 260.838C182.831 260.838 184.381 261.593 185.275 263.104C186.185 264.6 186.64 266.682 186.64 269.35C186.64 272.048 186.185 274.16 185.275 275.687C184.381 277.198 182.831 277.954 180.626 277.954C178.421 277.954 176.864 277.198 175.954 275.687C175.059 274.16 174.612 272.048 174.612 269.35ZM184.049 269.35C184.049 268.1 183.964 267.044 183.795 266.181C183.641 265.317 183.317 264.616 182.823 264.076C182.33 263.521 181.597 263.243 180.626 263.243C179.655 263.243 178.922 263.521 178.429 264.076C177.935 264.616 177.604 265.317 177.434 266.181C177.28 267.044 177.203 268.1 177.203 269.35C177.203 270.645 177.28 271.732 177.434 272.611C177.588 273.49 177.912 274.199 178.406 274.739C178.914 275.278 179.655 275.548 180.626 275.548C181.597 275.548 182.33 275.278 182.823 274.739C183.332 274.199 183.664 273.49 183.818 272.611C183.972 271.732 184.049 270.645 184.049 269.35ZM189.43 269.35C189.43 266.682 189.877 264.6 190.771 263.104C191.681 261.593 193.238 260.838 195.443 260.838C197.649 260.838 199.198 261.593 200.093 263.104C201.002 264.6 201.457 266.682 201.457 269.35C201.457 272.048 201.002 274.16 200.093 275.687C199.198 277.198 197.649 277.954 195.443 277.954C193.238 277.954 191.681 277.198 190.771 275.687C189.877 274.16 189.43 272.048 189.43 269.35ZM198.867 269.35C198.867 268.1 198.782 267.044 198.612 266.181C198.458 265.317 198.134 264.616 197.641 264.076C197.147 263.521 196.415 263.243 195.443 263.243C194.472 263.243 193.74 263.521 193.246 264.076C192.753 264.616 192.421 265.317 192.252 266.181C192.097 267.044 192.02 268.1 192.02 269.35C192.02 270.645 192.097 271.732 192.252 272.611C192.406 273.49 192.73 274.199 193.223 274.739C193.732 275.278 194.472 275.548 195.443 275.548C196.415 275.548 197.147 275.278 197.641 274.739C198.15 274.199 198.481 273.49 198.635 272.611C198.79 271.732 198.867 270.645 198.867 269.35ZM204.247 269.35C204.247 266.682 204.694 264.6 205.589 263.104C206.499 261.593 208.056 260.838 210.261 260.838C212.466 260.838 214.016 261.593 214.91 263.104C215.82 264.6 216.275 266.682 216.275 269.35C216.275 272.048 215.82 274.16 214.91 275.687C214.016 277.198 212.466 277.954 210.261 277.954C208.056 277.954 206.499 277.198 205.589 275.687C204.694 274.16 204.247 272.048 204.247 269.35ZM213.684 269.35C213.684 268.1 213.599 267.044 213.43 266.181C213.276 265.317 212.952 264.616 212.458 264.076C211.965 263.521 211.232 263.243 210.261 263.243C209.289 263.243 208.557 263.521 208.064 264.076C207.57 264.616 207.239 265.317 207.069 266.181C206.915 267.044 206.838 268.1 206.838 269.35C206.838 270.645 206.915 271.732 207.069 272.611C207.223 273.49 207.547 274.199 208.04 274.739C208.549 275.278 209.289 275.548 210.261 275.548C211.232 275.548 211.965 275.278 212.458 274.739C212.967 274.199 213.299 273.49 213.453 272.611C213.607 271.732 213.684 270.645 213.684 269.35ZM230.717 278.162C229.637 278.162 228.666 277.977 227.802 277.607C226.939 277.221 226.26 276.682 225.767 275.988C225.273 275.294 225.027 274.484 225.027 273.559H227.849C227.91 274.253 228.18 274.824 228.658 275.271C229.151 275.718 229.838 275.941 230.717 275.941C231.626 275.941 232.336 275.726 232.845 275.294C233.353 274.847 233.608 274.276 233.608 273.582C233.608 273.043 233.446 272.603 233.122 272.264C232.814 271.925 232.42 271.662 231.942 271.477C231.48 271.292 230.832 271.092 230 270.876C228.951 270.599 228.095 270.321 227.432 270.043C226.785 269.75 226.229 269.303 225.767 268.702C225.304 268.1 225.073 267.299 225.073 266.296C225.073 265.371 225.304 264.562 225.767 263.868C226.229 263.174 226.877 262.642 227.71 262.272C228.542 261.902 229.506 261.717 230.601 261.717C232.158 261.717 233.43 262.11 234.417 262.896C235.42 263.667 235.975 264.731 236.083 266.088H233.168C233.122 265.502 232.845 265.001 232.336 264.585C231.827 264.168 231.156 263.96 230.323 263.96C229.568 263.96 228.951 264.153 228.473 264.539C227.995 264.924 227.756 265.479 227.756 266.204C227.756 266.697 227.902 267.106 228.195 267.43C228.504 267.738 228.889 267.985 229.352 268.17C229.815 268.355 230.447 268.555 231.249 268.771C232.313 269.064 233.176 269.357 233.839 269.65C234.518 269.943 235.088 270.398 235.551 271.015C236.029 271.616 236.268 272.426 236.268 273.443C236.268 274.261 236.044 275.032 235.597 275.756C235.165 276.481 234.525 277.067 233.677 277.514C232.845 277.946 231.858 278.162 230.717 278.162ZM256.31 261.925V278H253.673V266.99L248.77 278H246.942L242.016 266.99V278H239.379V261.925H242.224L247.868 274.531L253.488 261.925H256.31ZM265.072 278.162C263.993 278.162 263.021 277.977 262.158 277.607C261.294 277.221 260.616 276.682 260.123 275.988C259.629 275.294 259.382 274.484 259.382 273.559H262.204C262.266 274.253 262.536 274.824 263.014 275.271C263.507 275.718 264.193 275.941 265.072 275.941C265.982 275.941 266.691 275.726 267.2 275.294C267.709 274.847 267.964 274.276 267.964 273.582C267.964 273.043 267.802 272.603 267.478 272.264C267.169 271.925 266.776 271.662 266.298 271.477C265.836 271.292 265.188 271.092 264.355 270.876C263.307 270.599 262.451 270.321 261.788 270.043C261.14 269.75 260.585 269.303 260.123 268.702C259.66 268.1 259.429 267.299 259.429 266.296C259.429 265.371 259.66 264.562 260.123 263.868C260.585 263.174 261.233 262.642 262.065 262.272C262.898 261.902 263.862 261.717 264.957 261.717C266.514 261.717 267.786 262.11 268.773 262.896C269.775 263.667 270.33 264.731 270.438 266.088H267.524C267.478 265.502 267.2 265.001 266.691 264.585C266.183 264.168 265.512 263.96 264.679 263.96C263.924 263.96 263.307 264.153 262.829 264.539C262.351 264.924 262.112 265.479 262.112 266.204C262.112 266.697 262.258 267.106 262.551 267.43C262.86 267.738 263.245 267.985 263.708 268.17C264.17 268.355 264.802 268.555 265.604 268.771C266.668 269.064 267.532 269.357 268.195 269.65C268.873 269.943 269.444 270.398 269.906 271.015C270.384 271.616 270.623 272.426 270.623 273.443C270.623 274.261 270.4 275.032 269.953 275.756C269.521 276.481 268.881 277.067 268.033 277.514C267.2 277.946 266.213 278.162 265.072 278.162Z" fill="#0052CC"/>
</g>
<mask id="mask0_411_2297" style="mask-type:alpha" maskUnits="userSpaceOnUse" x="322" y="220" width="87" height="87">
<rect x="322" y="220" width="87" height="87" fill="#D9D9D9"/>
</mask>
<g mask="url(#mask0_411_2297)">
<path d="M344.113 280.537L338.585 286.066C337.739 286.911 336.757 287.108 335.639 286.655C334.522 286.202 333.963 285.371 333.963 284.162V237.4C333.963 235.829 334.476 234.53 335.504 233.503C336.531 232.476 337.83 231.962 339.4 231.962H391.6C393.171 231.962 394.47 232.476 395.497 233.503C396.524 234.53 397.038 235.829 397.038 237.4V275.1C397.038 276.671 396.524 277.97 395.497 278.997C394.47 280.024 393.171 280.537 391.6 280.537H344.113ZM343.025 278H391.6C392.325 278 392.99 277.698 393.594 277.094C394.198 276.49 394.5 275.825 394.5 275.1V237.4C394.5 236.675 394.198 236.01 393.594 235.406C392.99 234.802 392.325 234.5 391.6 234.5H339.4C338.675 234.5 338.011 234.802 337.407 235.406C336.802 236.01 336.5 236.675 336.5 237.4V284.525L343.025 278ZM351 258.787C351.665 258.787 352.254 258.531 352.768 258.017C353.281 257.504 353.538 256.915 353.538 256.25C353.538 255.585 353.281 254.996 352.768 254.483C352.254 253.969 351.665 253.712 351 253.712C350.336 253.712 349.747 253.969 349.233 254.483C348.72 254.996 348.463 255.585 348.463 256.25C348.463 256.915 348.72 257.504 349.233 258.017C349.747 258.531 350.336 258.787 351 258.787ZM365.5 258.787C366.165 258.787 366.754 258.531 367.268 258.017C367.781 257.504 368.038 256.915 368.038 256.25C368.038 255.585 367.781 254.996 367.268 254.483C366.754 253.969 366.165 253.712 365.5 253.712C364.836 253.712 364.247 253.969 363.733 254.483C363.22 254.996 362.963 255.585 362.963 256.25C362.963 256.915 363.22 257.504 363.733 258.017C364.247 258.531 364.836 258.787 365.5 258.787ZM380 258.787C380.665 258.787 381.254 258.531 381.768 258.017C382.281 257.504 382.538 256.915 382.538 256.25C382.538 255.585 382.281 254.996 381.768 254.483C381.254 253.969 380.665 253.712 380 253.712C379.336 253.712 378.747 253.969 378.233 254.483C377.72 254.996 377.463 255.585 377.463 256.25C377.463 256.915 377.72 257.504 378.233 258.017C378.747 258.531 379.336 258.787 380 258.787Z" fill="#D1DAFF"/>
</g>
<path d="M395 0V71.7504C395 88.4359 381.474 101.962 364.788 101.962H101.212C84.5263 101.962 71 115.489 71 132.174V193" stroke="url(#paint1_linear_411_2297)" stroke-width="4.87288"/>
<g clip-path="url(#clip3_411_2297)">
<path d="M118.532 186.04V184.878H121.164V195H119.876V186.04H118.532ZM123.198 193.978C124.384 193.026 125.312 192.247 125.984 191.64C126.656 191.024 127.221 190.385 127.678 189.722C128.145 189.05 128.378 188.392 128.378 187.748C128.378 187.141 128.229 186.665 127.93 186.32C127.641 185.965 127.17 185.788 126.516 185.788C125.882 185.788 125.387 185.989 125.032 186.39C124.687 186.782 124.5 187.309 124.472 187.972H123.24C123.278 186.927 123.595 186.119 124.192 185.55C124.79 184.981 125.56 184.696 126.502 184.696C127.464 184.696 128.224 184.962 128.784 185.494C129.354 186.026 129.638 186.759 129.638 187.692C129.638 188.467 129.405 189.223 128.938 189.96C128.481 190.688 127.958 191.332 127.37 191.892C126.782 192.443 126.031 193.087 125.116 193.824H129.932V194.888H123.198V193.978ZM131.405 189.834C131.405 188.229 131.666 186.978 132.189 186.082C132.712 185.177 133.626 184.724 134.933 184.724C136.23 184.724 137.14 185.177 137.663 186.082C138.186 186.978 138.447 188.229 138.447 189.834C138.447 191.467 138.186 192.737 137.663 193.642C137.14 194.547 136.23 195 134.933 195C133.626 195 132.712 194.547 132.189 193.642C131.666 192.737 131.405 191.467 131.405 189.834ZM137.187 189.834C137.187 189.022 137.131 188.336 137.019 187.776C136.916 187.207 136.697 186.749 136.361 186.404C136.034 186.059 135.558 185.886 134.933 185.886C134.298 185.886 133.813 186.059 133.477 186.404C133.15 186.749 132.931 187.207 132.819 187.776C132.716 188.336 132.665 189.022 132.665 189.834C132.665 190.674 132.716 191.379 132.819 191.948C132.931 192.517 133.15 192.975 133.477 193.32C133.813 193.665 134.298 193.838 134.933 193.838C135.558 193.838 136.034 193.665 136.361 193.32C136.697 192.975 136.916 192.517 137.019 191.948C137.131 191.379 137.187 190.674 137.187 189.834ZM140.196 189.834C140.196 188.229 140.457 186.978 140.98 186.082C141.503 185.177 142.417 184.724 143.724 184.724C145.021 184.724 145.931 185.177 146.454 186.082C146.977 186.978 147.238 188.229 147.238 189.834C147.238 191.467 146.977 192.737 146.454 193.642C145.931 194.547 145.021 195 143.724 195C142.417 195 141.503 194.547 140.98 193.642C140.457 192.737 140.196 191.467 140.196 189.834ZM145.978 189.834C145.978 189.022 145.922 188.336 145.81 187.776C145.707 187.207 145.488 186.749 145.152 186.404C144.825 186.059 144.349 185.886 143.724 185.886C143.089 185.886 142.604 186.059 142.268 186.404C141.941 186.749 141.722 187.207 141.61 187.776C141.507 188.336 141.456 189.022 141.456 189.834C141.456 190.674 141.507 191.379 141.61 191.948C141.722 192.517 141.941 192.975 142.268 193.32C142.604 193.665 143.089 193.838 143.724 193.838C144.349 193.838 144.825 193.665 145.152 193.32C145.488 192.975 145.707 192.517 145.81 191.948C145.922 191.379 145.978 190.674 145.978 189.834ZM162.828 185.312V195H161.554V187.776L158.334 195H157.438L154.204 187.762V195H152.93V185.312H154.302L157.886 193.32L161.47 185.312H162.828ZM171.988 190.87C171.988 191.113 171.974 191.369 171.946 191.64H165.814C165.861 192.396 166.117 192.989 166.584 193.418C167.06 193.838 167.634 194.048 168.306 194.048C168.857 194.048 169.314 193.922 169.678 193.67C170.051 193.409 170.313 193.063 170.462 192.634H171.834C171.629 193.371 171.218 193.973 170.602 194.44C169.986 194.897 169.221 195.126 168.306 195.126C167.578 195.126 166.925 194.963 166.346 194.636C165.777 194.309 165.329 193.847 165.002 193.25C164.675 192.643 164.512 191.943 164.512 191.15C164.512 190.357 164.671 189.661 164.988 189.064C165.305 188.467 165.749 188.009 166.318 187.692C166.897 187.365 167.559 187.202 168.306 187.202C169.034 187.202 169.678 187.361 170.238 187.678C170.798 187.995 171.227 188.434 171.526 188.994C171.834 189.545 171.988 190.17 171.988 190.87ZM170.672 190.604C170.672 190.119 170.565 189.703 170.35 189.358C170.135 189.003 169.841 188.737 169.468 188.56C169.104 188.373 168.698 188.28 168.25 188.28C167.606 188.28 167.055 188.485 166.598 188.896C166.15 189.307 165.893 189.876 165.828 190.604H170.672ZM176.386 195.126C175.798 195.126 175.27 195.028 174.804 194.832C174.337 194.627 173.968 194.347 173.698 193.992C173.427 193.628 173.278 193.213 173.25 192.746H174.566C174.603 193.129 174.78 193.441 175.098 193.684C175.424 193.927 175.849 194.048 176.372 194.048C176.857 194.048 177.24 193.941 177.52 193.726C177.8 193.511 177.94 193.241 177.94 192.914C177.94 192.578 177.79 192.331 177.492 192.172C177.193 192.004 176.731 191.841 176.106 191.682C175.536 191.533 175.07 191.383 174.706 191.234C174.351 191.075 174.043 190.847 173.782 190.548C173.53 190.24 173.404 189.839 173.404 189.344C173.404 188.952 173.52 188.593 173.754 188.266C173.987 187.939 174.318 187.683 174.748 187.496C175.177 187.3 175.667 187.202 176.218 187.202C177.067 187.202 177.753 187.417 178.276 187.846C178.798 188.275 179.078 188.863 179.116 189.61H177.842C177.814 189.209 177.65 188.887 177.352 188.644C177.062 188.401 176.67 188.28 176.176 188.28C175.718 188.28 175.354 188.378 175.084 188.574C174.813 188.77 174.678 189.027 174.678 189.344C174.678 189.596 174.757 189.806 174.916 189.974C175.084 190.133 175.289 190.263 175.532 190.366C175.784 190.459 176.129 190.567 176.568 190.688C177.118 190.837 177.566 190.987 177.912 191.136C178.257 191.276 178.551 191.491 178.794 191.78C179.046 192.069 179.176 192.447 179.186 192.914C179.186 193.334 179.069 193.712 178.836 194.048C178.602 194.384 178.271 194.65 177.842 194.846C177.422 195.033 176.936 195.126 176.386 195.126ZM183.7 195.126C183.112 195.126 182.585 195.028 182.118 194.832C181.652 194.627 181.283 194.347 181.012 193.992C180.742 193.628 180.592 193.213 180.564 192.746H181.88C181.918 193.129 182.095 193.441 182.412 193.684C182.739 193.927 183.164 194.048 183.686 194.048C184.172 194.048 184.554 193.941 184.834 193.726C185.114 193.511 185.254 193.241 185.254 192.914C185.254 192.578 185.105 192.331 184.806 192.172C184.508 192.004 184.046 191.841 183.42 191.682C182.851 191.533 182.384 191.383 182.02 191.234C181.666 191.075 181.358 190.847 181.096 190.548C180.844 190.24 180.718 189.839 180.718 189.344C180.718 188.952 180.835 188.593 181.068 188.266C181.302 187.939 181.633 187.683 182.062 187.496C182.492 187.3 182.982 187.202 183.532 187.202C184.382 187.202 185.068 187.417 185.59 187.846C186.113 188.275 186.393 188.863 186.43 189.61H185.156C185.128 189.209 184.965 188.887 184.666 188.644C184.377 188.401 183.985 188.28 183.49 188.28C183.033 188.28 182.669 188.378 182.398 188.574C182.128 188.77 181.992 189.027 181.992 189.344C181.992 189.596 182.072 189.806 182.23 189.974C182.398 190.133 182.604 190.263 182.846 190.366C183.098 190.459 183.444 190.567 183.882 190.688C184.433 190.837 184.881 190.987 185.226 191.136C185.572 191.276 185.866 191.491 186.108 191.78C186.36 192.069 186.491 192.447 186.5 192.914C186.5 193.334 186.384 193.712 186.15 194.048C185.917 194.384 185.586 194.65 185.156 194.846C184.736 195.033 184.251 195.126 183.7 195.126ZM187.823 191.136C187.823 190.352 187.981 189.666 188.299 189.078C188.616 188.481 189.05 188.019 189.601 187.692C190.161 187.365 190.781 187.202 191.463 187.202C192.135 187.202 192.718 187.347 193.213 187.636C193.707 187.925 194.076 188.289 194.319 188.728V187.328H195.607V195H194.319V193.572C194.067 194.02 193.689 194.393 193.185 194.692C192.69 194.981 192.111 195.126 191.449 195.126C190.767 195.126 190.151 194.958 189.601 194.622C189.05 194.286 188.616 193.815 188.299 193.208C187.981 192.601 187.823 191.911 187.823 191.136ZM194.319 191.15C194.319 190.571 194.202 190.067 193.969 189.638C193.735 189.209 193.418 188.882 193.017 188.658C192.625 188.425 192.191 188.308 191.715 188.308C191.239 188.308 190.805 188.42 190.413 188.644C190.021 188.868 189.708 189.195 189.475 189.624C189.241 190.053 189.125 190.557 189.125 191.136C189.125 191.724 189.241 192.237 189.475 192.676C189.708 193.105 190.021 193.437 190.413 193.67C190.805 193.894 191.239 194.006 191.715 194.006C192.191 194.006 192.625 193.894 193.017 193.67C193.418 193.437 193.735 193.105 193.969 192.676C194.202 192.237 194.319 191.729 194.319 191.15ZM200.924 187.202C201.586 187.202 202.165 187.347 202.66 187.636C203.164 187.925 203.537 188.289 203.78 188.728V187.328H205.068V195.168C205.068 195.868 204.918 196.489 204.62 197.03C204.321 197.581 203.892 198.01 203.332 198.318C202.781 198.626 202.137 198.78 201.4 198.78C200.392 198.78 199.552 198.542 198.88 198.066C198.208 197.59 197.811 196.941 197.69 196.12H198.95C199.09 196.587 199.379 196.96 199.818 197.24C200.256 197.529 200.784 197.674 201.4 197.674C202.1 197.674 202.669 197.455 203.108 197.016C203.556 196.577 203.78 195.961 203.78 195.168V193.558C203.528 194.006 203.154 194.379 202.66 194.678C202.165 194.977 201.586 195.126 200.924 195.126C200.242 195.126 199.622 194.958 199.062 194.622C198.511 194.286 198.077 193.815 197.76 193.208C197.442 192.601 197.284 191.911 197.284 191.136C197.284 190.352 197.442 189.666 197.76 189.078C198.077 188.481 198.511 188.019 199.062 187.692C199.622 187.365 200.242 187.202 200.924 187.202ZM203.78 191.15C203.78 190.571 203.663 190.067 203.43 189.638C203.196 189.209 202.879 188.882 202.478 188.658C202.086 188.425 201.652 188.308 201.176 188.308C200.7 188.308 200.266 188.42 199.874 188.644C199.482 188.868 199.169 189.195 198.936 189.624C198.702 190.053 198.586 190.557 198.586 191.136C198.586 191.724 198.702 192.237 198.936 192.676C199.169 193.105 199.482 193.437 199.874 193.67C200.266 193.894 200.7 194.006 201.176 194.006C201.652 194.006 202.086 193.894 202.478 193.67C202.879 193.437 203.196 193.105 203.43 192.676C203.663 192.237 203.78 191.729 203.78 191.15ZM214.221 190.87C214.221 191.113 214.207 191.369 214.179 191.64H208.047C208.093 192.396 208.35 192.989 208.817 193.418C209.293 193.838 209.867 194.048 210.539 194.048C211.089 194.048 211.547 193.922 211.911 193.67C212.284 193.409 212.545 193.063 212.695 192.634H214.067C213.861 193.371 213.451 193.973 212.835 194.44C212.219 194.897 211.453 195.126 210.539 195.126C209.811 195.126 209.157 194.963 208.579 194.636C208.009 194.309 207.561 193.847 207.235 193.25C206.908 192.643 206.745 191.943 206.745 191.15C206.745 190.357 206.903 189.661 207.221 189.064C207.538 188.467 207.981 188.009 208.551 187.692C209.129 187.365 209.792 187.202 210.539 187.202C211.267 187.202 211.911 187.361 212.471 187.678C213.031 187.995 213.46 188.434 213.759 188.994C214.067 189.545 214.221 190.17 214.221 190.87ZM212.905 190.604C212.905 190.119 212.797 189.703 212.583 189.358C212.368 189.003 212.074 188.737 211.701 188.56C211.337 188.373 210.931 188.28 210.483 188.28C209.839 188.28 209.288 188.485 208.831 188.896C208.383 189.307 208.126 189.876 208.061 190.604H212.905ZM218.618 195.126C218.03 195.126 217.503 195.028 217.036 194.832C216.57 194.627 216.201 194.347 215.93 193.992C215.66 193.628 215.51 193.213 215.482 192.746H216.798C216.836 193.129 217.013 193.441 217.33 193.684C217.657 193.927 218.082 194.048 218.604 194.048C219.09 194.048 219.472 193.941 219.752 193.726C220.032 193.511 220.172 193.241 220.172 192.914C220.172 192.578 220.023 192.331 219.724 192.172C219.426 192.004 218.964 191.841 218.338 191.682C217.769 191.533 217.302 191.383 216.938 191.234C216.584 191.075 216.276 190.847 216.014 190.548C215.762 190.24 215.636 189.839 215.636 189.344C215.636 188.952 215.753 188.593 215.986 188.266C216.22 187.939 216.551 187.683 216.98 187.496C217.41 187.3 217.9 187.202 218.45 187.202C219.3 187.202 219.986 187.417 220.508 187.846C221.031 188.275 221.311 188.863 221.348 189.61H220.074C220.046 189.209 219.883 188.887 219.584 188.644C219.295 188.401 218.903 188.28 218.408 188.28C217.951 188.28 217.587 188.378 217.316 188.574C217.046 188.77 216.91 189.027 216.91 189.344C216.91 189.596 216.99 189.806 217.148 189.974C217.316 190.133 217.522 190.263 217.764 190.366C218.016 190.459 218.362 190.567 218.8 190.688C219.351 190.837 219.799 190.987 220.144 191.136C220.49 191.276 220.784 191.491 221.026 191.78C221.278 192.069 221.409 192.447 221.418 192.914C221.418 193.334 221.302 193.712 221.068 194.048C220.835 194.384 220.504 194.65 220.074 194.846C219.654 195.033 219.169 195.126 218.618 195.126ZM228.223 188.742C228.475 188.303 228.848 187.939 229.343 187.65C229.847 187.351 230.43 187.202 231.093 187.202C231.774 187.202 232.39 187.365 232.941 187.692C233.501 188.019 233.94 188.481 234.257 189.078C234.574 189.666 234.733 190.352 234.733 191.136C234.733 191.911 234.574 192.601 234.257 193.208C233.94 193.815 233.501 194.286 232.941 194.622C232.39 194.958 231.774 195.126 231.093 195.126C230.44 195.126 229.861 194.981 229.357 194.692C228.862 194.393 228.484 194.025 228.223 193.586V198.64H226.949V187.328H228.223V188.742ZM233.431 191.136C233.431 190.557 233.314 190.053 233.081 189.624C232.848 189.195 232.53 188.868 232.129 188.644C231.737 188.42 231.303 188.308 230.827 188.308C230.36 188.308 229.926 188.425 229.525 188.658C229.133 188.882 228.816 189.213 228.573 189.652C228.34 190.081 228.223 190.581 228.223 191.15C228.223 191.729 228.34 192.237 228.573 192.676C228.816 193.105 229.133 193.437 229.525 193.67C229.926 193.894 230.36 194.006 230.827 194.006C231.303 194.006 231.737 193.894 232.129 193.67C232.53 193.437 232.848 193.105 233.081 192.676C233.314 192.237 233.431 191.724 233.431 191.136ZM243.41 190.87C243.41 191.113 243.396 191.369 243.368 191.64H237.236C237.283 192.396 237.539 192.989 238.006 193.418C238.482 193.838 239.056 194.048 239.728 194.048C240.279 194.048 240.736 193.922 241.1 193.67C241.473 193.409 241.735 193.063 241.884 192.634H243.256C243.051 193.371 242.64 193.973 242.024 194.44C241.408 194.897 240.643 195.126 239.728 195.126C239 195.126 238.347 194.963 237.768 194.636C237.199 194.309 236.751 193.847 236.424 193.25C236.097 192.643 235.934 191.943 235.934 191.15C235.934 190.357 236.093 189.661 236.41 189.064C236.727 188.467 237.171 188.009 237.74 187.692C238.319 187.365 238.981 187.202 239.728 187.202C240.456 187.202 241.1 187.361 241.66 187.678C242.22 187.995 242.649 188.434 242.948 188.994C243.256 189.545 243.41 190.17 243.41 190.87ZM242.094 190.604C242.094 190.119 241.987 189.703 241.772 189.358C241.557 189.003 241.263 188.737 240.89 188.56C240.526 188.373 240.12 188.28 239.672 188.28C239.028 188.28 238.477 188.485 238.02 188.896C237.572 189.307 237.315 189.876 237.25 190.604H242.094ZM246.366 188.574C246.59 188.135 246.907 187.795 247.318 187.552C247.738 187.309 248.246 187.188 248.844 187.188V188.504H248.508C247.08 188.504 246.366 189.279 246.366 190.828V195H245.092V187.328H246.366V188.574ZM263.945 185.312V195H262.671V187.776L259.451 195H258.555L255.321 187.762V195H254.047V185.312H255.419L259.003 193.32L262.587 185.312H263.945ZM266.763 186.082C266.521 186.082 266.315 185.998 266.147 185.83C265.979 185.662 265.895 185.457 265.895 185.214C265.895 184.971 265.979 184.766 266.147 184.598C266.315 184.43 266.521 184.346 266.763 184.346C266.997 184.346 267.193 184.43 267.351 184.598C267.519 184.766 267.603 184.971 267.603 185.214C267.603 185.457 267.519 185.662 267.351 185.83C267.193 185.998 266.997 186.082 266.763 186.082ZM267.379 187.328V195H266.105V187.328H267.379ZM273.289 187.188C274.222 187.188 274.978 187.473 275.557 188.042C276.135 188.602 276.425 189.414 276.425 190.478V195H275.165V190.66C275.165 189.895 274.973 189.311 274.591 188.91C274.208 188.499 273.685 188.294 273.023 188.294C272.351 188.294 271.814 188.504 271.413 188.924C271.021 189.344 270.825 189.955 270.825 190.758V195H269.551V187.328H270.825V188.42C271.077 188.028 271.417 187.725 271.847 187.51C272.285 187.295 272.766 187.188 273.289 187.188ZM285.31 187.328V195H284.036V193.866C283.793 194.258 283.452 194.566 283.014 194.79C282.584 195.005 282.108 195.112 281.586 195.112C280.988 195.112 280.452 194.991 279.976 194.748C279.5 194.496 279.122 194.123 278.842 193.628C278.571 193.133 278.436 192.531 278.436 191.822V187.328H279.696V191.654C279.696 192.41 279.887 192.993 280.27 193.404C280.652 193.805 281.175 194.006 281.838 194.006C282.519 194.006 283.056 193.796 283.448 193.376C283.84 192.956 284.036 192.345 284.036 191.542V187.328H285.31ZM289.015 188.378V192.9C289.015 193.273 289.094 193.539 289.253 193.698C289.411 193.847 289.687 193.922 290.079 193.922H291.017V195H289.869C289.159 195 288.627 194.837 288.273 194.51C287.918 194.183 287.741 193.647 287.741 192.9V188.378H286.747V187.328H287.741V185.396H289.015V187.328H291.017V188.378H289.015ZM299.56 190.87C299.56 191.113 299.546 191.369 299.518 191.64H293.386C293.433 192.396 293.69 192.989 294.156 193.418C294.632 193.838 295.206 194.048 295.878 194.048C296.429 194.048 296.886 193.922 297.25 193.67C297.624 193.409 297.885 193.063 298.034 192.634H299.406C299.201 193.371 298.79 193.973 298.174 194.44C297.558 194.897 296.793 195.126 295.878 195.126C295.15 195.126 294.497 194.963 293.918 194.636C293.349 194.309 292.901 193.847 292.574 193.25C292.248 192.643 292.084 191.943 292.084 191.15C292.084 190.357 292.243 189.661 292.56 189.064C292.878 188.467 293.321 188.009 293.89 187.692C294.469 187.365 295.132 187.202 295.878 187.202C296.606 187.202 297.25 187.361 297.81 187.678C298.37 187.995 298.8 188.434 299.098 188.994C299.406 189.545 299.56 190.17 299.56 190.87ZM298.244 190.604C298.244 190.119 298.137 189.703 297.922 189.358C297.708 189.003 297.414 188.737 297.04 188.56C296.676 188.373 296.27 188.28 295.822 188.28C295.178 188.28 294.628 188.485 294.17 188.896C293.722 189.307 293.466 189.876 293.4 190.604H298.244Z" fill="#555555"/>
</g>
</g>
<defs>
<filter id="filter0_d_411_2297" x="70.5" y="107.5" width="378" height="224" filterUnits="userSpaceOnUse" color-interpolation-filters="sRGB">
<feFlood flood-opacity="0" result="BackgroundImageFix"/>
<feColorMatrix in="SourceAlpha" type="matrix" values="0 0 0 0 0 0 0 0 0 0 0 0 0 0 0 0 0 0 127 0" result="hardAlpha"/>
<feMorphology radius="18" operator="erode" in="SourceAlpha" result="effect1_dropShadow_411_2297"/>
<feOffset/>
<feGaussianBlur stdDeviation="19.25"/>
<feComposite in2="hardAlpha" operator="out"/>
<feColorMatrix type="matrix" values="0 0 0 0 0 0 0 0 0 0.321569 0 0 0 0 0.8 0 0 0 1 0"/>
<feBlend mode="normal" in2="BackgroundImageFix" result="effect1_dropShadow_411_2297"/>
<feBlend mode="normal" in="SourceGraphic" in2="effect1_dropShadow_411_2297" result="shape"/>
</filter>
<linearGradient id="paint0_linear_411_2297" x1="467" y1="432.648" x2="305.029" y2="151.24" gradientUnits="userSpaceOnUse">
<stop stop-color="#0052CC"/>
<stop offset="1" stop-color="#F4F4F4"/>
</linearGradient>
<linearGradient id="paint1_linear_411_2297" x1="395" y1="-2.64839" x2="233.029" y2="278.76" gradientUnits="userSpaceOnUse">
<stop stop-color="#0052CC"/>
<stop offset="1" stop-color="#F4F4F4"/>
</linearGradient>
<clipPath id="clip0_411_2297">
<rect width="578" height="429" fill="white"/>
</clipPath>
<clipPath id="clip1_411_2297">
<rect width="121" height="36" fill="white" transform="translate(118 144)"/>
</clipPath>
<clipPath id="clip2_411_2297">
<rect width="154" height="35" fill="white" transform="translate(118 252)"/>
</clipPath>
<clipPath id="clip3_411_2297">
<rect width="187" height="23" fill="white" transform="translate(118 180)"/>
</clipPath>
</defs>
</svg>
