<svg width="48" height="48" viewBox="0 0 48 48" fill="none" xmlns="http://www.w3.org/2000/svg">
<rect width="48" height="48" rx="13" fill="#0052CC"/>
<mask id="mask0_1311_2357" style="mask-type:alpha" maskUnits="userSpaceOnUse" x="12" y="12" width="24" height="24">
<rect x="12" y="12" width="24" height="24" fill="#D9D9D9"/>
</mask>
<g mask="url(#mask0_1311_2357)">
<path d="M20 21C20.2833 21 20.5208 20.9042 20.7125 20.7125C20.9042 20.5208 21 20.2833 21 20C21 19.7167 20.9042 19.4792 20.7125 19.2875C20.5208 19.0958 20.2833 19 20 19C19.7167 19 19.4792 19.0958 19.2875 19.2875C19.0958 19.4792 19 19.7167 19 20C19 20.2833 19.0958 20.5208 19.2875 20.7125C19.4792 20.9042 19.7167 21 20 21ZM20 25C20.2833 25 20.5208 24.9042 20.7125 24.7125C20.9042 24.5208 21 24.2833 21 24C21 23.7167 20.9042 23.4792 20.7125 23.2875C20.5208 23.0958 20.2833 23 20 23C19.7167 23 19.4792 23.0958 19.2875 23.2875C19.0958 23.4792 19 23.7167 19 24C19 24.2833 19.0958 24.5208 19.2875 24.7125C19.4792 24.9042 19.7167 25 20 25ZM20 29C20.2833 29 20.5208 28.9042 20.7125 28.7125C20.9042 28.5208 21 28.2833 21 28C21 27.7167 20.9042 27.4792 20.7125 27.2875C20.5208 27.0958 20.2833 27 20 27C19.7167 27 19.4792 27.0958 19.2875 27.2875C19.0958 27.4792 19 27.7167 19 28C19 28.2833 19.0958 28.5208 19.2875 28.7125C19.4792 28.9042 19.7167 29 20 29ZM17 33C16.45 33 15.9792 32.8042 15.5875 32.4125C15.1958 32.0208 15 31.55 15 31V17C15 16.45 15.1958 15.9792 15.5875 15.5875C15.9792 15.1958 16.45 15 17 15H27.175C27.4417 15 27.6958 15.05 27.9375 15.15C28.1792 15.25 28.3917 15.3917 28.575 15.575L32.425 19.425C32.6083 19.6083 32.75 19.8208 32.85 20.0625C32.95 20.3042 33 20.5583 33 20.825V31C33 31.55 32.8042 32.0208 32.4125 32.4125C32.0208 32.8042 31.55 33 31 33H17ZM17 31H31V21H28C27.7167 21 27.4792 20.9042 27.2875 20.7125C27.0958 20.5208 27 20.2833 27 20V17H17V31Z" fill="white"/>
</g>
</svg>
