<svg width="48" height="48" viewBox="0 0 48 48" fill="none" xmlns="http://www.w3.org/2000/svg">
<rect width="48" height="48" rx="13" fill="#0052CC"/>
<mask id="mask0_1699_3816" style="mask-type:alpha" maskUnits="userSpaceOnUse" x="12" y="12" width="24" height="24">
<rect x="12" y="12" width="24" height="24" fill="#D9D9D9"/>
</mask>
<g mask="url(#mask0_1699_3816)">
<path d="M22.0001 33C21.7168 33 21.4793 32.9042 21.2876 32.7125C21.0959 32.5209 21.0001 32.2834 21.0001 32V18.825L20.1001 19.7C19.9168 19.8834 19.6834 19.975 19.4001 19.975C19.1168 19.975 18.8834 19.8834 18.7001 19.7C18.5001 19.5 18.4043 19.2625 18.4126 18.9875C18.4209 18.7125 18.5168 18.4834 18.7001 18.3L21.3001 15.7C21.5001 15.5 21.7334 15.4 22.0001 15.4C22.2668 15.4 22.5001 15.5 22.7001 15.7L25.3001 18.3C25.5001 18.5 25.5959 18.7334 25.5876 19C25.5793 19.2667 25.4834 19.5 25.3001 19.7C25.1001 19.9 24.8668 20.0042 24.6001 20.0125C24.3334 20.0209 24.1001 19.925 23.9001 19.725L23.0001 18.825V25.35C23.5834 24.8334 24.2418 24.4625 24.9751 24.2375C25.7084 24.0125 26.4418 23.9 27.1751 23.9C27.3584 23.9 27.5334 23.9084 27.7001 23.925C27.8668 23.9417 28.0251 23.9667 28.1751 24L27.3001 23.1C27.1168 22.9167 27.0251 22.6834 27.0251 22.4C27.0251 22.1167 27.1168 21.8834 27.3001 21.7C27.5001 21.5 27.7376 21.4042 28.0126 21.4125C28.2876 21.4209 28.5168 21.5167 28.7001 21.7L31.3001 24.3C31.5001 24.5 31.6001 24.7334 31.6001 25C31.6001 25.2667 31.5001 25.5 31.3001 25.7L28.7001 28.3C28.5168 28.4834 28.2834 28.575 28.0001 28.575C27.7168 28.575 27.4834 28.4834 27.3001 28.3C27.1001 28.1 27.0001 27.8625 27.0001 27.5875C27.0001 27.3125 27.0918 27.0834 27.2751 26.9L28.1751 26C27.9918 25.9667 27.8084 25.9375 27.6251 25.9125C27.4418 25.8875 27.2584 25.875 27.0751 25.875C26.1751 25.875 25.3459 26.1292 24.5876 26.6375C23.8293 27.1459 23.3001 27.9334 23.0001 29V32C23.0001 32.2834 22.9043 32.5209 22.7126 32.7125C22.5209 32.9042 22.2834 33 22.0001 33Z" fill="white"/>
</g>
</svg>
