<svg width="48" height="48" viewBox="0 0 48 48" fill="none" xmlns="http://www.w3.org/2000/svg">
<rect width="48" height="48" rx="13" fill="#0052CC"/>
<mask id="mask0_1317_1923" style="mask-type:alpha" maskUnits="userSpaceOnUse" x="12" y="12" width="24" height="24">
<rect x="12" y="12" width="24" height="24" fill="#D9D9D9"/>
</mask>
<g mask="url(#mask0_1317_1923)">
<path d="M24 14.15C24.1333 14.15 24.2542 14.1583 24.3625 14.175C24.4708 14.1917 24.5833 14.225 24.7 14.275L30.7 16.525C31.0833 16.675 31.3958 16.9167 31.6375 17.25C31.8792 17.5833 32 17.9583 32 18.375V21.5C32 21.7833 31.9042 22.0208 31.7125 22.2125C31.5208 22.4042 31.2833 22.5 31 22.5C30.7167 22.5 30.4792 22.4042 30.2875 22.2125C30.0958 22.0208 30 21.7833 30 21.5V18.4L24 16.15L18 18.4V23.1C18 23.9333 18.1208 24.7667 18.3625 25.6C18.6042 26.4333 18.9375 27.225 19.3625 27.975C19.7875 28.725 20.3042 29.4 20.9125 30C21.5208 30.6 22.1833 31.0917 22.9 31.475C23.15 31.6083 23.3292 31.8 23.4375 32.05C23.5458 32.3 23.55 32.55 23.45 32.8C23.3333 33.0667 23.1458 33.25 22.8875 33.35C22.6292 33.45 22.375 33.4333 22.125 33.3C20.2417 32.3667 18.75 30.9583 17.65 29.075C16.55 27.1917 16 25.2 16 23.1V18.375C16 17.9583 16.1208 17.5833 16.3625 17.25C16.6042 16.9167 16.9167 16.675 17.3 16.525L23.3 14.275C23.4167 14.225 23.5333 14.1917 23.65 14.175C23.7667 14.1583 23.8833 14.15 24 14.15ZM29 34C27.6167 34 26.4375 33.5125 25.4625 32.5375C24.4875 31.5625 24 30.3833 24 29C24 27.6167 24.4875 26.4375 25.4625 25.4625C26.4375 24.4875 27.6167 24 29 24C30.3833 24 31.5625 24.4875 32.5375 25.4625C33.5125 26.4375 34 27.6167 34 29C34 30.3833 33.5125 31.5625 32.5375 32.5375C31.5625 33.5125 30.3833 34 29 34ZM29 29C29.4167 29 29.7708 28.8542 30.0625 28.5625C30.3542 28.2708 30.5 27.9167 30.5 27.5C30.5 27.0833 30.3542 26.7292 30.0625 26.4375C29.7708 26.1458 29.4167 26 29 26C28.5833 26 28.2292 26.1458 27.9375 26.4375C27.6458 26.7292 27.5 27.0833 27.5 27.5C27.5 27.9167 27.6458 28.2708 27.9375 28.5625C28.2292 28.8542 28.5833 29 29 29ZM29 32C29.4167 32 29.8083 31.9208 30.175 31.7625C30.5417 31.6042 30.8667 31.375 31.15 31.075C31.2333 30.975 31.2667 30.8625 31.25 30.7375C31.2333 30.6125 31.1583 30.5167 31.025 30.45C30.7083 30.3 30.3792 30.1875 30.0375 30.1125C29.6958 30.0375 29.35 30 29 30C28.65 30 28.3042 30.0375 27.9625 30.1125C27.6208 30.1875 27.2917 30.3 26.975 30.45C26.8417 30.5167 26.7667 30.6125 26.75 30.7375C26.7333 30.8625 26.7667 30.975 26.85 31.075C27.1333 31.375 27.4583 31.6042 27.825 31.7625C28.1917 31.9208 28.5833 32 29 32Z" fill="white"/>
</g>
</svg>
