<svg width="48" height="48" viewBox="0 0 48 48" fill="none" xmlns="http://www.w3.org/2000/svg">
<rect width="48" height="48" rx="13" fill="#0052CC"/>
<mask id="mask0_1317_1531" style="mask-type:alpha" maskUnits="userSpaceOnUse" x="12" y="12" width="24" height="24">
<rect x="12" y="12" width="24" height="24" fill="#D9D9D9"/>
</mask>
<g mask="url(#mask0_1317_1531)">
<path d="M17.5 34C16.5333 34 15.7083 33.6583 15.025 32.975C14.3417 32.2917 14 31.4667 14 30.5C14 29.5333 14.3417 28.7083 15.025 28.025C15.7083 27.3417 16.5333 27 17.5 27C17.8 27 18.0917 27.0375 18.375 27.1125C18.6583 27.1875 18.925 27.2917 19.175 27.425L23 23.6V20.85C22.2667 20.6333 21.6667 20.2208 21.2 19.6125C20.7333 19.0042 20.5 18.3 20.5 17.5C20.5 16.5333 20.8417 15.7083 21.525 15.025C22.2083 14.3417 23.0333 14 24 14C24.9667 14 25.7917 14.3417 26.475 15.025C27.1583 15.7083 27.5 16.5333 27.5 17.5C27.5 18.3 27.2667 19.0042 26.8 19.6125C26.3333 20.2208 25.7333 20.6333 25 20.85V23.6L28.85 27.425C29.1 27.2917 29.3625 27.1875 29.6375 27.1125C29.9125 27.0375 30.2 27 30.5 27C31.4667 27 32.2917 27.3417 32.975 28.025C33.6583 28.7083 34 29.5333 34 30.5C34 31.4667 33.6583 32.2917 32.975 32.975C32.2917 33.6583 31.4667 34 30.5 34C29.5333 34 28.7083 33.6583 28.025 32.975C27.3417 32.2917 27 31.4667 27 30.5C27 30.2 27.0375 29.9083 27.1125 29.625C27.1875 29.3417 27.2917 29.075 27.425 28.825L24 25.4L20.575 28.825C20.7083 29.075 20.8125 29.3417 20.8875 29.625C20.9625 29.9083 21 30.2 21 30.5C21 31.4667 20.6583 32.2917 19.975 32.975C19.2917 33.6583 18.4667 34 17.5 34ZM30.5 32C30.9167 32 31.2708 31.8542 31.5625 31.5625C31.8542 31.2708 32 30.9167 32 30.5C32 30.0833 31.8542 29.7292 31.5625 29.4375C31.2708 29.1458 30.9167 29 30.5 29C30.0833 29 29.7292 29.1458 29.4375 29.4375C29.1458 29.7292 29 30.0833 29 30.5C29 30.9167 29.1458 31.2708 29.4375 31.5625C29.7292 31.8542 30.0833 32 30.5 32ZM24 19C24.4167 19 24.7708 18.8542 25.0625 18.5625C25.3542 18.2708 25.5 17.9167 25.5 17.5C25.5 17.0833 25.3542 16.7292 25.0625 16.4375C24.7708 16.1458 24.4167 16 24 16C23.5833 16 23.2292 16.1458 22.9375 16.4375C22.6458 16.7292 22.5 17.0833 22.5 17.5C22.5 17.9167 22.6458 18.2708 22.9375 18.5625C23.2292 18.8542 23.5833 19 24 19ZM17.5 32C17.9167 32 18.2708 31.8542 18.5625 31.5625C18.8542 31.2708 19 30.9167 19 30.5C19 30.0833 18.8542 29.7292 18.5625 29.4375C18.2708 29.1458 17.9167 29 17.5 29C17.0833 29 16.7292 29.1458 16.4375 29.4375C16.1458 29.7292 16 30.0833 16 30.5C16 30.9167 16.1458 31.2708 16.4375 31.5625C16.7292 31.8542 17.0833 32 17.5 32Z" fill="white"/>
</g>
</svg>
