<svg width="48" height="48" viewBox="0 0 48 48" fill="none" xmlns="http://www.w3.org/2000/svg">
<rect width="48" height="48" rx="13" fill="#0052CC"/>
<mask id="mask0_1311_4557" style="mask-type:alpha" maskUnits="userSpaceOnUse" x="12" y="12" width="24" height="24">
<rect x="12" y="12" width="24" height="24" fill="#D9D9D9"/>
</mask>
<g mask="url(#mask0_1311_4557)">
<path d="M14.5 28.125V19.875C14.5 19.575 14.6 19.3333 14.8 19.15C15 18.9667 15.2333 18.875 15.5 18.875C15.5833 18.875 15.675 18.8833 15.775 18.9C15.875 18.9167 15.9667 18.9583 16.05 19.025L22.25 23.175C22.4 23.275 22.5125 23.3958 22.5875 23.5375C22.6625 23.6792 22.7 23.8333 22.7 24C22.7 24.1667 22.6625 24.3208 22.5875 24.4625C22.5125 24.6042 22.4 24.725 22.25 24.825L16.05 28.975C15.9667 29.0417 15.875 29.0833 15.775 29.1C15.675 29.1167 15.5833 29.125 15.5 29.125C15.2333 29.125 15 29.0333 14.8 28.85C14.6 28.6667 14.5 28.425 14.5 28.125ZM24.5 28.125V19.875C24.5 19.575 24.6 19.3333 24.8 19.15C25 18.9667 25.2333 18.875 25.5 18.875C25.5833 18.875 25.675 18.8833 25.775 18.9C25.875 18.9167 25.9667 18.9583 26.05 19.025L32.25 23.175C32.4 23.275 32.5125 23.3958 32.5875 23.5375C32.6625 23.6792 32.7 23.8333 32.7 24C32.7 24.1667 32.6625 24.3208 32.5875 24.4625C32.5125 24.6042 32.4 24.725 32.25 24.825L26.05 28.975C25.9667 29.0417 25.875 29.0833 25.775 29.1C25.675 29.1167 25.5833 29.125 25.5 29.125C25.2333 29.125 25 29.0333 24.8 28.85C24.6 28.6667 24.5 28.425 24.5 28.125ZM16.5 26.25L19.9 24L16.5 21.75V26.25ZM26.5 26.25L29.9 24L26.5 21.75V26.25Z" fill="white"/>
</g>
</svg>
