<svg width="148" height="118" viewBox="0 0 148 118" fill="none" xmlns="http://www.w3.org/2000/svg">
<path d="M59.4485 32.4308C62.8466 32.4308 66.0808 33.0581 69.047 34.2465L79.1752 28.4085C73.5011 24.6794 66.7364 22.5359 59.4485 22.5359C39.457 22.5359 23.1914 38.7983 23.1914 58.7583C23.1914 78.7183 39.4538 94.9807 59.4485 94.9807C79.4431 94.9807 95.6708 78.7498 95.6708 58.7583C95.6708 58.1656 95.6708 57.5699 95.6393 57.0088L85.445 62.8467C83.4654 75.4147 72.5775 85.0826 59.4485 85.0826C44.9324 85.0826 33.0894 73.2712 33.0894 58.7583C33.0894 44.2454 44.9324 32.4308 59.4485 32.4308Z" fill="#0052CC"/>
<path d="M107.546 50.1463C108.041 52.9518 108.306 55.8203 108.306 58.7582C108.306 85.7099 86.3664 107.615 59.4494 107.615C32.5324 107.615 10.5582 85.7067 10.5582 58.7551C10.5582 31.8034 32.4946 9.89852 59.4494 9.89852C71.491 9.89852 82.5427 14.2864 91.0853 21.5776L100.091 16.3984C89.5344 6.23562 75.2169 0.000488281 59.4494 0.000488281C27.0507 0.000488281 0.660156 26.3595 0.660156 58.7551C0.660156 91.1506 27.0507 117.51 59.4494 117.51C91.8481 117.51 118.204 91.1506 118.204 58.7551C118.204 54.0046 117.643 49.3866 116.555 44.964L107.549 50.1432L107.546 50.1463Z" fill="#0052CC"/>
<path d="M131.765 17.2147L134.703 0.908203L106.087 17.385L104.287 27.2924L66.8483 48.8002C64.771 47.2524 62.2239 46.3036 59.4374 46.3036C52.556 46.3036 46.9766 51.8831 46.9766 58.7644C46.9766 65.6457 52.556 71.2252 59.4374 71.2252C66.3187 71.2252 71.8982 65.6457 71.8982 58.7644C71.8982 58.2947 71.8099 57.8503 71.7595 57.3932L109.221 35.8728L118.725 39.3245L147.341 22.8478L131.769 17.2147H131.765Z" fill="#849CFF"/>
</svg>
