<svg width="148" height="99" viewBox="0 0 148 99" fill="none" xmlns="http://www.w3.org/2000/svg">
<path d="M100.639 63.3357C93.191 63.3357 87.132 57.2767 87.132 49.8292C87.132 48.4144 85.9828 47.2651 84.5679 47.2651C83.1531 47.2651 82.0039 48.4144 82.0039 49.8292C82.0039 60.1037 90.3614 68.4638 100.639 68.4638C102.053 68.4638 103.203 67.3146 103.203 65.8998C103.203 64.485 102.053 63.3357 100.639 63.3357Z" fill="#0052CC"/>
<path d="M61.6714 50.3262C61.6714 30.0979 77.3607 13.5118 97.2313 12.0996C86.6938 5.23064 74.1313 0 61.9291 0C32.1626 0 0.5 30.9447 0.5 41.0194C0.5 51.9408 33.6484 82.0387 61.9265 82.0387C66.4129 82.0387 71.0281 81.2682 75.6171 79.9375C67.1045 72.8871 61.6714 62.247 61.6714 50.3262ZM41.0092 18.7451C41.0092 18.7451 20.4075 43.1916 37.8508 61.0478C1.08645 42.3448 13.3675 34.6842 41.0092 18.7451ZM50.4554 33.8663C48.1438 38.4185 47.7441 43.5992 49.3325 48.4511C49.9925 50.4682 48.8906 52.6404 46.871 53.3004C46.4739 53.4319 46.0715 53.4924 45.6744 53.4924C44.0571 53.4924 42.5502 52.4615 42.0216 50.839C39.7995 44.0331 40.357 36.7723 43.5969 30.3871C46.8368 24.002 52.3672 19.2632 59.1731 17.0384C61.1875 16.3783 63.3623 17.4802 64.0224 19.4998C64.6825 21.5195 63.5806 23.6891 61.5609 24.3492C56.709 25.9349 52.7643 29.3142 50.4554 33.8663Z" fill="#0052CC"/>
<path d="M146.874 85.3626L133.573 72.0612C132.737 71.2249 131.38 71.2249 130.544 72.0612C129.691 72.9132 128.3 72.8948 127.472 72.0191L124.511 68.8871C128.434 63.7222 130.793 57.3055 130.793 50.3339C130.793 33.3692 116.992 19.5681 100.028 19.5681C83.0628 19.5681 69.2617 33.3692 69.2617 50.3339C69.2617 67.2987 83.0628 81.0998 100.028 81.0998C107.249 81.0998 113.884 78.5831 119.138 74.4017L122.112 77.5496C122.909 78.3911 122.891 79.7165 122.07 80.5344L121.526 81.0787C120.69 81.915 120.69 83.272 121.526 84.1082L134.827 97.4097C135.664 98.2459 137.021 98.2459 137.857 97.4097L146.869 88.3948C147.706 87.5585 147.706 86.2015 146.869 85.3653L146.874 85.3626ZM100.033 73.405C87.3099 73.405 76.9591 63.0542 76.9591 50.3313C76.9591 37.6084 87.3099 27.2576 100.033 27.2576C112.756 27.2576 123.107 37.6084 123.107 50.3313C123.107 63.0542 112.756 73.405 100.033 73.405Z" fill="#849CFF"/>
</svg>
