<svg width="48" height="49" viewBox="0 0 48 49" fill="none" xmlns="http://www.w3.org/2000/svg">
<rect y="0.378418" width="48" height="48" rx="13" fill="#EB364E"/>
<mask id="mask0_892_2816" style="mask-type:alpha" maskUnits="userSpaceOnUse" x="11" y="12" width="25" height="25">
<rect x="11.6331" y="12.2776" width="24" height="24" fill="#D9D9D9"/>
</mask>
<g mask="url(#mask0_892_2816)">
<path d="M31.6331 18.2776H15.6331V30.2776H23.6331C23.9164 30.2776 24.1539 30.3734 24.3456 30.5651C24.5372 30.7568 24.6331 30.9943 24.6331 31.2776C24.6331 31.5609 24.5372 31.7984 24.3456 31.9901C24.1539 32.1818 23.9164 32.2776 23.6331 32.2776H15.6331C15.0831 32.2776 14.6122 32.0818 14.2206 31.6901C13.8289 31.2984 13.6331 30.8276 13.6331 30.2776V18.2776C13.6331 17.7276 13.8289 17.2568 14.2206 16.8651C14.6122 16.4734 15.0831 16.2776 15.6331 16.2776H31.6331C32.1831 16.2776 32.6539 16.4734 33.0456 16.8651C33.4372 17.2568 33.6331 17.7276 33.6331 18.2776V24.2776C33.6331 24.5609 33.5372 24.7984 33.3456 24.9901C33.1539 25.1818 32.9164 25.2776 32.6331 25.2776C32.3497 25.2776 32.1122 25.1818 31.9206 24.9901C31.7289 24.7984 31.6331 24.5609 31.6331 24.2776V18.2776ZM15.6331 18.2776V30.2776V25.2776V25.3526V18.2776ZM23.6331 23.2776L31.6331 18.2776V20.2776L24.1581 24.9526C23.9914 25.0526 23.8164 25.1026 23.6331 25.1026C23.4497 25.1026 23.2747 25.0526 23.1081 24.9526L15.6331 20.2776V18.2776L23.6331 23.2776ZM30.8081 32.2776H27.6331C27.3497 32.2776 27.1122 32.1818 26.9206 31.9901C26.7289 31.7984 26.6331 31.5609 26.6331 31.2776C26.6331 30.9943 26.7289 30.7568 26.9206 30.5651C27.1122 30.3734 27.3497 30.2776 27.6331 30.2776H30.8081L29.9081 29.3776C29.7081 29.1776 29.6122 28.9443 29.6206 28.6776C29.6289 28.4109 29.7331 28.1776 29.9331 27.9776C30.1331 27.7943 30.3664 27.6984 30.6331 27.6901C30.8997 27.6818 31.1331 27.7776 31.3331 27.9776L33.9331 30.5776C34.0331 30.6776 34.1081 30.7859 34.1581 30.9026C34.2081 31.0193 34.2331 31.1443 34.2331 31.2776C34.2331 31.4109 34.2081 31.5359 34.1581 31.6526C34.1081 31.7693 34.0331 31.8776 33.9331 31.9776L31.3331 34.5776C31.1497 34.7609 30.9206 34.8568 30.6456 34.8651C30.3706 34.8734 30.1331 34.7776 29.9331 34.5776C29.7497 34.3943 29.6581 34.1609 29.6581 33.8776C29.6581 33.5943 29.7497 33.3609 29.9331 33.1776L30.8081 32.2776Z" fill="white"/>
</g>
</svg>
