<svg width="48" height="49" viewBox="0 0 48 49" fill="none" xmlns="http://www.w3.org/2000/svg">
<rect y="0.378418" width="48" height="48" rx="13" fill="#0052CC"/>
<mask id="mask0_1437_3525" style="mask-type:alpha" maskUnits="userSpaceOnUse" x="12" y="12" width="24" height="25">
<rect x="12" y="12.3784" width="24" height="24" fill="#D9D9D9"/>
</mask>
<g mask="url(#mask0_1437_3525)">
<path d="M33 25.3784H31C30.7167 25.3784 30.4792 25.2825 30.2875 25.0909C30.0958 24.8992 30 24.6617 30 24.3784C30 24.095 30.0958 23.8575 30.2875 23.6659C30.4792 23.4742 30.7167 23.3784 31 23.3784H33C33.2833 23.3784 33.5208 23.4742 33.7125 23.6659C33.9042 23.8575 34 24.095 34 24.3784C34 24.6617 33.9042 24.8992 33.7125 25.0909C33.5208 25.2825 33.2833 25.3784 33 25.3784ZM28.6 29.1784C28.7667 28.945 28.9833 28.8117 29.25 28.7784C29.5167 28.745 29.7667 28.8117 30 28.9784L31.6 30.1784C31.8333 30.345 31.9667 30.5617 32 30.8284C32.0333 31.095 31.9667 31.345 31.8 31.5784C31.6333 31.8117 31.4167 31.945 31.15 31.9784C30.8833 32.0117 30.6333 31.945 30.4 31.7784L28.8 30.5784C28.5667 30.4117 28.4333 30.195 28.4 29.9284C28.3667 29.6617 28.4333 29.4117 28.6 29.1784ZM31.6 18.5784L30 19.7784C29.7667 19.945 29.5167 20.0117 29.25 19.9784C28.9833 19.945 28.7667 19.8117 28.6 19.5784C28.4333 19.345 28.3667 19.095 28.4 18.8284C28.4333 18.5617 28.5667 18.345 28.8 18.1784L30.4 16.9784C30.6333 16.8117 30.8833 16.745 31.15 16.7784C31.4167 16.8117 31.6333 16.945 31.8 17.1784C31.9667 17.4117 32.0333 17.6617 32 17.9284C31.9667 18.195 31.8333 18.4117 31.6 18.5784ZM17 27.3784H16C15.45 27.3784 14.9792 27.1825 14.5875 26.7909C14.1958 26.3992 14 25.9284 14 25.3784V23.3784C14 22.8284 14.1958 22.3575 14.5875 21.9659C14.9792 21.5742 15.45 21.3784 16 21.3784H20L23.475 19.2784C23.8083 19.0784 24.1458 19.0784 24.4875 19.2784C24.8292 19.4784 25 19.77 25 20.1534V28.6034C25 28.9867 24.8292 29.2784 24.4875 29.4784C24.1458 29.6784 23.8083 29.6784 23.475 29.4784L20 27.3784H19V30.3784C19 30.6617 18.9042 30.8992 18.7125 31.0909C18.5208 31.2825 18.2833 31.3784 18 31.3784C17.7167 31.3784 17.4792 31.2825 17.2875 31.0909C17.0958 30.8992 17 30.6617 17 30.3784V27.3784ZM23 26.8284V21.9284L20.55 23.3784H16V25.3784H20.55L23 26.8284ZM26 27.7284V21.0284C26.45 21.4284 26.8125 21.9159 27.0875 22.4909C27.3625 23.0659 27.5 23.695 27.5 24.3784C27.5 25.0617 27.3625 25.6909 27.0875 26.2659C26.8125 26.8409 26.45 27.3284 26 27.7284Z" fill="white"/>
</g>
</svg>
