<svg width="48" height="49" viewBox="0 0 48 49" fill="none" xmlns="http://www.w3.org/2000/svg">
<rect y="0.378418" width="48" height="48" rx="13" fill="#0052CC"/>
<mask id="mask0_1437_5139" style="mask-type:alpha" maskUnits="userSpaceOnUse" x="12" y="12" width="24" height="25">
<rect x="12" y="12.3784" width="24" height="24" fill="#D9D9D9"/>
</mask>
<g mask="url(#mask0_1437_5139)">
<path d="M14 30.3784V29.5784C14 29.0284 14.1417 28.5118 14.425 28.0284C14.7083 27.5451 15.1 27.1784 15.6 26.9284C16.6 26.4284 17.6375 26.0451 18.7125 25.7784C19.7875 25.5118 20.8917 25.3784 22.025 25.3784C22.2917 25.3784 22.5208 25.4743 22.7125 25.6659C22.9042 25.8576 23 26.1118 23 26.4284C23 26.6951 22.9042 26.9201 22.7125 27.1034C22.5208 27.2868 22.2917 27.3784 22.025 27.3784C20.8417 27.3784 19.775 27.5284 18.825 27.8284C17.875 28.1284 17.1 28.4284 16.5 28.7284C16.35 28.8118 16.2292 28.9284 16.1375 29.0784C16.0458 29.2284 16 29.3951 16 29.5784V30.3784H22C22.2833 30.3784 22.5208 30.4743 22.7125 30.6659C22.9042 30.8576 23 31.0951 23 31.3784C23 31.6618 22.9042 31.8993 22.7125 32.0909C22.5208 32.2826 22.2833 32.3784 22 32.3784H16C15.45 32.3784 14.9792 32.1826 14.5875 31.7909C14.1958 31.3993 14 30.9284 14 30.3784ZM29 33.4034C28.8667 33.4034 28.7333 33.3867 28.6 33.3534C28.4667 33.3201 28.3417 33.2618 28.225 33.1784L25.225 31.4284C24.9917 31.2951 24.8125 31.1159 24.6875 30.8909C24.5625 30.6659 24.5 30.4201 24.5 30.1534V26.6284C24.5 26.3618 24.5625 26.1159 24.6875 25.8909C24.8125 25.6659 24.9917 25.4868 25.225 25.3534L28.225 23.6034C28.3417 23.5201 28.4667 23.4618 28.6 23.4284C28.7333 23.3951 28.8667 23.3784 29 23.3784C29.1333 23.3784 29.2625 23.3993 29.3875 23.4409C29.5125 23.4826 29.6333 23.5368 29.75 23.6034L32.75 25.3534C32.9833 25.4868 33.1667 25.6659 33.3 25.8909C33.4333 26.1159 33.5 26.3618 33.5 26.6284V30.1534C33.5 30.4201 33.4333 30.6659 33.3 30.8909C33.1667 31.1159 32.9833 31.2951 32.75 31.4284L29.75 33.1784C29.6333 33.2451 29.5125 33.2993 29.3875 33.3409C29.2625 33.3826 29.1333 33.4034 29 33.4034ZM22 24.3784C20.9 24.3784 19.9583 23.9868 19.175 23.2034C18.3917 22.4201 18 21.4784 18 20.3784C18 19.2784 18.3917 18.3368 19.175 17.5534C19.9583 16.7701 20.9 16.3784 22 16.3784C23.1 16.3784 24.0417 16.7701 24.825 17.5534C25.6083 18.3368 26 19.2784 26 20.3784C26 21.4784 25.6083 22.4201 24.825 23.2034C24.0417 23.9868 23.1 24.3784 22 24.3784ZM22 22.3784C22.55 22.3784 23.0208 22.1826 23.4125 21.7909C23.8042 21.3993 24 20.9284 24 20.3784C24 19.8284 23.8042 19.3576 23.4125 18.9659C23.0208 18.5743 22.55 18.3784 22 18.3784C21.45 18.3784 20.9792 18.5743 20.5875 18.9659C20.1958 19.3576 20 19.8284 20 20.3784C20 20.9284 20.1958 21.3993 20.5875 21.7909C20.9792 22.1826 21.45 22.3784 22 22.3784ZM26.65 26.2284L29 27.6034L31.35 26.2284L29 24.8784L26.65 26.2284ZM29.75 31.4284L32 30.1284V27.3784L29.75 28.7034V31.4284ZM26 30.1284L28.25 31.4534V28.7284L26 27.4034V30.1284Z" fill="white"/>
</g>
</svg>
