<svg width="48" height="49" viewBox="0 0 48 49" fill="none" xmlns="http://www.w3.org/2000/svg">
<rect y="0.378418" width="48" height="48" rx="13" fill="#181818"/>
<mask id="mask0_892_507" style="mask-type:alpha" maskUnits="userSpaceOnUse" x="12" y="12" width="24" height="25">
<rect x="12" y="12.3784" width="24" height="24" fill="#D9D9D9"/>
</mask>
<g mask="url(#mask0_892_507)">
<path d="M18 30.3784L15.7 32.6784C15.3833 32.9951 15.0208 33.0659 14.6125 32.8909C14.2042 32.7159 14 32.4034 14 31.9534V16.3784C14 15.8284 14.1958 15.3576 14.5875 14.9659C14.9792 14.5743 15.45 14.3784 16 14.3784H32C32.55 14.3784 33.0208 14.5743 33.4125 14.9659C33.8042 15.3576 34 15.8284 34 16.3784V28.3784C34 28.9284 33.8042 29.3993 33.4125 29.7909C33.0208 30.1826 32.55 30.3784 32 30.3784H18ZM17.15 28.3784H32V16.3784H16V29.5034L17.15 28.3784ZM20 23.3784C20.2833 23.3784 20.5208 23.2826 20.7125 23.0909C20.9042 22.8993 21 22.6618 21 22.3784C21 22.0951 20.9042 21.8576 20.7125 21.6659C20.5208 21.4743 20.2833 21.3784 20 21.3784C19.7167 21.3784 19.4792 21.4743 19.2875 21.6659C19.0958 21.8576 19 22.0951 19 22.3784C19 22.6618 19.0958 22.8993 19.2875 23.0909C19.4792 23.2826 19.7167 23.3784 20 23.3784ZM24 23.3784C24.2833 23.3784 24.5208 23.2826 24.7125 23.0909C24.9042 22.8993 25 22.6618 25 22.3784C25 22.0951 24.9042 21.8576 24.7125 21.6659C24.5208 21.4743 24.2833 21.3784 24 21.3784C23.7167 21.3784 23.4792 21.4743 23.2875 21.6659C23.0958 21.8576 23 22.0951 23 22.3784C23 22.6618 23.0958 22.8993 23.2875 23.0909C23.4792 23.2826 23.7167 23.3784 24 23.3784ZM28 23.3784C28.2833 23.3784 28.5208 23.2826 28.7125 23.0909C28.9042 22.8993 29 22.6618 29 22.3784C29 22.0951 28.9042 21.8576 28.7125 21.6659C28.5208 21.4743 28.2833 21.3784 28 21.3784C27.7167 21.3784 27.4792 21.4743 27.2875 21.6659C27.0958 21.8576 27 22.0951 27 22.3784C27 22.6618 27.0958 22.8993 27.2875 23.0909C27.4792 23.2826 27.7167 23.3784 28 23.3784Z" fill="white"/>
</g>
</svg>
