<svg width="48" height="49" viewBox="0 0 48 49" fill="none" xmlns="http://www.w3.org/2000/svg">
<rect y="0.378418" width="48" height="48" rx="13" fill="#0052CC"/>
<mask id="mask0_892_1444" style="mask-type:alpha" maskUnits="userSpaceOnUse" x="11" y="12" width="25" height="25">
<rect x="11.8555" y="12.4659" width="24" height="24" fill="#D9D9D9"/>
</mask>
<g mask="url(#mask0_892_1444)">
<path d="M17.7805 33.4659C17.3971 33.4659 17.0263 33.3325 16.668 33.0659C16.3096 32.7992 16.0721 32.4742 15.9555 32.0909C15.5388 30.6909 15.1971 29.4784 14.9305 28.4534C14.6638 27.4284 14.4513 26.5284 14.293 25.7534C14.1346 24.9784 14.0221 24.2909 13.9555 23.6909C13.8888 23.0909 13.8555 22.5159 13.8555 21.9659C13.8555 20.4325 14.3888 19.1325 15.4555 18.0659C16.5221 16.9992 17.8221 16.4659 19.3555 16.4659H24.3555C24.8055 15.8659 25.3763 15.3825 26.068 15.0159C26.7596 14.6492 27.5221 14.4659 28.3555 14.4659C28.7721 14.4659 29.1263 14.6117 29.418 14.9034C29.7096 15.195 29.8555 15.5492 29.8555 15.9659C29.8555 16.0659 29.843 16.1659 29.818 16.2659C29.793 16.3659 29.7638 16.4575 29.7305 16.5409C29.6638 16.7242 29.6013 16.9075 29.543 17.0909C29.4846 17.2742 29.4388 17.4742 29.4055 17.6909L31.6805 19.9659H32.8555C33.1388 19.9659 33.3763 20.0617 33.568 20.2534C33.7596 20.445 33.8555 20.6825 33.8555 20.9659V26.2159C33.8555 26.4325 33.793 26.6242 33.668 26.7909C33.543 26.9575 33.3721 27.0825 33.1555 27.1659L31.0305 27.8659L29.7805 32.0409C29.6471 32.4742 29.4055 32.82 29.0555 33.0784C28.7055 33.3367 28.3055 33.4659 27.8555 33.4659H25.8555C25.3055 33.4659 24.8346 33.27 24.443 32.8784C24.0513 32.4867 23.8555 32.0159 23.8555 31.4659H21.8555C21.8555 32.0159 21.6596 32.4867 21.268 32.8784C20.8763 33.27 20.4055 33.4659 19.8555 33.4659H17.7805ZM17.8555 31.4659H19.8555V29.4659H25.8555V31.4659H27.8555L29.4055 26.3159L31.8555 25.4909V21.9659H30.8555L27.3555 18.4659C27.3555 18.1325 27.3763 17.8075 27.418 17.4909C27.4596 17.1742 27.5221 16.8659 27.6055 16.5659C27.1221 16.6992 26.6971 16.9284 26.3305 17.2534C25.9638 17.5784 25.6971 17.9825 25.5305 18.4659H19.3555C18.3888 18.4659 17.5638 18.8075 16.8805 19.4909C16.1971 20.1742 15.8555 20.9992 15.8555 21.9659C15.8555 22.6492 16.0305 23.82 16.3805 25.4784C16.7305 27.1367 17.2221 29.1325 17.8555 31.4659ZM27.8555 23.4659C28.1388 23.4659 28.3763 23.37 28.568 23.1784C28.7596 22.9867 28.8555 22.7492 28.8555 22.4659C28.8555 22.1825 28.7596 21.945 28.568 21.7534C28.3763 21.5617 28.1388 21.4659 27.8555 21.4659C27.5721 21.4659 27.3346 21.5617 27.143 21.7534C26.9513 21.945 26.8555 22.1825 26.8555 22.4659C26.8555 22.7492 26.9513 22.9867 27.143 23.1784C27.3346 23.37 27.5721 23.4659 27.8555 23.4659ZM23.8555 21.4659C24.1388 21.4659 24.3763 21.37 24.568 21.1784C24.7596 20.9867 24.8555 20.7492 24.8555 20.4659C24.8555 20.1825 24.7596 19.945 24.568 19.7534C24.3763 19.5617 24.1388 19.4659 23.8555 19.4659H20.8555C20.5721 19.4659 20.3346 19.5617 20.143 19.7534C19.9513 19.945 19.8555 20.1825 19.8555 20.4659C19.8555 20.7492 19.9513 20.9867 20.143 21.1784C20.3346 21.37 20.5721 21.4659 20.8555 21.4659H23.8555Z" fill="white"/>
</g>
</svg>
