<svg width="48" height="49" viewBox="0 0 48 49" fill="none" xmlns="http://www.w3.org/2000/svg">
<rect y="0.378418" width="48" height="48" rx="13" fill="#0052CC"/>
<mask id="mask0_896_2946" style="mask-type:alpha" maskUnits="userSpaceOnUse" x="12" y="12" width="25" height="25">
<rect x="12.3905" y="12.2898" width="24" height="24" fill="#D9D9D9"/>
</mask>
<g mask="url(#mask0_896_2946)">
<path d="M24.3905 34.2898C23.0072 34.2898 21.7072 34.0273 20.4905 33.5023C19.2738 32.9773 18.2155 32.2648 17.3155 31.3648C16.4155 30.4648 15.703 29.4065 15.178 28.1898C14.653 26.9731 14.3905 25.6731 14.3905 24.2898C14.3905 22.9065 14.653 21.6065 15.178 20.3898C15.703 19.1731 16.4155 18.1148 17.3155 17.2148C18.2155 16.3148 19.2738 15.6023 20.4905 15.0773C21.7072 14.5523 23.0072 14.2898 24.3905 14.2898C25.7738 14.2898 27.0738 14.5523 28.2905 15.0773C29.5072 15.6023 30.5655 16.3148 31.4655 17.2148C32.3655 18.1148 33.078 19.1731 33.603 20.3898C34.128 21.6065 34.3905 22.9065 34.3905 24.2898C34.3905 25.6731 34.128 26.9731 33.603 28.1898C33.078 29.4065 32.3655 30.4648 31.4655 31.3648C30.5655 32.2648 29.5072 32.9773 28.2905 33.5023C27.0738 34.0273 25.7738 34.2898 24.3905 34.2898ZM21.4905 31.7398L22.6905 28.9898C21.9905 28.7398 21.3863 28.3523 20.878 27.8273C20.3697 27.3023 19.9738 26.6898 19.6905 25.9898L16.9405 27.1398C17.3238 28.2065 17.9155 29.1398 18.7155 29.9398C19.5155 30.7398 20.4405 31.3398 21.4905 31.7398ZM19.6905 22.5898C19.9738 21.8898 20.3697 21.2773 20.878 20.7523C21.3863 20.2273 21.9905 19.8398 22.6905 19.5898L21.5405 16.8398C20.4738 17.2398 19.5405 17.8398 18.7405 18.6398C17.9405 19.4398 17.3405 20.3731 16.9405 21.4398L19.6905 22.5898ZM24.3905 27.2898C25.2238 27.2898 25.9322 26.9981 26.5155 26.4148C27.0988 25.8315 27.3905 25.1231 27.3905 24.2898C27.3905 23.4565 27.0988 22.7481 26.5155 22.1648C25.9322 21.5815 25.2238 21.2898 24.3905 21.2898C23.5572 21.2898 22.8488 21.5815 22.2655 22.1648C21.6822 22.7481 21.3905 23.4565 21.3905 24.2898C21.3905 25.1231 21.6822 25.8315 22.2655 26.4148C22.8488 26.9981 23.5572 27.2898 24.3905 27.2898ZM27.2905 31.7398C28.3405 31.3398 29.2613 30.744 30.053 29.9523C30.8447 29.1606 31.4405 28.2398 31.8405 27.1898L29.0905 25.9898C28.8405 26.6898 28.4572 27.294 27.9405 27.8023C27.4238 28.3106 26.8238 28.7065 26.1405 28.9898L27.2905 31.7398ZM29.0905 22.5398L31.8405 21.3898C31.4405 20.3398 30.8447 19.419 30.053 18.6273C29.2613 17.8356 28.3405 17.2398 27.2905 16.8398L26.1405 19.6398C26.8238 19.8898 27.4155 20.269 27.9155 20.7773C28.4155 21.2856 28.8072 21.8731 29.0905 22.5398Z" fill="white"/>
</g>
</svg>
