<svg width="187" height="75" viewBox="0 0 187 75" fill="none" xmlns="http://www.w3.org/2000/svg">
<path d="M168.384 45.2328C165.885 45.2423 163.867 47.2757 163.876 49.7747C163.876 49.7779 163.876 49.7804 163.876 49.7829C163.862 52.2819 165.876 54.3191 168.375 54.3331C168.378 54.3331 168.381 54.3331 168.383 54.3331C170.87 54.3331 172.892 52.2946 172.892 49.7829C172.906 47.284 170.891 45.2468 168.392 45.2328C168.39 45.2328 168.387 45.2328 168.384 45.2328ZM153.549 41.7187C153.549 38.2764 150.635 35.4897 147.04 35.4897C143.446 35.4897 140.532 38.2809 140.532 41.7187C140.532 45.1566 143.45 47.944 147.044 47.944C150.638 47.944 153.548 45.1572 153.548 41.7187H153.549ZM153.574 29.6112H160.755V53.8217H153.574V52.2737C151.481 53.7188 148.997 54.4919 146.453 54.4894C139.462 54.4894 133.796 48.7717 133.796 41.7181C133.796 34.6645 139.463 28.9468 146.453 28.9468C149.096 28.9468 151.544 29.7631 153.574 31.1625V29.6106V29.6112ZM96.095 32.7658V29.6151H88.741V53.8211H96.1122V42.5172C96.1122 38.7026 100.206 36.6559 103.048 36.6559H103.132V29.6151C100.214 29.6151 97.537 30.8754 96.095 32.7658ZM77.7756 41.7187C77.7756 38.2764 74.8619 35.4897 71.2671 35.4897C67.6723 35.4897 64.7585 38.2809 64.7585 41.7187C64.7585 45.1566 67.6768 47.944 71.2709 47.944C74.865 47.944 77.775 45.1572 77.775 41.7187H77.7756ZM77.8011 29.6112H84.9861V53.8217H77.8011V52.2737C75.7709 53.6693 73.3227 54.4894 70.6795 54.4894C63.6888 54.4894 58.0226 48.7717 58.0226 41.7181C58.0226 34.6645 63.6894 28.9468 70.6795 28.9468C73.3227 28.9468 75.7709 29.7631 77.8011 31.1625V29.6106V29.6112ZM121.033 28.9639C118.166 28.9639 115.451 29.8603 113.633 32.3389V29.6157H106.482V53.8217H113.722V41.1013C113.722 37.422 116.166 35.6161 119.114 35.6161C122.268 35.6161 124.087 37.5192 124.087 41.0505V53.8217H131.259V38.4282C131.259 32.795 126.819 28.9639 121.034 28.9639H121.033ZM47.5603 53.8217H55.0795V18.8276H47.5603V53.8217ZM14.5329 53.83H22.4961V18.8193H14.5367L14.5322 53.8306L14.5329 53.83ZM42.3839 18.8193C42.3839 26.3976 39.4573 33.4512 34.2389 38.6912L45.2424 53.8306H35.4103L23.4553 37.3801L26.5425 35.0456C31.6383 31.2127 34.6213 25.1958 34.5858 18.8193H42.3839Z" fill="#0A0B09"/>
</svg>
