<svg width="48" height="48" viewBox="0 0 48 48" fill="none" xmlns="http://www.w3.org/2000/svg">
<rect width="48" height="48" rx="13" fill="#0052CC"/>
<mask id="mask0_1886_2060" style="mask-type:alpha" maskUnits="userSpaceOnUse" x="12" y="12" width="24" height="24">
<rect x="12" y="12" width="24" height="24" fill="#D9D9D9"/>
</mask>
<g mask="url(#mask0_1886_2060)">
<path d="M17 33C16.45 33 15.9792 32.8042 15.5875 32.4125C15.1958 32.0208 15 31.55 15 31V21C15 19.3333 15.5833 17.9167 16.75 16.75C17.9167 15.5833 19.3333 15 21 15H27C28.6667 15 30.0833 15.5833 31.25 16.75C32.4167 17.9167 33 19.3333 33 21V31C33 31.55 32.8042 32.0208 32.4125 32.4125C32.0208 32.8042 31.55 33 31 33H17ZM17 31H31V21C31 19.9 30.6083 18.9583 29.825 18.175C29.0417 17.3917 28.1 17 27 17H21C19.9 17 18.9583 17.3917 18.175 18.175C17.3917 18.9583 17 19.9 17 21V31ZM21 24C20.45 24 19.9792 23.8042 19.5875 23.4125C19.1958 23.0208 19 22.55 19 22C19 21.45 19.1958 20.9792 19.5875 20.5875C19.9792 20.1958 20.45 20 21 20C21.55 20 22.0208 20.1958 22.4125 20.5875C22.8042 20.9792 23 21.45 23 22C23 22.55 22.8042 23.0208 22.4125 23.4125C22.0208 23.8042 21.55 24 21 24ZM27 24C26.45 24 25.9792 23.8042 25.5875 23.4125C25.1958 23.0208 25 22.55 25 22C25 21.45 25.1958 20.9792 25.5875 20.5875C25.9792 20.1958 26.45 20 27 20C27.55 20 28.0208 20.1958 28.4125 20.5875C28.8042 20.9792 29 21.45 29 22C29 22.55 28.8042 23.0208 28.4125 23.4125C28.0208 23.8042 27.55 24 27 24ZM19 31V29C19 28.45 19.1958 27.9792 19.5875 27.5875C19.9792 27.1958 20.45 27 21 27H27C27.55 27 28.0208 27.1958 28.4125 27.5875C28.8042 27.9792 29 28.45 29 29V31H27V29H25V31H23V29H21V31H19Z" fill="white"/>
</g>
</svg>
