<svg width="48" height="48" viewBox="0 0 48 48" fill="none" xmlns="http://www.w3.org/2000/svg">
<rect width="48" height="48" rx="13" fill="#0052CC"/>
<mask id="mask0_1915_3093" style="mask-type:alpha" maskUnits="userSpaceOnUse" x="12" y="12" width="24" height="24">
<rect x="12" y="12" width="24" height="24" fill="#D9D9D9"/>
</mask>
<g mask="url(#mask0_1915_3093)">
<path d="M18 34C17.1667 34 16.4583 33.7083 15.875 33.125C15.2917 32.5417 15 31.8333 15 31V30C15 29.45 15.1958 28.9792 15.5875 28.5875C15.9792 28.1958 16.45 28 17 28H18V16C18 15.45 18.1958 14.9792 18.5875 14.5875C18.9792 14.1958 19.45 14 20 14H31C31.55 14 32.0208 14.1958 32.4125 14.5875C32.8042 14.9792 33 15.45 33 16V31C33 31.8333 32.7083 32.5417 32.125 33.125C31.5417 33.7083 30.8333 34 30 34H18ZM30 32C30.2833 32 30.5208 31.9042 30.7125 31.7125C30.9042 31.5208 31 31.2833 31 31V16H20V28H27C27.55 28 28.0208 28.1958 28.4125 28.5875C28.8042 28.9792 29 29.45 29 30V31C29 31.2833 29.0958 31.5208 29.2875 31.7125C29.4792 31.9042 29.7167 32 30 32ZM22 21C21.7167 21 21.4792 20.9042 21.2875 20.7125C21.0958 20.5208 21 20.2833 21 20C21 19.7167 21.0958 19.4792 21.2875 19.2875C21.4792 19.0958 21.7167 19 22 19H29C29.2833 19 29.5208 19.0958 29.7125 19.2875C29.9042 19.4792 30 19.7167 30 20C30 20.2833 29.9042 20.5208 29.7125 20.7125C29.5208 20.9042 29.2833 21 29 21H22ZM22 24C21.7167 24 21.4792 23.9042 21.2875 23.7125C21.0958 23.5208 21 23.2833 21 23C21 22.7167 21.0958 22.4792 21.2875 22.2875C21.4792 22.0958 21.7167 22 22 22H29C29.2833 22 29.5208 22.0958 29.7125 22.2875C29.9042 22.4792 30 22.7167 30 23C30 23.2833 29.9042 23.5208 29.7125 23.7125C29.5208 23.9042 29.2833 24 29 24H22ZM18 32H27V30H17V31C17 31.2833 17.0958 31.5208 17.2875 31.7125C17.4792 31.9042 17.7167 32 18 32ZM18 32H17H27H18Z" fill="white"/>
</g>
</svg>
