<svg width="48" height="48" viewBox="0 0 48 48" fill="none" xmlns="http://www.w3.org/2000/svg">
<rect width="48" height="48" rx="13" fill="#0052CC"/>
<mask id="mask0_1886_2782" style="mask-type:alpha" maskUnits="userSpaceOnUse" x="12" y="12" width="24" height="24">
<rect x="12" y="12" width="24" height="24" fill="#D9D9D9"/>
</mask>
<g mask="url(#mask0_1886_2782)">
<path d="M20 30C19.45 30 18.9792 29.8042 18.5875 29.4125C18.1958 29.0208 18 28.55 18 28V16C18 15.45 18.1958 14.9792 18.5875 14.5875C18.9792 14.1958 19.45 14 20 14H32C32.55 14 33.0208 14.1958 33.4125 14.5875C33.8042 14.9792 34 15.45 34 16V28C34 28.55 33.8042 29.0208 33.4125 29.4125C33.0208 29.8042 32.55 30 32 30H20ZM20 28H32V16H20V28ZM16 34C15.45 34 14.9792 33.8042 14.5875 33.4125C14.1958 33.0208 14 32.55 14 32V19C14 18.7167 14.0958 18.4792 14.2875 18.2875C14.4792 18.0958 14.7167 18 15 18C15.2833 18 15.5208 18.0958 15.7125 18.2875C15.9042 18.4792 16 18.7167 16 19V32H29C29.2833 32 29.5208 32.0958 29.7125 32.2875C29.9042 32.4792 30 32.7167 30 33C30 33.2833 29.9042 33.5208 29.7125 33.7125C29.5208 33.9042 29.2833 34 29 34H16Z" fill="white"/>
</g>
</svg>
