<svg width="48" height="48" viewBox="0 0 48 48" fill="none" xmlns="http://www.w3.org/2000/svg">
<rect width="48" height="48" rx="13" fill="#0052CC"/>
<mask id="mask0_1886_7060" style="mask-type:alpha" maskUnits="userSpaceOnUse" x="12" y="12" width="24" height="24">
<rect x="12" y="12" width="24" height="24" fill="#D9D9D9"/>
</mask>
<g mask="url(#mask0_1886_7060)">
<path d="M29.0008 20.4L18.1008 31.3C17.9174 31.4833 17.6841 31.575 17.4008 31.575C17.1174 31.575 16.8841 31.4833 16.7008 31.3C16.5174 31.1167 16.4258 30.8833 16.4258 30.6C16.4258 30.3167 16.5174 30.0833 16.7008 29.9L27.6008 19H22.0008C21.7174 19 21.4799 18.9042 21.2883 18.7125C21.0966 18.5208 21.0008 18.2833 21.0008 18C21.0008 17.7167 21.0966 17.4792 21.2883 17.2875C21.4799 17.0958 21.7174 17 22.0008 17H30.0008C30.2841 17 30.5216 17.0958 30.7133 17.2875C30.9049 17.4792 31.0008 17.7167 31.0008 18V26C31.0008 26.2833 30.9049 26.5208 30.7133 26.7125C30.5216 26.9042 30.2841 27 30.0008 27C29.7174 27 29.4799 26.9042 29.2883 26.7125C29.0966 26.5208 29.0008 26.2833 29.0008 26V20.4Z" fill="white"/>
</g>
</svg>
