<svg width="48" height="48" viewBox="0 0 48 48" fill="none" xmlns="http://www.w3.org/2000/svg">
<rect width="48" height="48" rx="13" fill="#0052CC"/>
<mask id="mask0_1909_2522" style="mask-type:alpha" maskUnits="userSpaceOnUse" x="12" y="12" width="24" height="24">
<rect x="12" y="12" width="24" height="24" fill="#D9D9D9"/>
</mask>
<g mask="url(#mask0_1909_2522)">
<path d="M17.075 24H20C20.1833 24 20.3583 24.0458 20.525 24.1375C20.6917 24.2292 20.8167 24.3667 20.9 24.55L22 26.75L25.1 20.55C25.2833 20.1667 25.5833 19.975 26 19.975C26.4167 19.975 26.7167 20.1667 26.9 20.55L28.625 24H30.925C30.675 22.3 29.9 20.875 28.6 19.725C27.3 18.575 25.7667 18 24 18C22.2333 18 20.7 18.575 19.4 19.725C18.1 20.875 17.325 22.3 17.075 24ZM24 32C25.7667 32 27.3 31.425 28.6 30.275C29.9 29.125 30.675 27.7 30.925 26H28C27.8167 26 27.6417 25.9542 27.475 25.8625C27.3083 25.7708 27.1833 25.6333 27.1 25.45L26 23.25L22.9 29.45C22.7167 29.8333 22.4167 30.025 22 30.025C21.5833 30.025 21.2833 29.8333 21.1 29.45L19.375 26H17.075C17.325 27.7 18.1 29.125 19.4 30.275C20.7 31.425 22.2333 32 24 32ZM24 34C22.7667 34 21.6042 33.7625 20.5125 33.2875C19.4208 32.8125 18.4667 32.1667 17.65 31.35C16.8333 30.5333 16.1875 29.5792 15.7125 28.4875C15.2375 27.3958 15 26.2333 15 25H17C17 26.9333 17.6833 28.5833 19.05 29.95C20.4167 31.3167 22.0667 32 24 32C25.9333 32 27.5833 31.3167 28.95 29.95C30.3167 28.5833 31 26.9333 31 25H33C33 26.2333 32.7625 27.3958 32.2875 28.4875C31.8125 29.5792 31.1667 30.5333 30.35 31.35C29.5333 32.1667 28.5792 32.8125 27.4875 33.2875C26.3958 33.7625 25.2333 34 24 34ZM15 25C15 23.7667 15.2375 22.6042 15.7125 21.5125C16.1875 20.4208 16.8333 19.4667 17.65 18.65C18.4667 17.8333 19.4208 17.1875 20.5125 16.7125C21.6042 16.2375 22.7667 16 24 16C25.0333 16 26.025 16.1667 26.975 16.5C27.925 16.8333 28.8167 17.3167 29.65 17.95L30.35 17.25C30.5333 17.0667 30.7667 16.975 31.05 16.975C31.3333 16.975 31.5667 17.0667 31.75 17.25C31.9333 17.4333 32.025 17.6667 32.025 17.95C32.025 18.2333 31.9333 18.4667 31.75 18.65L31.05 19.35C31.6833 20.1833 32.1667 21.075 32.5 22.025C32.8333 22.975 33 23.9667 33 25H31C31 23.0667 30.3167 21.4167 28.95 20.05C27.5833 18.6833 25.9333 18 24 18C22.0667 18 20.4167 18.6833 19.05 20.05C17.6833 21.4167 17 23.0667 17 25H15ZM22 15C21.7167 15 21.4792 14.9042 21.2875 14.7125C21.0958 14.5208 21 14.2833 21 14C21 13.7167 21.0958 13.4792 21.2875 13.2875C21.4792 13.0958 21.7167 13 22 13H26C26.2833 13 26.5208 13.0958 26.7125 13.2875C26.9042 13.4792 27 13.7167 27 14C27 14.2833 26.9042 14.5208 26.7125 14.7125C26.5208 14.9042 26.2833 15 26 15H22ZM24 32C22.0667 32 20.4167 31.3167 19.05 29.95C17.6833 28.5833 17 26.9333 17 25C17 23.0667 17.6833 21.4167 19.05 20.05C20.4167 18.6833 22.0667 18 24 18C25.9333 18 27.5833 18.6833 28.95 20.05C30.3167 21.4167 31 23.0667 31 25C31 26.9333 30.3167 28.5833 28.95 29.95C27.5833 31.3167 25.9333 32 24 32Z" fill="white"/>
</g>
</svg>
