<svg width="48" height="48" viewBox="0 0 48 48" fill="none" xmlns="http://www.w3.org/2000/svg">
<rect width="48" height="48" rx="13" fill="#0052CC"/>
<mask id="mask0_1886_2669" style="mask-type:alpha" maskUnits="userSpaceOnUse" x="12" y="12" width="24" height="24">
<rect x="12" y="12" width="24" height="24" fill="#D9D9D9"/>
</mask>
<g mask="url(#mask0_1886_2669)">
<path d="M17.65 16.65L16.25 15.25C17.2333 14.2167 18.3875 13.4167 19.7125 12.85C21.0375 12.2833 22.4667 12 24 12C25.5333 12 26.9625 12.2833 28.2875 12.85C29.6125 13.4167 30.7667 14.2167 31.75 15.25L30.35 16.65C29.55 15.8167 28.6042 15.1667 27.5125 14.7C26.4208 14.2333 25.25 14 24 14C22.75 14 21.5792 14.2333 20.4875 14.7C19.3958 15.1667 18.45 15.8167 17.65 16.65ZM20.45 19.45L19.05 18.05C19.6833 17.4167 20.4208 16.9167 21.2625 16.55C22.1042 16.1833 23.0167 16 24 16C24.9833 16 25.8958 16.1833 26.7375 16.55C27.5792 16.9167 28.3167 17.4167 28.95 18.05L27.55 19.45C27.1 19 26.5708 18.6458 25.9625 18.3875C25.3542 18.1292 24.7 18 24 18C23.3 18 22.6458 18.1292 22.0375 18.3875C21.4292 18.6458 20.9 19 20.45 19.45ZM24 36C23.05 36 22.2292 35.6542 21.5375 34.9625C20.8458 34.2708 20.5 33.45 20.5 32.5V24.45C20.5 23.5 20.8458 22.6792 21.5375 21.9875C22.2292 21.2958 23.05 20.95 24 20.95C24.95 20.95 25.7708 21.2958 26.4625 21.9875C27.1542 22.6792 27.5 23.5 27.5 24.45V32.5C27.5 33.45 27.1542 34.2708 26.4625 34.9625C25.7708 35.6542 24.95 36 24 36ZM24 26.5C24.55 26.5 25.0208 26.3042 25.4125 25.9125C25.8042 25.5208 26 25.05 26 24.5C26 23.95 25.8042 23.4792 25.4125 23.0875C25.0208 22.6958 24.55 22.5 24 22.5C23.45 22.5 22.9792 22.6958 22.5875 23.0875C22.1958 23.4792 22 23.95 22 24.5C22 25.05 22.1958 25.5208 22.5875 25.9125C22.9792 26.3042 23.45 26.5 24 26.5Z" fill="white"/>
</g>
</svg>
