<svg width="48" height="48" viewBox="0 0 48 48" fill="none" xmlns="http://www.w3.org/2000/svg">
<rect width="48" height="48" rx="13" fill="#0052CC"/>
<mask id="mask0_1915_5356" style="mask-type:alpha" maskUnits="userSpaceOnUse" x="12" y="12" width="24" height="24">
<rect x="12" y="12" width="24" height="24" fill="#D9D9D9"/>
</mask>
<g mask="url(#mask0_1915_5356)">
<path d="M24 23.925L22.3 25.225C22.2 25.3083 22.1 25.3125 22 25.2375C21.9 25.1625 21.8667 25.0667 21.9 24.95L22.55 22.85L20.8 21.45C20.7167 21.3667 20.6917 21.2708 20.725 21.1625C20.7583 21.0542 20.8333 21 20.95 21H23.1L23.75 18.95C23.7833 18.8333 23.8667 18.775 24 18.775C24.1333 18.775 24.2167 18.8333 24.25 18.95L24.9 21H27.025C27.1417 21 27.2208 21.0542 27.2625 21.1625C27.3042 21.2708 27.2833 21.3667 27.2 21.45L25.425 22.85L26.075 24.95C26.1083 25.0667 26.075 25.1625 25.975 25.2375C25.875 25.3125 25.775 25.3083 25.675 25.225L24 23.925ZM24 33L19.325 34.55C18.9917 34.6667 18.6875 34.625 18.4125 34.425C18.1375 34.225 18 33.9583 18 33.625V27.275C17.3667 26.575 16.875 25.775 16.525 24.875C16.175 23.975 16 23.0167 16 22C16 19.7667 16.775 17.875 18.325 16.325C19.875 14.775 21.7667 14 24 14C26.2333 14 28.125 14.775 29.675 16.325C31.225 17.875 32 19.7667 32 22C32 23.0167 31.825 23.975 31.475 24.875C31.125 25.775 30.6333 26.575 30 27.275V33.625C30 33.9583 29.8625 34.225 29.5875 34.425C29.3125 34.625 29.0083 34.6667 28.675 34.55L24 33ZM24 28C25.6667 28 27.0833 27.4167 28.25 26.25C29.4167 25.0833 30 23.6667 30 22C30 20.3333 29.4167 18.9167 28.25 17.75C27.0833 16.5833 25.6667 16 24 16C22.3333 16 20.9167 16.5833 19.75 17.75C18.5833 18.9167 18 20.3333 18 22C18 23.6667 18.5833 25.0833 19.75 26.25C20.9167 27.4167 22.3333 28 24 28ZM20 32.025L24 31L28 32.025V28.925C27.4167 29.2583 26.7875 29.5208 26.1125 29.7125C25.4375 29.9042 24.7333 30 24 30C23.2667 30 22.5625 29.9042 21.8875 29.7125C21.2125 29.5208 20.5833 29.2583 20 28.925V32.025Z" fill="white"/>
</g>
</svg>
