<svg width="48" height="48" viewBox="0 0 48 48" fill="none" xmlns="http://www.w3.org/2000/svg">
<rect width="48" height="48" rx="13" fill="#0052CC"/>
<mask id="mask0_1909_3439" style="mask-type:alpha" maskUnits="userSpaceOnUse" x="12" y="12" width="24" height="24">
<rect x="12" y="12" width="24" height="24" fill="#D9D9D9"/>
</mask>
<g mask="url(#mask0_1909_3439)">
<path d="M30 31.425V32.65C30 32.9333 29.9042 33.1708 29.7125 33.3625C29.5208 33.5542 29.2833 33.65 29 33.65C28.7167 33.65 28.4792 33.5542 28.2875 33.3625C28.0958 33.1708 28 32.9333 28 32.65V29.5C28 29.0833 28.1458 28.7292 28.4375 28.4375C28.7292 28.1458 29.0833 28 29.5 28H32.65C32.9333 28 33.1708 28.0958 33.3625 28.2875C33.5542 28.4792 33.65 28.7167 33.65 29C33.65 29.2833 33.5542 29.5208 33.3625 29.7125C33.1708 29.9042 32.9333 30 32.65 30H31.4L33.65 32.25C33.8333 32.4333 33.925 32.6625 33.925 32.9375C33.925 33.2125 33.8333 33.45 33.65 33.65C33.45 33.85 33.2125 33.95 32.9375 33.95C32.6625 33.95 32.425 33.85 32.225 33.65L30 31.425ZM24 34C22.6167 34 21.3167 33.7375 20.1 33.2125C18.8833 32.6875 17.825 31.975 16.925 31.075C16.025 30.175 15.3125 29.1167 14.7875 27.9C14.2625 26.6833 14 25.3833 14 24C14 22.6167 14.2625 21.3167 14.7875 20.1C15.3125 18.8833 16.025 17.825 16.925 16.925C17.825 16.025 18.8833 15.3125 20.1 14.7875C21.3167 14.2625 22.6167 14 24 14C25.3833 14 26.6833 14.2625 27.9 14.7875C29.1167 15.3125 30.175 16.025 31.075 16.925C31.975 17.825 32.6875 18.8833 33.2125 20.1C33.7375 21.3167 34 22.6167 34 24C34 24.1667 33.9958 24.35 33.9875 24.55C33.9792 24.75 33.9667 24.9333 33.95 25.1C33.9167 25.3833 33.8 25.6042 33.6 25.7625C33.4 25.9208 33.15 26 32.85 26C32.5833 26 32.3583 25.8833 32.175 25.65C31.9917 25.4167 31.9167 25.1667 31.95 24.9C31.9833 24.7333 32 24.5833 32 24.45V24C32 23.6667 31.9792 23.3333 31.9375 23C31.8958 22.6667 31.8333 22.3333 31.75 22H28.35C28.4 22.3333 28.4375 22.6667 28.4625 23C28.4875 23.3333 28.5 23.6667 28.5 24V24.5375C28.5 24.7292 28.4917 24.9083 28.475 25.075C28.4417 25.3583 28.325 25.5833 28.125 25.75C27.925 25.9167 27.6833 26 27.4 26C27.1333 26 26.9042 25.8917 26.7125 25.675C26.5208 25.4583 26.4417 25.2167 26.475 24.95C26.4917 24.7833 26.5 24.625 26.5 24.475V24C26.5 23.6667 26.4875 23.3333 26.4625 23C26.4375 22.6667 26.4 22.3333 26.35 22H21.65C21.6 22.3333 21.5625 22.6667 21.5375 23C21.5125 23.3333 21.5 23.6667 21.5 24C21.5 24.3333 21.5125 24.6667 21.5375 25C21.5625 25.3333 21.6 25.6667 21.65 26H24C24.2833 26 24.5208 26.0958 24.7125 26.2875C24.9042 26.4792 25 26.7167 25 27C25 27.2833 24.9042 27.5208 24.7125 27.7125C24.5208 27.9042 24.2833 28 24 28H22.1C22.3 28.7167 22.5583 29.4042 22.875 30.0625C23.1917 30.7208 23.5667 31.35 24 31.95C24.1667 31.95 24.3333 31.9542 24.5 31.9625C24.6667 31.9708 24.8333 31.9667 25 31.95C25.2833 31.9167 25.5167 31.9875 25.7 32.1625C25.8833 32.3375 25.975 32.5667 25.975 32.85C25.975 33.15 25.9 33.4 25.75 33.6C25.6 33.8 25.3833 33.9167 25.1 33.95C24.9333 33.9667 24.75 33.9792 24.55 33.9875C24.35 33.9958 24.1667 34 24 34ZM16.25 26H19.65C19.6 25.6667 19.5625 25.3333 19.5375 25C19.5125 24.6667 19.5 24.3333 19.5 24C19.5 23.6667 19.5125 23.3333 19.5375 23C19.5625 22.6667 19.6 22.3333 19.65 22H16.25C16.1667 22.3333 16.1042 22.6667 16.0625 23C16.0208 23.3333 16 23.6667 16 24C16 24.3333 16.0208 24.6667 16.0625 25C16.1042 25.3333 16.1667 25.6667 16.25 26ZM21.4 31.55C21.1 30.9833 20.8375 30.4042 20.6125 29.8125C20.3875 29.2208 20.2 28.6167 20.05 28H17.1C17.5833 28.85 18.1917 29.5792 18.925 30.1875C19.6583 30.7958 20.4833 31.25 21.4 31.55ZM17.1 20H20.05C20.2 19.3833 20.3875 18.7792 20.6125 18.1875C20.8375 17.5958 21.1 17.0167 21.4 16.45C20.4833 16.75 19.6583 17.2042 18.925 17.8125C18.1917 18.4208 17.5833 19.15 17.1 20ZM22.1 20H25.9C25.7 19.2833 25.4417 18.5958 25.125 17.9375C24.8083 17.2792 24.4333 16.65 24 16.05C23.5667 16.65 23.1917 17.2792 22.875 17.9375C22.5583 18.5958 22.3 19.2833 22.1 20ZM27.95 20H30.9C30.4167 19.15 29.8083 18.4208 29.075 17.8125C28.3417 17.2042 27.5167 16.75 26.6 16.45C26.9 17.0167 27.1625 17.5958 27.3875 18.1875C27.6125 18.7792 27.8 19.3833 27.95 20Z" fill="white"/>
</g>
</svg>

